<svg width="145" height="146" viewBox="0 0 145 146" fill="none" xmlns="http://www.w3.org/2000/svg">
<path d="M72.4053 1.56699L72.1553 1.42265L71.9053 1.56699L61.513 7.56699L61.263 7.71132V8V20V20.2887L61.513 20.433L71.9053 26.433L72.1553 26.5774L72.4053 26.433L82.7976 20.433L83.0476 20.2887V20V8V7.71132L82.7976 7.56699L72.4053 1.56699Z" stroke="#4B64E9"/>
<path d="M72.2139 2V26" stroke="#4B64E9"/>
<path d="M61.8223 8L82.6069 20" stroke="#4B64E9"/>
<path d="M82.6064 8L61.8218 20" stroke="#4B64E9"/>
<path d="M72.4053 119.567L72.1553 119.423L71.9053 119.567L61.513 125.567L61.263 125.711V126V138V138.289L61.513 138.433L71.9053 144.433L72.1553 144.577L72.4053 144.433L82.7976 138.433L83.0476 138.289V138V126V125.711L82.7976 125.567L72.4053 119.567Z" stroke="#4B64E9"/>
<path d="M72.2139 120V144" stroke="#4B64E9"/>
<path d="M61.8223 126L82.6069 138" stroke="#4B64E9"/>
<path d="M82.6064 126L61.8218 138" stroke="#4B64E9"/>
<path d="M72.4053 36.567L72.1553 36.4226L71.9053 36.567L40.7284 54.567L40.4784 54.7113V55V91V91.2887L40.7284 91.433L71.9053 109.433L72.1553 109.577L72.4053 109.433L103.582 91.433L103.832 91.2887V91V55V54.7113L103.582 54.567L72.4053 36.567Z" fill="#1E3DE4" stroke="#4B64E9"/>
<path d="M72.1553 37V109" stroke="#4B64E9"/>
<path d="M40.9785 55L103.332 91" stroke="#4B64E9"/>
<path d="M103.332 55L40.9782 91" stroke="#4B64E9"/>
<path d="M132.405 60.567L132.155 60.4226L131.905 60.567L121.513 66.567L121.263 66.7113V67V79V79.2887L121.513 79.433L131.905 85.433L132.155 85.5774L132.405 85.433L142.798 79.433L143.048 79.2887V79V67V66.7113L142.798 66.567L132.405 60.567Z" stroke="#4B64E9"/>
<path d="M132.214 61V85" stroke="#4B64E9"/>
<path d="M121.822 67L142.607 79" stroke="#4B64E9"/>
<path d="M142.606 67L121.822 79" stroke="#4B64E9"/>
<path d="M12.4053 60.567L12.1553 60.4226L11.9053 60.567L1.51297 66.567L1.26297 66.7113V67V79V79.2887L1.51297 79.433L11.9053 85.433L12.1553 85.5774L12.4053 85.433L22.7976 79.433L23.0476 79.2887V79V67V66.7113L22.7976 66.567L12.4053 60.567Z" stroke="#4B64E9"/>
<path d="M12.2139 61V85" stroke="#4B64E9"/>
<path d="M1.82227 67L22.6069 79" stroke="#4B64E9"/>
<path d="M22.6064 67L1.82184 79" stroke="#4B64E9"/>
</svg>
