<svg width="145" height="144" viewBox="0 0 145 144" fill="none" xmlns="http://www.w3.org/2000/svg">
<path d="M63.2803 0.783494L63.1553 0.711325L63.0303 0.783494L1.54247 36.2835L1.41747 36.3557V36.5V107.5V107.644L1.54247 107.717L63.0303 143.217L63.1553 143.289L63.2803 143.217L124.768 107.717L124.893 107.644V107.5V36.5V36.3557L124.768 36.2835L63.2803 0.783494Z" stroke="#4B64E9" stroke-width="0.5"/>
<path d="M63.1553 1V143" stroke="#4B64E9" stroke-width="0.5"/>
<path d="M1.66699 36.5L124.643 107.5" stroke="#4B64E9" stroke-width="0.5"/>
<path d="M124.643 36.5L1.66698 107.5" stroke="#4B64E9" stroke-width="0.5"/>
<path d="M81.2803 0.783494L81.1553 0.711325L81.0303 0.783494L19.5425 36.2835L19.4175 36.3557V36.5V107.5V107.644L19.5425 107.717L81.0303 143.217L81.1553 143.289L81.2803 143.217L142.768 107.717L142.893 107.644V107.5V36.5V36.3557L142.768 36.2835L81.2803 0.783494Z" stroke="#4B64E9" stroke-width="0.5"/>
<path d="M81.1553 1V143" stroke="#4B64E9" stroke-width="0.5"/>
<path d="M19.667 36.5L142.643 107.5" stroke="#4B64E9" stroke-width="0.5"/>
<path d="M142.643 36.5L19.667 107.5" stroke="#4B64E9" stroke-width="0.5"/>
<path d="M72.2803 0.783494L72.1553 0.711325L72.0303 0.783494L10.5425 36.2835L10.4175 36.3557V36.5V107.5V107.644L10.5425 107.717L72.0303 143.217L72.1553 143.289L72.2803 143.217L133.768 107.717L133.893 107.644V107.5V36.5V36.3557L133.768 36.2835L72.2803 0.783494Z" stroke="#4B64E9" stroke-width="0.5"/>
<path d="M72.1553 1V143" stroke="#4B64E9" stroke-width="0.5"/>
<path d="M10.667 36.5L133.643 107.5" stroke="#4B64E9" stroke-width="0.5"/>
<path d="M133.643 36.5L10.667 107.5" stroke="#4B64E9" stroke-width="0.5"/>
<path d="M72.4053 35.567L72.1553 35.4226L71.9053 35.567L40.7284 53.567L40.4784 53.7113V54V90V90.2887L40.7284 90.433L71.9053 108.433L72.1553 108.577L72.4053 108.433L103.582 90.433L103.832 90.2887V90V54V53.7113L103.582 53.567L72.4053 35.567Z" fill="#1E3DE4" stroke="#4B64E9"/>
<path d="M72.332 36V108" stroke="#4B64E9"/>
<path d="M41.1553 54L103.509 90" stroke="#4B64E9"/>
<path d="M103.51 54L41.1559 90" stroke="#4B64E9"/>
</svg>
