<svg width="474" height="432" viewBox="0 0 474 432" fill="none" xmlns="http://www.w3.org/2000/svg">
<path d="M183.201 22.0212L182.701 21.7325L182.201 22.0212L168.923 29.6869L168.423 29.9756V30.553V45.8845V46.4619L168.923 46.7505L182.201 54.4163L182.701 54.705L183.201 54.4163L196.478 46.7505L196.978 46.4619V45.8845V30.553V29.9756L196.478 29.6869L183.201 22.0212Z" stroke="#1E3DE4" stroke-width="2"/>
<path d="M182.775 22.8872V53.5503" stroke="#1E3DE4" stroke-width="2"/>
<path d="M169.499 30.5532L196.054 45.8848" stroke="#1E3DE4" stroke-width="2"/>
<path d="M196.053 30.5532L169.498 45.8848" stroke="#1E3DE4" stroke-width="2"/>
<path d="M287.966 1.57929L287.466 1.29061L286.966 1.57929L273.689 9.24506L273.189 9.53373V10.1111V25.4426V26.02L273.689 26.3086L286.966 33.9744L287.466 34.2631L287.966 33.9744L301.244 26.3086L301.744 26.02V25.4426V10.1111V9.53373L301.244 9.24506L287.966 1.57929Z" stroke="#1E3DE4" stroke-width="2"/>
<path d="M287.541 2.44531V33.1084" stroke="#1E3DE4" stroke-width="2"/>
<path d="M274.265 10.1113L300.82 25.4429" stroke="#1E3DE4" stroke-width="2"/>
<path d="M300.818 10.1113L274.263 25.4429" stroke="#1E3DE4" stroke-width="2"/>
<path d="M303.297 121.676L302.797 121.387L302.297 121.676L289.02 129.342L288.52 129.63V130.208V145.539V146.117L289.02 146.405L302.297 154.071L302.797 154.36L303.297 154.071L316.575 146.405L317.075 146.117V145.539V130.208V129.63L316.575 129.342L303.297 121.676Z" stroke="#1E3DE4" stroke-width="2"/>
<path d="M302.872 122.542V153.205" stroke="#1E3DE4" stroke-width="2"/>
<path d="M289.596 130.208L316.151 145.54" stroke="#1E3DE4" stroke-width="2"/>
<path d="M316.149 130.208L289.594 145.54" stroke="#1E3DE4" stroke-width="2"/>
<path d="M459.168 92.2902L458.668 92.0015L458.168 92.2902L444.891 99.956L444.391 100.245V100.822V116.154V116.731L444.891 117.02L458.168 124.685L458.668 124.974L459.168 124.685L472.446 117.02L472.946 116.731V116.154V100.822V100.245L472.446 99.956L459.168 92.2902Z" stroke="#1E3DE4" stroke-width="2"/>
<path d="M458.743 93.1562V123.819" stroke="#1E3DE4" stroke-width="2"/>
<path d="M445.467 100.822L472.022 116.154" stroke="#1E3DE4" stroke-width="2"/>
<path d="M472.021 100.822L445.466 116.154" stroke="#1E3DE4" stroke-width="2"/>
<path d="M414.452 137.008L413.952 136.719L413.452 137.008L400.174 144.674L399.674 144.962V145.54V160.871V161.449L400.174 161.737L413.452 169.403L413.952 169.692L414.452 169.403L427.729 161.737L428.229 161.449V160.871V145.54V144.962L427.729 144.674L414.452 137.008Z" stroke="#1E3DE4" stroke-width="2"/>
<path d="M414.026 137.874V168.537" stroke="#1E3DE4" stroke-width="2"/>
<path d="M400.75 145.54L427.305 160.872" stroke="#1E3DE4" stroke-width="2"/>
<path d="M427.304 145.54L400.749 160.872" stroke="#1E3DE4" stroke-width="2"/>
<path d="M390.176 304.378L389.676 304.089L389.176 304.378L375.899 312.044L375.399 312.333V312.91V328.241V328.819L375.899 329.107L389.176 336.773L389.676 337.062L390.176 336.773L403.454 329.107L403.954 328.819V328.241V312.91V312.333L403.454 312.044L390.176 304.378Z" stroke="#1E3DE4" stroke-width="2"/>
<path d="M389.751 305.243V335.906" stroke="#1E3DE4" stroke-width="2"/>
<path d="M376.475 312.909L403.03 328.241" stroke="#1E3DE4" stroke-width="2"/>
<path d="M403.028 312.909L376.473 328.241" stroke="#1E3DE4" stroke-width="2"/>
<path d="M448.948 208.555L448.448 208.266L447.948 208.555L434.67 216.221L434.17 216.509V217.087V232.418V232.996L434.67 233.284L447.948 240.95L448.448 241.239L448.948 240.95L462.225 233.284L462.725 232.996V232.418V217.087V216.509L462.225 216.221L448.948 208.555Z" stroke="#1E3DE4" stroke-width="2"/>
<path d="M448.522 209.421V240.084" stroke="#1E3DE4" stroke-width="2"/>
<path d="M435.246 217.087L461.801 232.418" stroke="#1E3DE4" stroke-width="2"/>
<path d="M461.801 217.087L435.246 232.418" stroke="#1E3DE4" stroke-width="2"/>
<path d="M351.848 359.316L351.348 359.027L350.848 359.316L337.571 366.981L337.071 367.27V367.847V383.179V383.756L337.571 384.045L350.848 391.711L351.348 391.999L351.848 391.711L365.126 384.045L365.626 383.756V383.179V367.847V367.27L365.126 366.981L351.848 359.316Z" stroke="#1E3DE4" stroke-width="2"/>
<path d="M351.423 360.182V390.845" stroke="#1E3DE4" stroke-width="2"/>
<path d="M338.146 367.848L364.701 383.179" stroke="#1E3DE4" stroke-width="2"/>
<path d="M364.7 367.848L338.145 383.179" stroke="#1E3DE4" stroke-width="2"/>
<path d="M72.0474 23.299L71.5474 23.0103L71.0474 23.299L57.7699 30.9648L57.2699 31.2535V31.8308V47.1623V47.7397L57.7699 48.0284L71.0474 55.6941L71.5474 55.9828L72.0474 55.6941L85.3249 48.0284L85.8249 47.7397V47.1623V31.8308V31.2535L85.3249 30.9648L72.0474 23.299Z" stroke="#1E3DE4" stroke-width="2"/>
<path d="M71.6221 24.165V54.8281" stroke="#1E3DE4" stroke-width="2"/>
<path d="M58.3457 31.8311L84.9007 47.1626" stroke="#1E3DE4" stroke-width="2"/>
<path d="M84.8994 31.8311L58.3444 47.1626" stroke="#1E3DE4" stroke-width="2"/>
<path d="M309.686 259.661L309.186 259.373L308.686 259.661L295.409 267.327L294.909 267.616V268.193V283.525V284.102L295.409 284.391L308.686 292.056L309.186 292.345L309.686 292.056L322.964 284.391L323.464 284.102V283.525V268.193V267.616L322.964 267.327L309.686 259.661Z" stroke="#1E3DE4" stroke-width="2"/>
<path d="M309.261 260.526V291.189" stroke="#1E3DE4" stroke-width="2"/>
<path d="M295.984 268.192L322.539 283.524" stroke="#1E3DE4" stroke-width="2"/>
<path d="M322.538 268.192L295.983 283.524" stroke="#1E3DE4" stroke-width="2"/>
<path d="M134.651 347.817L134.151 347.528L133.651 347.817L120.373 355.482L119.873 355.771V356.348V371.68V372.257L120.373 372.546L133.651 380.212L134.151 380.5L134.651 380.212L147.928 372.546L148.428 372.257V371.68V356.348V355.771L147.928 355.482L134.651 347.817Z" stroke="#1E3DE4" stroke-width="2"/>
<path d="M134.226 348.683V379.346" stroke="#1E3DE4" stroke-width="2"/>
<path d="M120.949 356.349L147.504 371.68" stroke="#1E3DE4" stroke-width="2"/>
<path d="M147.503 356.349L120.948 371.68" stroke="#1E3DE4" stroke-width="2"/>
<path d="M164.037 397.644L163.537 397.355L163.037 397.644L149.759 405.31L149.259 405.598V406.176V421.507V422.084L149.759 422.373L163.037 430.039L163.537 430.328L164.037 430.039L177.314 422.373L177.814 422.084V421.507V406.176V405.598L177.314 405.31L164.037 397.644Z" stroke="#1E3DE4" stroke-width="2"/>
<path d="M163.611 398.51V429.173" stroke="#1E3DE4" stroke-width="2"/>
<path d="M150.335 406.176L176.89 421.507" stroke="#1E3DE4" stroke-width="2"/>
<path d="M176.889 406.176L150.334 421.507" stroke="#1E3DE4" stroke-width="2"/>
<path d="M40.1069 241.774L39.6069 241.485L39.1069 241.774L25.8294 249.439L25.3294 249.728V250.305V265.637V266.214L25.8294 266.503L39.1069 274.169L39.6069 274.457L40.1069 274.169L53.3844 266.503L53.8844 266.214V265.637V250.305V249.728L53.3844 249.439L40.1069 241.774Z" stroke="#1E3DE4" stroke-width="2"/>
<path d="M39.6816 242.64V273.303" stroke="#1E3DE4" stroke-width="2"/>
<path d="M26.4053 250.306L52.9603 265.637" stroke="#1E3DE4" stroke-width="2"/>
<path d="M52.959 250.306L26.404 265.637" stroke="#1E3DE4" stroke-width="2"/>
<path d="M59.271 138.286L58.771 137.998L58.271 138.286L44.9935 145.952L44.4935 146.241V146.818V162.15V162.727L44.9935 163.016L58.271 170.681L58.771 170.97L59.271 170.681L72.5485 163.016L73.0485 162.727V162.15V146.818V146.241L72.5485 145.952L59.271 138.286Z" stroke="#1E3DE4" stroke-width="2"/>
<path d="M58.8457 139.152V169.815" stroke="#1E3DE4" stroke-width="2"/>
<path d="M45.5693 146.818L72.1243 162.15" stroke="#1E3DE4" stroke-width="2"/>
<path d="M72.123 146.818L45.568 162.15" stroke="#1E3DE4" stroke-width="2"/>
<path d="M24.7749 312.042L24.2749 311.754L23.7749 312.042L10.4974 319.708L9.9974 319.997V320.574V335.906V336.483L10.4974 336.772L23.7749 344.437L24.2749 344.726L24.7749 344.437L38.0524 336.772L38.5524 336.483V335.906V320.574V319.997L38.0524 319.708L24.7749 312.042Z" stroke="#1E3DE4" stroke-width="2"/>
<path d="M24.3496 312.908V343.571" stroke="#1E3DE4" stroke-width="2"/>
<path d="M11.0732 320.574L37.6282 335.906" stroke="#1E3DE4" stroke-width="2"/>
<path d="M37.627 320.574L11.072 335.906" stroke="#1E3DE4" stroke-width="2"/>
<path d="M133.374 184.28L132.874 183.992L132.374 184.28L119.096 191.946L118.596 192.235V192.812V208.144V208.721L119.096 209.01L132.374 216.676L132.874 216.964L133.374 216.676L146.651 209.01L147.151 208.721V208.144V192.812V192.235L146.651 191.946L133.374 184.28Z" stroke="#1E3DE4" stroke-width="2"/>
<path d="M132.948 185.146V215.809" stroke="#1E3DE4" stroke-width="2"/>
<path d="M119.672 192.812L146.227 208.143" stroke="#1E3DE4" stroke-width="2"/>
<path d="M146.226 192.812L119.671 208.143" stroke="#1E3DE4" stroke-width="2"/>
<path d="M282.856 382.313L282.356 382.024L281.856 382.313L268.578 389.978L268.078 390.267V390.844V406.176V406.753L268.578 407.042L281.856 414.708L282.356 414.997L282.856 414.708L296.133 407.042L296.633 406.753V406.176V390.844V390.267L296.133 389.978L282.856 382.313Z" stroke="#1E3DE4" stroke-width="2"/>
<path d="M282.431 383.179V413.842" stroke="#1E3DE4" stroke-width="2"/>
<path d="M269.154 390.845L295.709 406.176" stroke="#1E3DE4" stroke-width="2"/>
<path d="M295.708 390.845L269.153 406.176" stroke="#1E3DE4" stroke-width="2"/>
<path d="M15.8315 174.059L15.3315 173.77L14.8315 174.059L1.55404 181.725L1.05404 182.013V182.591V197.922V198.499L1.55404 198.788L14.8315 206.454L15.3315 206.743L15.8315 206.454L29.109 198.788L29.609 198.499V197.922V182.591V182.013L29.109 181.725L15.8315 174.059Z" stroke="#1E3DE4" stroke-width="2"/>
<path d="M15.4062 174.925V205.588" stroke="#1E3DE4" stroke-width="2"/>
<path d="M2.12988 182.591L28.6849 197.922" stroke="#1E3DE4" stroke-width="2"/>
<path d="M28.6836 182.591L2.1286 197.922" stroke="#1E3DE4" stroke-width="2"/>
<path d="M100.155 65.4601L99.6553 65.1715L99.1553 65.4601L72.6003 80.7917L72.1003 81.0804V81.6577V112.321V112.898L72.6003 113.187L99.1553 128.518L99.6553 128.807L100.155 128.518L126.71 113.187L127.21 112.898V112.321V81.6577V81.0804L126.71 80.7917L100.155 65.4601Z" stroke="#1E3DE4" stroke-width="2"/>
<path d="M99.8047 66.3262V127.652" stroke="#1E3DE4" stroke-width="2"/>
<path d="M73.252 81.6572L126.362 112.32" stroke="#1E3DE4" stroke-width="2"/>
<path d="M126.36 81.6572L73.2503 112.32" stroke="#1E3DE4" stroke-width="2"/>
<path d="M154.764 65.4601L154.264 65.1715L153.764 65.4601L127.209 80.7917L126.709 81.0804V81.6577V112.321V112.898L127.209 113.187L153.764 128.518L154.264 128.807L154.764 128.518L181.319 113.187L181.819 112.898V112.321V81.6577V81.0804L181.319 80.7917L154.764 65.4601Z" stroke="#1E3DE4" stroke-width="2"/>
<path d="M154.413 66.3262V127.652" stroke="#1E3DE4" stroke-width="2"/>
<path d="M127.86 81.6572L180.97 112.32" stroke="#1E3DE4" stroke-width="2"/>
<path d="M180.969 81.6572L127.859 112.32" stroke="#1E3DE4" stroke-width="2"/>
<path d="M234.306 23.299L233.806 23.0103L233.306 23.299L206.751 38.6305L206.251 38.9192V39.4966V70.1596V70.737L206.751 71.0257L233.306 86.3572L233.806 86.6459L234.306 86.3572L260.861 71.0257L261.361 70.737V70.1596V39.4966V38.9192L260.861 38.6305L234.306 23.299Z" stroke="#1E3DE4" stroke-width="2"/>
<path d="M233.955 24.165V85.4912" stroke="#1E3DE4" stroke-width="2"/>
<path d="M207.402 39.4961L260.512 70.1592" stroke="#1E3DE4" stroke-width="2"/>
<path d="M260.511 39.4961L207.401 70.1592" stroke="#1E3DE4" stroke-width="2"/>
<path d="M353.125 45.0187L352.625 44.7301L352.125 45.0187L338.848 52.6845L338.348 52.9732V53.5505V68.8821V69.4594L338.848 69.7481L352.125 77.4139L352.625 77.7025L353.125 77.4139L366.403 69.7481L366.903 69.4594V68.8821V53.5505V52.9732L366.403 52.6845L353.125 45.0187Z" stroke="#1E3DE4" stroke-width="2"/>
<path d="M352.7 45.8848V76.5478" stroke="#1E3DE4" stroke-width="2"/>
<path d="M339.424 53.5508L365.979 68.8823" stroke="#1E3DE4" stroke-width="2"/>
<path d="M365.979 53.5508L339.424 68.8823" stroke="#1E3DE4" stroke-width="2"/>
<path d="M133.374 303.1L132.874 302.811L132.374 303.1L119.096 310.766L118.596 311.054V311.632V326.963V327.54L119.096 327.829L132.374 335.495L132.874 335.784L133.374 335.495L146.651 327.829L147.151 327.54V326.963V311.632V311.054L146.651 310.766L133.374 303.1Z" stroke="#1E3DE4" stroke-width="2"/>
<path d="M132.948 303.965V334.628" stroke="#1E3DE4" stroke-width="2"/>
<path d="M119.672 311.631L146.227 326.962" stroke="#1E3DE4" stroke-width="2"/>
<path d="M146.227 311.631L119.672 326.962" stroke="#1E3DE4" stroke-width="2"/>
<path d="M234.306 55.2404L233.806 54.9517L233.306 55.2404L206.751 70.572L206.251 70.8606V71.438V102.101V102.678L206.751 102.967L233.306 118.299L233.806 118.587L234.306 118.299L260.861 102.967L261.361 102.678V102.101V71.438V70.8606L260.861 70.572L234.306 55.2404Z" stroke="#1E3DE4" stroke-width="2"/>
<path d="M233.955 56.1055V117.432" stroke="#1E3DE4" stroke-width="2"/>
<path d="M207.402 71.4365L260.512 102.1" stroke="#1E3DE4" stroke-width="2"/>
<path d="M260.511 71.4365L207.401 102.1" stroke="#1E3DE4" stroke-width="2"/>
<path d="M288.914 55.2404L288.414 54.9517L287.914 55.2404L261.359 70.572L260.859 70.8606V71.438V102.101V102.678L261.359 102.967L287.914 118.299L288.414 118.587L288.914 118.299L315.469 102.967L315.969 102.678V102.101V71.438V70.8606L315.469 70.572L288.914 55.2404Z" stroke="#1E3DE4" stroke-width="2"/>
<path d="M288.563 56.1055V117.432" stroke="#1E3DE4" stroke-width="2"/>
<path d="M262.011 71.4365L315.121 102.1" stroke="#1E3DE4" stroke-width="2"/>
<path d="M315.119 71.4365L262.009 102.1" stroke="#1E3DE4" stroke-width="2"/>
<path d="M364.624 92.2902L364.124 92.0015L363.624 92.2902L337.069 107.622L336.569 107.91V108.488V139.151V139.728L337.069 140.017L363.624 155.348L364.124 155.637L364.624 155.348L391.179 140.017L391.679 139.728V139.151V108.488V107.91L391.179 107.622L364.624 92.2902Z" stroke="#1E3DE4" stroke-width="2"/>
<path d="M364.273 93.1562V154.482" stroke="#1E3DE4" stroke-width="2"/>
<path d="M337.721 108.487L390.831 139.15" stroke="#1E3DE4" stroke-width="2"/>
<path d="M390.829 108.487L337.719 139.15" stroke="#1E3DE4" stroke-width="2"/>
<path d="M390.177 167.671L389.677 167.382L389.177 167.671L362.622 183.003L362.122 183.291V183.869V214.532V215.109L362.622 215.398L389.177 230.729L389.677 231.018L390.177 230.729L416.732 215.398L417.232 215.109V214.532V183.869V183.291L416.732 183.003L390.177 167.671Z" stroke="#1E3DE4" stroke-width="2"/>
<path d="M389.826 168.537V229.863" stroke="#1E3DE4" stroke-width="2"/>
<path d="M363.273 183.869L416.383 214.532" stroke="#1E3DE4" stroke-width="2"/>
<path d="M416.382 183.869L363.272 214.532" stroke="#1E3DE4" stroke-width="2"/>
<path d="M390.177 199.612L389.677 199.323L389.177 199.612L362.622 214.943L362.122 215.232V215.809V246.472V247.049L362.622 247.338L389.177 262.67L389.677 262.958L390.177 262.67L416.732 247.338L417.232 247.049V246.472V215.809V215.232L416.732 214.943L390.177 199.612Z" stroke="#1E3DE4" stroke-width="2"/>
<path d="M389.826 200.478V261.804" stroke="#1E3DE4" stroke-width="2"/>
<path d="M363.273 215.809L416.383 246.472" stroke="#1E3DE4" stroke-width="2"/>
<path d="M416.382 215.809L363.272 246.472" stroke="#1E3DE4" stroke-width="2"/>
<path d="M417.955 246.885L417.455 246.596L416.955 246.885L390.4 262.216L389.9 262.505V263.083V293.746V294.323L390.4 294.612L416.955 309.943L417.455 310.232L417.955 309.943L444.51 294.612L445.01 294.323V293.746V263.083V262.505L444.51 262.216L417.955 246.885Z" stroke="#1E3DE4" stroke-width="2"/>
<path d="M417.604 247.75V309.076" stroke="#1E3DE4" stroke-width="2"/>
<path d="M391.052 263.081L444.162 293.744" stroke="#1E3DE4" stroke-width="2"/>
<path d="M444.16 263.081L391.05 293.744" stroke="#1E3DE4" stroke-width="2"/>
<path d="M363.347 246.885L362.847 246.596L362.347 246.885L335.792 262.216L335.292 262.505V263.083V293.746V294.323L335.792 294.612L362.347 309.943L362.847 310.232L363.347 309.943L389.902 294.612L390.402 294.323V293.746V263.083V262.505L389.902 262.216L363.347 246.885Z" stroke="#1E3DE4" stroke-width="2"/>
<path d="M362.997 247.75V309.076" stroke="#1E3DE4" stroke-width="2"/>
<path d="M336.443 263.081L389.553 293.744" stroke="#1E3DE4" stroke-width="2"/>
<path d="M389.552 263.081L336.442 293.744" stroke="#1E3DE4" stroke-width="2"/>
<path d="M336.517 294.155L336.017 293.867L335.517 294.155L308.962 309.487L308.462 309.776V310.353V341.016V341.593L308.962 341.882L335.517 357.214L336.017 357.502L336.517 357.214L363.072 341.882L363.572 341.593V341.016V310.353V309.776L363.072 309.487L336.517 294.155Z" stroke="#1E3DE4" stroke-width="2"/>
<path d="M336.167 295.021V356.348" stroke="#1E3DE4" stroke-width="2"/>
<path d="M309.613 310.353L362.723 341.016" stroke="#1E3DE4" stroke-width="2"/>
<path d="M362.722 310.353L309.612 341.016" stroke="#1E3DE4" stroke-width="2"/>
<path d="M418.285 370.814L417.785 370.525L417.285 370.814L404.007 378.479L403.507 378.768V379.345V394.677V395.254L404.007 395.543L417.285 403.209L417.785 403.497L418.285 403.209L431.562 395.543L432.062 395.254V394.677V379.345V378.768L431.562 378.479L418.285 370.814Z" stroke="#1E3DE4" stroke-width="2"/>
<path d="M417.859 371.68V402.343" stroke="#1E3DE4" stroke-width="2"/>
<path d="M404.583 379.346L431.138 394.677" stroke="#1E3DE4" stroke-width="2"/>
<path d="M431.138 379.346L404.583 394.677" stroke="#1E3DE4" stroke-width="2"/>
<path d="M126.985 112.733L126.485 112.444L125.985 112.733L99.4303 128.064L98.9303 128.353V128.93V159.593V160.171L99.4303 160.459L125.985 175.791L126.485 176.079L126.985 175.791L153.54 160.459L154.04 160.171V159.593V128.93V128.353L153.54 128.064L126.985 112.733Z" stroke="#1E3DE4" stroke-width="2"/>
<path d="M126.635 113.599V174.925" stroke="#1E3DE4" stroke-width="2"/>
<path d="M100.082 128.93L153.192 159.593" stroke="#1E3DE4" stroke-width="2"/>
<path d="M153.19 128.93L100.08 159.593" stroke="#1E3DE4" stroke-width="2"/>
<path d="M83.5459 193.223L83.0459 192.934L82.5459 193.223L55.9909 208.554L55.4909 208.843V209.42V240.083V240.661L55.9909 240.95L82.5459 256.281L83.0459 256.57L83.5459 256.281L110.101 240.95L110.601 240.661V240.083V209.42V208.843L110.101 208.554L83.5459 193.223Z" stroke="#1E3DE4" stroke-width="2"/>
<path d="M83.1953 194.089V255.415" stroke="#1E3DE4" stroke-width="2"/>
<path d="M56.6426 209.42L109.753 240.083" stroke="#1E3DE4" stroke-width="2"/>
<path d="M109.751 209.42L56.641 240.083" stroke="#1E3DE4" stroke-width="2"/>
<path d="M110.376 240.496L109.876 240.208L109.376 240.496L82.821 255.828L82.321 256.116V256.694V287.357V287.934L82.821 288.223L109.376 303.554L109.876 303.843L110.376 303.554L136.931 288.223L137.431 287.934V287.357V256.694V256.116L136.931 255.828L110.376 240.496Z" stroke="#1E3DE4" stroke-width="2"/>
<path d="M110.025 241.361V302.687" stroke="#1E3DE4" stroke-width="2"/>
<path d="M83.4727 256.692L136.583 287.355" stroke="#1E3DE4" stroke-width="2"/>
<path d="M136.581 256.692L83.4711 287.355" stroke="#1E3DE4" stroke-width="2"/>
<path d="M82.2685 296.712L81.7685 296.423L81.2685 296.712L54.7135 312.044L54.2135 312.332V312.91V343.573V344.15L54.7135 344.439L81.2685 359.77L81.7685 360.059L82.2685 359.77L108.824 344.439L109.324 344.15V343.573V312.91V312.332L108.824 312.044L82.2685 296.712Z" stroke="#1E3DE4" stroke-width="2"/>
<path d="M81.918 297.577V358.903" stroke="#1E3DE4" stroke-width="2"/>
<path d="M55.3652 312.908L108.475 343.571" stroke="#1E3DE4" stroke-width="2"/>
<path d="M108.474 312.908L55.3636 343.571" stroke="#1E3DE4" stroke-width="2"/>
<path d="M195.978 319.708L195.478 319.42L194.978 319.708L168.423 335.04L167.923 335.328V335.906V366.569V367.146L168.423 367.435L194.978 382.766L195.478 383.055L195.978 382.766L222.533 367.435L223.033 367.146V366.569V335.906V335.328L222.533 335.04L195.978 319.708Z" stroke="#1E3DE4" stroke-width="2"/>
<path d="M195.627 320.574V381.9" stroke="#1E3DE4" stroke-width="2"/>
<path d="M169.073 335.905L222.183 366.568" stroke="#1E3DE4" stroke-width="2"/>
<path d="M222.183 335.905L169.073 366.568" stroke="#1E3DE4" stroke-width="2"/>
<path d="M224.085 366.981L223.585 366.692L223.085 366.981L196.53 382.312L196.03 382.601V383.178V413.841V414.419L196.53 414.707L223.085 430.039L223.585 430.328L224.085 430.039L250.64 414.707L251.14 414.419V413.841V383.178V382.601L250.64 382.312L224.085 366.981Z" stroke="#1E3DE4" stroke-width="2"/>
<path d="M223.734 367.847V429.173" stroke="#1E3DE4" stroke-width="2"/>
<path d="M197.182 383.178L250.292 413.841" stroke="#1E3DE4" stroke-width="2"/>
<path d="M250.29 383.178L197.18 413.841" stroke="#1E3DE4" stroke-width="2"/>
<path d="M250.915 319.708L250.415 319.42L249.915 319.708L223.36 335.04L222.86 335.328V335.906V366.569V367.146L223.36 367.435L249.915 382.766L250.415 383.055L250.915 382.766L277.47 367.435L277.97 367.146V366.569V335.906V335.328L277.47 335.04L250.915 319.708Z" stroke="#1E3DE4" stroke-width="2"/>
<path d="M250.564 320.574V381.9" stroke="#1E3DE4" stroke-width="2"/>
<path d="M224.012 335.905L277.122 366.568" stroke="#1E3DE4" stroke-width="2"/>
<path d="M277.12 335.905L224.01 366.568" stroke="#1E3DE4" stroke-width="2"/>
<path d="M251.605 222.291L237.04 236.855L228.935 228.749L243.499 214.185L237.022 207.708L215.909 228.819L236.963 249.873L258.075 228.761L251.605 222.291Z" fill="#1A1A1A"/>
<path d="M264.602 209.126L237.094 181.617L209.508 209.203L209.596 222.097L236.976 194.717L264.556 222.297L264.602 209.126Z" fill="#38A1DB"/>
</svg>
