<svg width="474" height="475" viewBox="0 0 474 475" fill="none" xmlns="http://www.w3.org/2000/svg">
<path d="M59.6997 147.868L234.695 235.575L147.268 60.3025L70.2328 71.1138L59.6997 147.868Z" stroke="#1E3DE4" stroke-width="2"/>
<path d="M48.0795 299.562L233.838 237.839L48.0808 175.723L1.25377 237.84L48.0795 299.562Z" stroke="#1E3DE4" stroke-width="2"/>
<path d="M147.126 415.042L234.833 240.047L59.5603 327.475L70.3716 404.509L147.126 415.042Z" stroke="#1E3DE4" stroke-width="2"/>
<path d="M298.82 426.663L237.098 240.904L174.982 426.661L237.099 473.488L298.82 426.663Z" stroke="#1E3DE4" stroke-width="2"/>
<path d="M414.3 327.616L239.305 239.91L326.732 415.182L403.767 404.371L414.3 327.616Z" stroke="#1E3DE4" stroke-width="2"/>
<path d="M425.921 175.923L240.162 237.646L425.919 299.761L472.746 237.645L425.921 175.923Z" stroke="#1E3DE4" stroke-width="2"/>
<path d="M326.874 60.4419L239.167 235.437L414.44 148.01L403.628 70.975L326.874 60.4419Z" stroke="#1E3DE4" stroke-width="2"/>
<path d="M175.18 48.8217L236.902 234.58L299.018 48.823L236.901 1.99596L175.18 48.8217Z" stroke="#1E3DE4" stroke-width="2"/>
</svg>
