<svg width="1440" height="900" viewBox="0 0 1440 900" fill="none" xmlns="http://www.w3.org/2000/svg">
<g clip-path="url(#clip0)">
<rect width="1440" height="900" fill="#1A1A1A"/>
<path d="M985.6 232.68H1930.24" stroke="#1E3DE4" stroke-width="2"/>
<g filter="url(#filter0_f)">
<circle cx="985.6" cy="232.68" r="11.52" fill="#1E3DE4"/>
<circle cx="985.6" cy="232.68" r="11.02" stroke="#1E3DE4"/>
</g>
<circle cx="985.6" cy="232.68" r="5.26" fill="#1E3DE4" stroke="#1E3DE4"/>
<g filter="url(#filter1_f)">
<circle cx="1048.96" cy="232.68" r="11.52" fill="#1E3DE4"/>
<circle cx="1048.96" cy="232.68" r="11.02" stroke="#1E3DE4"/>
</g>
<circle cx="1048.96" cy="232.68" r="5.26" fill="#1E3DE4" stroke="#1E3DE4"/>
<g filter="url(#filter2_f)">
<circle cx="1086.4" cy="232.68" r="11.52" fill="#1E3DE4"/>
<circle cx="1086.4" cy="232.68" r="11.02" stroke="#1E3DE4"/>
</g>
<circle cx="1086.4" cy="232.68" r="5.26" fill="#1E3DE4" stroke="#1E3DE4"/>
<g filter="url(#filter3_f)">
<circle cx="1161.28" cy="232.68" r="11.52" fill="#1E3DE4"/>
<circle cx="1161.28" cy="232.68" r="11.02" stroke="#1E3DE4"/>
</g>
<circle cx="1161.28" cy="232.68" r="5.26" fill="#1E3DE4" stroke="#1E3DE4"/>
<g filter="url(#filter4_f)">
<circle cx="1239.04" cy="232.68" r="11.52" fill="#1E3DE4"/>
<circle cx="1239.04" cy="232.68" r="11.02" stroke="#1E3DE4"/>
</g>
<circle cx="1239.04" cy="232.68" r="5.26" fill="#1E3DE4" stroke="#1E3DE4"/>
<g filter="url(#filter5_f)">
<circle cx="1276.48" cy="232.68" r="11.52" fill="#1E3DE4"/>
<circle cx="1276.48" cy="232.68" r="11.02" stroke="#1E3DE4"/>
</g>
<circle cx="1276.48" cy="232.68" r="5.26" fill="#1E3DE4" stroke="#1E3DE4"/>
<g filter="url(#filter6_f)">
<circle cx="1351.36" cy="232.68" r="11.52" fill="#1E3DE4"/>
<circle cx="1351.36" cy="232.68" r="11.02" stroke="#1E3DE4"/>
</g>
<circle cx="1351.36" cy="232.68" r="5.26" fill="#1E3DE4" stroke="#1E3DE4"/>
<g filter="url(#filter7_f)">
<circle cx="1426.24" cy="232.68" r="11.52" fill="#1E3DE4"/>
<circle cx="1426.24" cy="232.68" r="11.02" stroke="#1E3DE4"/>
</g>
<circle cx="1426.24" cy="232.68" r="5.26" fill="#1E3DE4" stroke="#1E3DE4"/>
<g filter="url(#filter8_f)">
<circle cx="1144" cy="215.4" r="5.76" fill="#1E3DE4"/>
<circle cx="1144" cy="215.4" r="5.26" stroke="#1E3DE4"/>
</g>
<circle cx="1144" cy="215.4" r="2.38" fill="#1E3DE4" stroke="#1E3DE4"/>
<g filter="url(#filter9_f)">
<circle cx="1198.72" cy="258.6" r="5.76" fill="#1E3DE4"/>
<circle cx="1198.72" cy="258.6" r="5.26" stroke="#1E3DE4"/>
</g>
<circle cx="1198.72" cy="258.6" r="2.38" fill="#1E3DE4" stroke="#1E3DE4"/>
<g filter="url(#filter10_f)">
<circle cx="1204.48" cy="206.76" r="5.76" fill="#1E3DE4"/>
<circle cx="1204.48" cy="206.76" r="5.26" stroke="#1E3DE4"/>
</g>
<circle cx="1204.48" cy="206.76" r="2.38" fill="#1E3DE4" stroke="#1E3DE4"/>
<g filter="url(#filter11_f)">
<circle cx="1319.68" cy="206.76" r="5.76" fill="#1E3DE4"/>
<circle cx="1319.68" cy="206.76" r="5.26" stroke="#1E3DE4"/>
</g>
<circle cx="1319.68" cy="206.76" r="2.38" fill="#1E3DE4" stroke="#1E3DE4"/>
<g filter="url(#filter12_f)">
<circle cx="1334.08" cy="249.96" r="5.76" fill="#1E3DE4"/>
<circle cx="1334.08" cy="249.96" r="5.26" stroke="#1E3DE4"/>
</g>
<circle cx="1334.08" cy="249.96" r="2.38" fill="#1E3DE4" stroke="#1E3DE4"/>
<g filter="url(#filter13_f)">
<circle cx="1290.88" cy="244.2" r="5.76" fill="#1E3DE4"/>
<circle cx="1290.88" cy="244.2" r="5.26" stroke="#1E3DE4"/>
</g>
<circle cx="1290.88" cy="244.2" r="2.38" fill="#1E3DE4" stroke="#1E3DE4"/>
<g filter="url(#filter14_f)">
<circle cx="1400.32" cy="255.72" r="5.76" fill="#1E3DE4"/>
<circle cx="1400.32" cy="255.72" r="5.26" stroke="#1E3DE4"/>
</g>
<circle cx="1400.32" cy="255.72" r="2.38" fill="#1E3DE4" stroke="#1E3DE4"/>
<g filter="url(#filter15_f)">
<circle cx="1397.44" cy="206.76" r="5.76" fill="#1E3DE4"/>
<circle cx="1397.44" cy="206.76" r="5.26" stroke="#1E3DE4"/>
</g>
<circle cx="1397.44" cy="206.76" r="2.38" fill="#1E3DE4" stroke="#1E3DE4"/>
<g filter="url(#filter16_f)">
<circle cx="1374.4" cy="249.96" r="5.76" fill="#1E3DE4"/>
<circle cx="1374.4" cy="249.96" r="5.26" stroke="#1E3DE4"/>
</g>
<circle cx="1374.4" cy="249.96" r="2.38" fill="#1E3DE4" stroke="#1E3DE4"/>
<g filter="url(#filter17_f)">
<circle cx="1368.64" cy="218.28" r="5.76" fill="#1E3DE4"/>
<circle cx="1368.64" cy="218.28" r="5.26" stroke="#1E3DE4"/>
</g>
<circle cx="1368.64" cy="218.28" r="2.38" fill="#1E3DE4" stroke="#1E3DE4"/>
<g filter="url(#filter18_f)">
<circle cx="1440.64" cy="241.32" r="5.76" fill="#1E3DE4"/>
<circle cx="1440.64" cy="241.32" r="5.26" stroke="#1E3DE4"/>
</g>
<circle cx="1440.64" cy="241.32" r="2.38" fill="#1E3DE4" stroke="#1E3DE4"/>
<g filter="url(#filter19_f)">
<circle cx="1414.72" cy="226.92" r="5.76" fill="#1E3DE4"/>
<circle cx="1414.72" cy="226.92" r="5.26" stroke="#1E3DE4"/>
</g>
<circle cx="1414.72" cy="226.92" r="2.38" fill="#1E3DE4" stroke="#1E3DE4"/>
<path d="M1397.44 206.76L1483.84 252.84" stroke="#1E3DE4"/>
<path d="M1397.44 206.76H1472.32" stroke="#1E3DE4"/>
<path d="M1397.44 206.76L1538.56 258.6" stroke="#1E3DE4"/>
<path d="M1048.96 232.68L1144 215.76" stroke="#1E3DE4"/>
<path d="M1048.96 232.86L1198.72 258.6" stroke="#1E3DE4"/>
<path d="M1198.72 258.6L1239.04 232.68" stroke="#1E3DE4"/>
<path d="M1144 215.4L1161.28 232.68" stroke="#1E3DE4"/>
<path d="M1144 215.76L1204.48 206.76" stroke="#1E3DE4"/>
<path d="M1204.48 206.76L1239.04 232.68" stroke="#1E3DE4"/>
<path d="M1086.4 232.68L1319.68 206.76" stroke="#1E3DE4"/>
<path d="M1204.48 206.76H1319.68" stroke="#1E3DE4"/>
<path d="M1086.4 232.68L1368.64 218.28" stroke="#1E3DE4"/>
<path d="M1319.68 206.76L1351.36 232.68" stroke="#1E3DE4"/>
<path d="M1334.08 249.96L1351.36 232.68" stroke="#1E3DE4"/>
<path d="M1086.4 232.68L1290.88 244.2" stroke="#1E3DE4"/>
<path d="M1198.72 258.6L1290.88 244.2" stroke="#1E3DE4"/>
<path d="M1204.48 206.76L1368.64 218.28" stroke="#1E3DE4"/>
<path d="M1276.48 233.04L1544.32 206.76" stroke="#1E3DE4"/>
<path d="M1319.68 206.76L1368.64 218.28" stroke="#1E3DE4"/>
<path d="M1368.64 218.28L1374.4 249.96" stroke="#1E3DE4"/>
<path d="M1368.64 218.28L1400.32 255.72" stroke="#1E3DE4"/>
<path d="M1374.4 249.96L1397.44 206.76" stroke="#1E3DE4"/>
<path d="M1368.64 218.28L1414.72 226.92" stroke="#1E3DE4"/>
<path d="M1397.44 206.76L1414.72 226.92" stroke="#1E3DE4"/>
<path d="M1290.88 244.2L1351.36 232.68" stroke="#1E3DE4"/>
<path d="M1290.88 244.2L1334.08 249.96" stroke="#1E3DE4"/>
<path d="M1334.08 249.96H1374.4" stroke="#1E3DE4"/>
<path d="M1374.4 249.96L1400.32 255.72" stroke="#1E3DE4"/>
<path d="M1400.32 255.72L1426.24 232.68" stroke="#1E3DE4"/>
<path d="M1400.32 255.72L1440.64 241.32" stroke="#1E3DE4"/>
<path d="M1400.32 255.72L1504 232.68" stroke="#1E3DE4"/>
<path d="M1374.4 249.96L1483.84 252.84" stroke="#1E3DE4"/>
<path d="M1414.72 226.92L1596.16 218.28" stroke="#1E3DE4"/>
<path d="M1397.44 206.76L1483.84 252.84" stroke="#1E3DE4"/>
<path d="M1397.44 206.76H1472.32" stroke="#1E3DE4"/>
<path d="M1397.44 206.76L1538.56 258.6" stroke="#1E3DE4"/>
<path d="M1048.96 232.68L1144 215.76" stroke="#1E3DE4"/>
<path d="M1048.96 232.86L1198.72 258.6" stroke="#1E3DE4"/>
<path d="M1198.72 258.6L1239.04 232.68" stroke="#1E3DE4"/>
<path d="M1144 215.4L1161.28 232.68" stroke="#1E3DE4"/>
<path d="M1144 215.76L1204.48 206.76" stroke="#1E3DE4"/>
<path d="M1204.48 206.76L1239.04 232.68" stroke="#1E3DE4"/>
<path d="M1086.4 232.68L1319.68 206.76" stroke="#1E3DE4"/>
<path d="M1204.48 206.76H1319.68" stroke="#1E3DE4"/>
<path d="M1086.4 232.68L1368.64 218.28" stroke="#1E3DE4"/>
<path d="M1319.68 206.76L1351.36 232.68" stroke="#1E3DE4"/>
<path d="M1334.08 249.96L1351.36 232.68" stroke="#1E3DE4"/>
<path d="M1086.4 232.68L1290.88 244.2" stroke="#1E3DE4"/>
<path d="M1198.72 258.6L1290.88 244.2" stroke="#1E3DE4"/>
<path d="M1204.48 206.76L1368.64 218.28" stroke="#1E3DE4"/>
<path d="M1276.48 233.04L1544.32 206.76" stroke="#1E3DE4"/>
<path d="M1319.68 206.76L1368.64 218.28" stroke="#1E3DE4"/>
<path d="M1368.64 218.28L1374.4 249.96" stroke="#1E3DE4"/>
<path d="M1368.64 218.28L1400.32 255.72" stroke="#1E3DE4"/>
<path d="M1374.4 249.96L1397.44 206.76" stroke="#1E3DE4"/>
<path d="M1368.64 218.28L1414.72 226.92" stroke="#1E3DE4"/>
<path d="M1397.44 206.76L1414.72 226.92" stroke="#1E3DE4"/>
<path d="M1290.88 244.2L1351.36 232.68" stroke="#1E3DE4"/>
<path d="M1290.88 244.2L1334.08 249.96" stroke="#1E3DE4"/>
<path d="M1334.08 249.96H1374.4" stroke="#1E3DE4"/>
<path d="M1374.4 249.96L1400.32 255.72" stroke="#1E3DE4"/>
<path d="M1400.32 255.72L1426.24 232.68" stroke="#1E3DE4"/>
<path d="M1400.32 255.72L1440.64 241.32" stroke="#1E3DE4"/>
<path d="M1400.32 255.72L1504 232.68" stroke="#1E3DE4"/>
<path d="M1374.4 249.96L1483.84 252.84" stroke="#1E3DE4"/>
<path d="M1414.72 226.92L1596.16 218.28" stroke="#1E3DE4"/>
<path d="M454.561 137.68H-490.079" stroke="#1E3DE4" stroke-width="2"/>
<g filter="url(#filter20_f)">
<circle r="11.52" transform="matrix(-1 0 0 1 454.56 137.68)" fill="#1E3DE4"/>
<circle r="11.02" transform="matrix(-1 0 0 1 454.56 137.68)" stroke="#1E3DE4"/>
</g>
<circle r="5.26" transform="matrix(-1 0 0 1 454.56 137.68)" fill="#1E3DE4" stroke="#1E3DE4"/>
<g filter="url(#filter21_f)">
<circle r="11.52" transform="matrix(-1 0 0 1 391.2 137.68)" fill="#1E3DE4"/>
<circle r="11.02" transform="matrix(-1 0 0 1 391.2 137.68)" stroke="#1E3DE4"/>
</g>
<circle r="5.26" transform="matrix(-1 0 0 1 391.2 137.68)" fill="#1E3DE4" stroke="#1E3DE4"/>
<g filter="url(#filter22_f)">
<circle r="11.52" transform="matrix(-1 0 0 1 353.76 137.68)" fill="#1E3DE4"/>
<circle r="11.02" transform="matrix(-1 0 0 1 353.76 137.68)" stroke="#1E3DE4"/>
</g>
<circle r="5.26" transform="matrix(-1 0 0 1 353.761 137.68)" fill="#1E3DE4" stroke="#1E3DE4"/>
<g filter="url(#filter23_f)">
<circle r="11.52" transform="matrix(-1 0 0 1 278.88 137.68)" fill="#1E3DE4"/>
<circle r="11.02" transform="matrix(-1 0 0 1 278.88 137.68)" stroke="#1E3DE4"/>
</g>
<circle r="5.26" transform="matrix(-1 0 0 1 278.881 137.68)" fill="#1E3DE4" stroke="#1E3DE4"/>
<g filter="url(#filter24_f)">
<circle r="11.52" transform="matrix(-1 0 0 1 201.12 137.68)" fill="#1E3DE4"/>
<circle r="11.02" transform="matrix(-1 0 0 1 201.12 137.68)" stroke="#1E3DE4"/>
</g>
<circle r="5.26" transform="matrix(-1 0 0 1 201.12 137.68)" fill="#1E3DE4" stroke="#1E3DE4"/>
<g filter="url(#filter25_f)">
<circle r="11.52" transform="matrix(-1 0 0 1 163.68 137.68)" fill="#1E3DE4"/>
<circle r="11.02" transform="matrix(-1 0 0 1 163.68 137.68)" stroke="#1E3DE4"/>
</g>
<circle r="5.26" transform="matrix(-1 0 0 1 163.68 137.68)" fill="#1E3DE4" stroke="#1E3DE4"/>
<g filter="url(#filter26_f)">
<circle r="11.52" transform="matrix(-1 0 0 1 88.8003 137.68)" fill="#1E3DE4"/>
<circle r="11.02" transform="matrix(-1 0 0 1 88.8003 137.68)" stroke="#1E3DE4"/>
</g>
<circle r="5.26" transform="matrix(-1 0 0 1 88.8005 137.68)" fill="#1E3DE4" stroke="#1E3DE4"/>
<g filter="url(#filter27_f)">
<circle r="11.52" transform="matrix(-1 0 0 1 13.9204 137.68)" fill="#1E3DE4"/>
<circle r="11.02" transform="matrix(-1 0 0 1 13.9204 137.68)" stroke="#1E3DE4"/>
</g>
<circle r="5.26" transform="matrix(-1 0 0 1 13.9207 137.68)" fill="#1E3DE4" stroke="#1E3DE4"/>
<g filter="url(#filter28_f)">
<circle r="5.76" transform="matrix(-1 0 0 1 296.16 120.4)" fill="#1E3DE4"/>
<circle r="5.26" transform="matrix(-1 0 0 1 296.16 120.4)" stroke="#1E3DE4"/>
</g>
<circle r="2.38" transform="matrix(-1 0 0 1 296.16 120.4)" fill="#1E3DE4" stroke="#1E3DE4"/>
<g filter="url(#filter29_f)">
<circle r="5.76" transform="matrix(-1 0 0 1 241.44 163.6)" fill="#1E3DE4"/>
<circle r="5.26" transform="matrix(-1 0 0 1 241.44 163.6)" stroke="#1E3DE4"/>
</g>
<circle r="2.38" transform="matrix(-1 0 0 1 241.44 163.6)" fill="#1E3DE4" stroke="#1E3DE4"/>
<g filter="url(#filter30_f)">
<circle r="5.76" transform="matrix(-1 0 0 1 235.679 111.76)" fill="#1E3DE4"/>
<circle r="5.26" transform="matrix(-1 0 0 1 235.679 111.76)" stroke="#1E3DE4"/>
</g>
<circle r="2.38" transform="matrix(-1 0 0 1 235.68 111.76)" fill="#1E3DE4" stroke="#1E3DE4"/>
<g filter="url(#filter31_f)">
<circle r="5.76" transform="matrix(-1 0 0 1 120.48 111.76)" fill="#1E3DE4"/>
<circle r="5.26" transform="matrix(-1 0 0 1 120.48 111.76)" stroke="#1E3DE4"/>
</g>
<circle r="2.38" transform="matrix(-1 0 0 1 120.48 111.76)" fill="#1E3DE4" stroke="#1E3DE4"/>
<g filter="url(#filter32_f)">
<circle r="5.76" transform="matrix(-1 0 0 1 106.08 154.96)" fill="#1E3DE4"/>
<circle r="5.26" transform="matrix(-1 0 0 1 106.08 154.96)" stroke="#1E3DE4"/>
</g>
<circle r="2.38" transform="matrix(-1 0 0 1 106.08 154.96)" fill="#1E3DE4" stroke="#1E3DE4"/>
<g filter="url(#filter33_f)">
<circle r="5.76" transform="matrix(-1 0 0 1 149.28 149.2)" fill="#1E3DE4"/>
<circle r="5.26" transform="matrix(-1 0 0 1 149.28 149.2)" stroke="#1E3DE4"/>
</g>
<circle r="2.38" transform="matrix(-1 0 0 1 149.28 149.2)" fill="#1E3DE4" stroke="#1E3DE4"/>
<g filter="url(#filter34_f)">
<circle r="5.76" transform="matrix(-1 0 0 1 39.8396 160.72)" fill="#1E3DE4"/>
<circle r="5.26" transform="matrix(-1 0 0 1 39.8396 160.72)" stroke="#1E3DE4"/>
</g>
<circle r="2.38" transform="matrix(-1 0 0 1 39.8397 160.72)" fill="#1E3DE4" stroke="#1E3DE4"/>
<g filter="url(#filter35_f)">
<circle r="5.76" transform="matrix(-1 0 0 1 42.7195 111.76)" fill="#1E3DE4"/>
<circle r="5.26" transform="matrix(-1 0 0 1 42.7195 111.76)" stroke="#1E3DE4"/>
</g>
<circle r="2.38" transform="matrix(-1 0 0 1 42.7196 111.76)" fill="#1E3DE4" stroke="#1E3DE4"/>
<g filter="url(#filter36_f)">
<circle r="5.76" transform="matrix(-1 0 0 1 65.7595 154.96)" fill="#1E3DE4"/>
<circle r="5.26" transform="matrix(-1 0 0 1 65.7595 154.96)" stroke="#1E3DE4"/>
</g>
<circle r="2.38" transform="matrix(-1 0 0 1 65.7596 154.96)" fill="#1E3DE4" stroke="#1E3DE4"/>
<g filter="url(#filter37_f)">
<circle r="5.76" transform="matrix(-1 0 0 1 71.5203 123.28)" fill="#1E3DE4"/>
<circle r="5.26" transform="matrix(-1 0 0 1 71.5203 123.28)" stroke="#1E3DE4"/>
</g>
<circle r="2.38" transform="matrix(-1 0 0 1 71.5204 123.28)" fill="#1E3DE4" stroke="#1E3DE4"/>
<g filter="url(#filter38_f)">
<circle r="5.76" transform="matrix(-1 0 0 1 -0.479727 146.32)" fill="#1E3DE4"/>
<circle r="5.26" transform="matrix(-1 0 0 1 -0.479727 146.32)" stroke="#1E3DE4"/>
</g>
<circle r="2.38" transform="matrix(-1 0 0 1 -0.479609 146.32)" fill="#1E3DE4" stroke="#1E3DE4"/>
<g filter="url(#filter39_f)">
<circle r="5.76" transform="matrix(-1 0 0 1 25.4402 131.92)" fill="#1E3DE4"/>
<circle r="5.26" transform="matrix(-1 0 0 1 25.4402 131.92)" stroke="#1E3DE4"/>
</g>
<circle r="2.38" transform="matrix(-1 0 0 1 25.4403 131.92)" fill="#1E3DE4" stroke="#1E3DE4"/>
<path d="M42.7207 111.76L-43.6793 157.84" stroke="#1E3DE4"/>
<path d="M42.7207 111.76H-32.1593" stroke="#1E3DE4"/>
<path d="M42.7207 111.76L-98.3993 163.6" stroke="#1E3DE4"/>
<path d="M391.2 137.68L296.16 120.76" stroke="#1E3DE4"/>
<path d="M391.2 137.86L241.44 163.6" stroke="#1E3DE4"/>
<path d="M241.44 163.6L201.12 137.68" stroke="#1E3DE4"/>
<path d="M296.16 120.4L278.88 137.68" stroke="#1E3DE4"/>
<path d="M296.16 120.76L235.68 111.76" stroke="#1E3DE4"/>
<path d="M235.681 111.76L201.121 137.68" stroke="#1E3DE4"/>
<path d="M353.76 137.68L120.48 111.76" stroke="#1E3DE4"/>
<path d="M235.681 111.76H120.481" stroke="#1E3DE4"/>
<path d="M353.76 137.68L71.5198 123.28" stroke="#1E3DE4"/>
<path d="M120.48 111.76L88.8005 137.68" stroke="#1E3DE4"/>
<path d="M106.08 154.96L88.8001 137.68" stroke="#1E3DE4"/>
<path d="M353.76 137.68L149.28 149.2" stroke="#1E3DE4"/>
<path d="M241.44 163.6L149.28 149.2" stroke="#1E3DE4"/>
<path d="M235.681 111.76L71.5207 123.28" stroke="#1E3DE4"/>
<path d="M163.681 138.04L-104.159 111.76" stroke="#1E3DE4"/>
<path d="M120.48 111.76L71.5205 123.28" stroke="#1E3DE4"/>
<path d="M71.5205 123.28L65.7605 154.96" stroke="#1E3DE4"/>
<path d="M71.5205 123.28L39.8405 160.72" stroke="#1E3DE4"/>
<path d="M65.7598 154.96L42.7198 111.76" stroke="#1E3DE4"/>
<path d="M71.5205 123.28L25.4405 131.92" stroke="#1E3DE4"/>
<path d="M42.7207 111.76L25.4407 131.92" stroke="#1E3DE4"/>
<path d="M149.28 149.2L88.8003 137.68" stroke="#1E3DE4"/>
<path d="M149.28 149.2L106.08 154.96" stroke="#1E3DE4"/>
<path d="M106.08 154.96H65.7601" stroke="#1E3DE4"/>
<path d="M65.7598 154.96L39.8398 160.72" stroke="#1E3DE4"/>
<path d="M39.8398 160.72L13.9198 137.68" stroke="#1E3DE4"/>
<path d="M39.8398 160.72L-0.480155 146.32" stroke="#1E3DE4"/>
<path d="M39.8398 160.72L-63.8402 137.68" stroke="#1E3DE4"/>
<path d="M65.7598 154.96L-43.6802 157.84" stroke="#1E3DE4"/>
<path d="M25.4404 131.92L-156 123.28" stroke="#1E3DE4"/>
<path d="M42.7207 111.76L-43.6793 157.84" stroke="#1E3DE4"/>
<path d="M42.7207 111.76H-32.1593" stroke="#1E3DE4"/>
<path d="M42.7207 111.76L-98.3993 163.6" stroke="#1E3DE4"/>
<path d="M391.2 137.68L296.16 120.76" stroke="#1E3DE4"/>
<path d="M391.2 137.86L241.44 163.6" stroke="#1E3DE4"/>
<path d="M241.44 163.6L201.12 137.68" stroke="#1E3DE4"/>
<path d="M296.16 120.4L278.88 137.68" stroke="#1E3DE4"/>
<path d="M296.16 120.76L235.68 111.76" stroke="#1E3DE4"/>
<path d="M235.681 111.76L201.121 137.68" stroke="#1E3DE4"/>
<path d="M353.76 137.68L120.48 111.76" stroke="#1E3DE4"/>
<path d="M235.681 111.76H120.481" stroke="#1E3DE4"/>
<path d="M353.76 137.68L71.5198 123.28" stroke="#1E3DE4"/>
<path d="M120.48 111.76L88.8005 137.68" stroke="#1E3DE4"/>
<path d="M106.08 154.96L88.8001 137.68" stroke="#1E3DE4"/>
<path d="M353.76 137.68L149.28 149.2" stroke="#1E3DE4"/>
<path d="M241.44 163.6L149.28 149.2" stroke="#1E3DE4"/>
<path d="M235.681 111.76L71.5207 123.28" stroke="#1E3DE4"/>
<path d="M163.681 138.04L-104.159 111.76" stroke="#1E3DE4"/>
<path d="M120.48 111.76L71.5205 123.28" stroke="#1E3DE4"/>
<path d="M71.5205 123.28L65.7605 154.96" stroke="#1E3DE4"/>
<path d="M71.5205 123.28L39.8405 160.72" stroke="#1E3DE4"/>
<path d="M65.7598 154.96L42.7198 111.76" stroke="#1E3DE4"/>
<path d="M71.5205 123.28L25.4405 131.92" stroke="#1E3DE4"/>
<path d="M42.7207 111.76L25.4407 131.92" stroke="#1E3DE4"/>
<path d="M149.28 149.2L88.8003 137.68" stroke="#1E3DE4"/>
<path d="M149.28 149.2L106.08 154.96" stroke="#1E3DE4"/>
<path d="M106.08 154.96H65.7601" stroke="#1E3DE4"/>
<path d="M65.7598 154.96L39.8398 160.72" stroke="#1E3DE4"/>
<path d="M39.8398 160.72L13.9198 137.68" stroke="#1E3DE4"/>
<path d="M39.8398 160.72L-0.480155 146.32" stroke="#1E3DE4"/>
<path d="M39.8398 160.72L-63.8402 137.68" stroke="#1E3DE4"/>
<path d="M65.7598 154.96L-43.6802 157.84" stroke="#1E3DE4"/>
<path d="M25.4404 131.92L-156 123.28" stroke="#1E3DE4"/>
<circle cx="720.08" cy="208" r="191.5" stroke="#1E3DE4"/>
<g filter="url(#filter40_f)">
<circle cx="720.08" cy="208" r="96" fill="url(#paint0_radial)"/>
</g>
<path d="M735.487 214.905L720.123 230.268L711.573 221.718L726.936 206.354L720.104 199.521L697.833 221.791L720.042 244L742.312 221.73L735.487 214.905Z" fill="white"/>
<path d="M749.196 201.018L720.179 172L691.08 201.099L691.173 214.7L720.055 185.818L749.148 214.911L749.196 201.018Z" fill="white"/>
<g filter="url(#filter41_f)">
<ellipse cx="720" cy="638" rx="620" ry="283" fill="#1E3DE4"/>
</g>
<path d="M12.5234 517.5H-1V646H1441V500H1430.98V530H1394.92V508H1322.8V502H1283.73V456.5H1242.66V502H1216.11V476H1187.06V502.5H1124.45H1027.28V487H991.22V471.5H958.664V528H903.067V447.5H867.506L868.007 528H780.355V431H732.772V456H689.197V482H678.678V510H656.64V561H564.981V472H552.46V514H458.296V535H295.514V522H291.507V518.5H278.985V508H257.448V518.5H154.269H112.697H98.6728V515.5H92.6624V507H68.1198V515.5H62.6103V518.5H47.5842V529H41.0729V525.5H27.5495V529H15.5287V525.5H12.5234V517.5Z" fill="#1A1A1A" stroke="#1E3DE4"/>
<path d="M299 430.5L302 637H287H271.5H258.5H241.5H224C223.999 633.5 231 511 233 490C234.6 473.2 239.333 466.667 241.5 465.5C241.5 439.1 256.5 429.5 258.5 429.5V433.5C258.5 426.3 269.5 423 271.5 423V428.5C271.5 418.5 285.5 414 287 414V430.5C293 432 291.5 439 292 435C292.4 431.8 296.833 430.667 299 430.5Z" fill="#1A1A1A"/>
<path d="M287 430.5C293 432 291.5 439 292 435C292.4 431.8 296.833 430.667 299 430.5L302 637C297.578 637 292.459 637 287 637M287 430.5V414C285.5 414 271.5 418.5 271.5 428.5M287 430.5V637M271.5 428.5C271.5 437.3 271.5 428.5 271.5 423C269.5 423 258.5 426.3 258.5 433.5M271.5 428.5V637M258.5 433.5C258.5 440.7 258.5 433.833 258.5 429.5C256.5 429.5 241.5 439.1 241.5 465.5M258.5 433.5V637M241.5 465.5C239.333 466.667 234.6 473.2 233 490C231 511 223.999 633.5 224 637C224 637 231.153 637 241.5 637M241.5 465.5V637M241.5 637C246.558 637 252.379 637 258.5 637M258.5 637C262.74 637 267.125 637 271.5 637M271.5 637C276.77 637 282.026 637 287 637" stroke="#1E3DE4"/>
<path d="M381.254 467C381.654 463.8 386.087 462.667 388.254 462.5L390.782 636.5H376.254H360.754H347.754H330.754H315C317.21 597.695 320.892 536.303 322.254 522C323.854 505.2 328.587 498.667 330.754 497.5C330.754 471.1 345.754 461.5 347.754 461.5V465.5C347.754 458.3 358.754 455 360.754 455V460.5C360.754 450.5 374.754 446 376.254 446V462.5C382.254 464 380.754 471 381.254 467Z" fill="#1A1A1A"/>
<path d="M376.254 462.5C382.254 464 380.754 471 381.254 467C381.654 463.8 386.087 462.667 388.254 462.5L390.782 636.5H376.254M376.254 462.5V446C374.754 446 360.754 450.5 360.754 460.5M376.254 462.5V636.5M360.754 460.5C360.754 469.3 360.754 460.5 360.754 455C358.754 455 347.754 458.3 347.754 465.5M360.754 460.5V636.5M347.754 465.5C347.754 472.7 347.754 465.833 347.754 461.5C345.754 461.5 330.754 471.1 330.754 497.5M347.754 465.5V636.5M330.754 497.5C328.587 498.667 323.854 505.2 322.254 522C320.892 536.304 317.21 597.695 315 636.5H330.754M330.754 497.5V636.5M330.754 636.5H347.754M347.754 636.5H360.754M360.754 636.5H376.254" stroke="#1E3DE4"/>
<mask id="mask0" mask-type="alpha" maskUnits="userSpaceOnUse" x="416" y="314" width="68" height="324">
<rect x="416.5" y="314.5" width="67" height="323" fill="#1A1A1A" stroke="#1E3DE4"/>
</mask>
<g mask="url(#mask0)">
<rect x="416.5" y="314.5" width="67" height="323" fill="#1A1A1A" stroke="#1E3DE4"/>
<path d="M416 323H484" stroke="#1E3DE4"/>
<path d="M416 331H484" stroke="#1E3DE4"/>
<path d="M416 339H484" stroke="#1E3DE4"/>
<path d="M416 347H484" stroke="#1E3DE4"/>
<path d="M416 355H484" stroke="#1E3DE4"/>
<path d="M416 363H484" stroke="#1E3DE4"/>
<path d="M416 371H484" stroke="#1E3DE4"/>
<path d="M416 379H484" stroke="#1E3DE4"/>
<path d="M416 387H484" stroke="#1E3DE4"/>
<path d="M416 395H484" stroke="#1E3DE4"/>
<path d="M416 403H484" stroke="#1E3DE4"/>
<path d="M416 411H484" stroke="#1E3DE4"/>
<path d="M416 419H484" stroke="#1E3DE4"/>
<path d="M416 427H484" stroke="#1E3DE4"/>
<path d="M416 435H484" stroke="#1E3DE4"/>
<path d="M416 443H484" stroke="#1E3DE4"/>
<path d="M416 451H484" stroke="#1E3DE4"/>
<path d="M416 459H484" stroke="#1E3DE4"/>
<path d="M416 467H484" stroke="#1E3DE4"/>
<path d="M416 475H484" stroke="#1E3DE4"/>
<path d="M416 483H484" stroke="#1E3DE4"/>
<path d="M416 491H484" stroke="#1E3DE4"/>
<path d="M416 499H484" stroke="#1E3DE4"/>
<path d="M416 507H484" stroke="#1E3DE4"/>
<path d="M416 515H484" stroke="#1E3DE4"/>
<path d="M416 523H484" stroke="#1E3DE4"/>
<path d="M416 531H484" stroke="#1E3DE4"/>
<path d="M416 539H484" stroke="#1E3DE4"/>
<path d="M416 547H484" stroke="#1E3DE4"/>
<path d="M416 555H484" stroke="#1E3DE4"/>
<path d="M416 563H484" stroke="#1E3DE4"/>
<path d="M416 571H484" stroke="#1E3DE4"/>
<path d="M416 579H484" stroke="#1E3DE4"/>
<path d="M416 587H484" stroke="#1E3DE4"/>
<path d="M416 595H484" stroke="#1E3DE4"/>
</g>
<mask id="mask1" mask-type="alpha" maskUnits="userSpaceOnUse" x="512" y="175" width="74" height="463">
<path d="M579 176C561.4 232 575.667 506.667 585 637H513C522.333 506.667 536.6 232 519 176C523.167 177.5 534.6 180.5 549 180.5C563.4 180.5 574.834 177.5 579 176Z" fill="#1A1A1A" stroke="#1E3DE4"/>
</mask>
<g mask="url(#mask1)">
<path d="M579 176C561.4 232 575.667 506.667 585 637H513C522.333 506.667 536.6 232 519 176C523.167 177.5 534.6 180.5 549 180.5C563.4 180.5 574.834 177.5 579 176Z" fill="#1A1A1A" stroke="#1E3DE4"/>
<path d="M520 181H577.816M521 185H577.816M521 189H577.816M521 193H577.816M521 197H577.816M521 201H577.816M521 205H577.816M521 209H577.816M521 213H577.816M521 217H577.816M521 221H577.816M521 225H577.816M521 229H577.816M521 233H577.816M521 237H577.816M521 241H577.816M521 245H577.816M521 249H577.816M521 253H577.816M521 257H577.816M521 261H577.816M521 265H577.816M521 269H577.816M521 273H577.816M521 277H577.816M521 281H577.816M521 285H577.816M521 289H577.816M521 293H577.816M522.184 297H579M522.184 301H579M522.184 305H579M522.184 309H579M522.184 313H579M522.184 317H579M522.184 321H579M522.184 325H579M522.184 329H579M522.184 333H579M522.184 337H579M518 337H584.612M518 341H584.612M518 345H584.612M518 349H584.612M518 353H584.612M518 357H584.612M518 361H584.612M518 365H584.612M518 369H584.612M518 373H584.612M518 377H584.612M518 381H584.612M518 385H584.612M518 389H584.612M518 393H584.612M518 397H584.612M518 401H584.612M518 405H584.612M518 409H584.612M518 413H584.612M518 417H584.612M518 421H584.612M518 425H584.612M518 429H584.612M518 433H584.612M518 437H584.612M518 441H584.612M518 445H584.612M518 449H584.612M518 453H584.612M518 457H584.612M518 461H584.612M518 465H584.612M518 469H584.612M518 473H584.612M518 477H584.612M518 481H584.612M518 485H584.612M518 489H584.612M518 493H584.612M518 497H584.612M518 501H584.612M518 505H584.612M518 509H584.612M518 513H584.612M518 517H584.612M518 521H584.612M518 525H584.612M518 529H584.612M518 533H584.612M518 537H584.612M518 541H584.612M518 545H584.612M518 549H584.612M518 553H584.612M518 557H584.612M518 561H584.612M518 565H584.612M518 569H584.612M518 573H584.612M518 577H584.612M518 581H584.612M518 585H584.612M518 589H584.612M518 593H584.612M518 597H584.612M518 601H584.612M518 605H584.612M519.388 609H586M519.388 613H586M519.388 617H586M519.388 621H586M519.388 625H586M519.388 629H586M519.388 633H586M519.388 637H586M519.388 641H586M519.388 645H586M519.388 649H586" stroke="#1E3DE4"/>
</g>
<path d="M543.001 538.996C525.401 464.196 483 454.999 465.001 462.496C444.5 472.497 441 526.497 441 538.996C441 576.997 441 604.997 445 636.997H543.001C553.001 610.997 547.167 560.83 543.001 538.996Z" fill="#1A1A1A" stroke="#1E3DE4"/>
<mask id="mask2" mask-type="alpha" maskUnits="userSpaceOnUse" x="452" y="479" width="85" height="138">
<path d="M531.532 540.547C517.982 482.957 485.337 475.876 471.479 481.648C455.695 489.348 453 530.924 453 540.547C453 569.805 453 591.362 456.08 616H531.532C539.232 595.982 534.74 557.357 531.532 540.547Z" fill="#1A1A1A" stroke="#1E3DE4"/>
</mask>
<g mask="url(#mask2)">
<path d="M531.532 540.547C517.982 482.957 485.337 475.876 471.479 481.648C455.695 489.348 453 530.924 453 540.547C453 569.805 453 591.362 456.08 616H531.532C539.232 595.982 534.74 557.357 531.532 540.547Z" fill="#1A1A1A" stroke="#1E3DE4"/>
<path d="M451 480H539" stroke="#1E3DE4"/>
<path d="M451 490H539" stroke="#1E3DE4"/>
<path d="M451 500H539" stroke="#1E3DE4"/>
<path d="M451 510H539" stroke="#1E3DE4"/>
<path d="M451 520H539" stroke="#1E3DE4"/>
<path d="M451 530H539" stroke="#1E3DE4"/>
<path d="M451 540H539" stroke="#1E3DE4"/>
<path d="M451 550H539" stroke="#1E3DE4"/>
<path d="M451 560H539" stroke="#1E3DE4"/>
<path d="M451 570H539" stroke="#1E3DE4"/>
<path d="M451 580H539" stroke="#1E3DE4"/>
<path d="M451 590H539" stroke="#1E3DE4"/>
<path d="M451 600H539" stroke="#1E3DE4"/>
<path d="M451 610H539" stroke="#1E3DE4"/>
</g>
<rect x="599.5" y="361.5" width="47" height="275" fill="#1A1A1A" stroke="#1E3DE4"/>
<path d="M599 367H646.02" stroke="#1E3DE4"/>
<path d="M599 373H646.02" stroke="#1E3DE4"/>
<path d="M599 379H646.02" stroke="#1E3DE4"/>
<path d="M599 385H646.02" stroke="#1E3DE4"/>
<path d="M599 391H646.02" stroke="#1E3DE4"/>
<path d="M599 397H646.02" stroke="#1E3DE4"/>
<path d="M599 403H646.02" stroke="#1E3DE4"/>
<path d="M599 409H646.02" stroke="#1E3DE4"/>
<path d="M599 415H646.02" stroke="#1E3DE4"/>
<path d="M599 421H646.02" stroke="#1E3DE4"/>
<path d="M599 427H646.02" stroke="#1E3DE4"/>
<path d="M599 433H646.02" stroke="#1E3DE4"/>
<path d="M599 439H646.02" stroke="#1E3DE4"/>
<path d="M599 445H646.02" stroke="#1E3DE4"/>
<path d="M599 451H646.02" stroke="#1E3DE4"/>
<path d="M599 457H646.02" stroke="#1E3DE4"/>
<path d="M599 463H646.02" stroke="#1E3DE4"/>
<path d="M599 469H646.02" stroke="#1E3DE4"/>
<path d="M599 475H646.02" stroke="#1E3DE4"/>
<path d="M599 481H646.02" stroke="#1E3DE4"/>
<path d="M599 487H646.02" stroke="#1E3DE4"/>
<path d="M599 493H646.02" stroke="#1E3DE4"/>
<path d="M599 499H646.02" stroke="#1E3DE4"/>
<path d="M599 505H646.02" stroke="#1E3DE4"/>
<path d="M599 511H646.02" stroke="#1E3DE4"/>
<path d="M599 517H646.02" stroke="#1E3DE4"/>
<path d="M599 523H646.02" stroke="#1E3DE4"/>
<path d="M599 529H646.02" stroke="#1E3DE4"/>
<path d="M599 535H646.02" stroke="#1E3DE4"/>
<path d="M599.979 541H647" stroke="#1E3DE4"/>
<path d="M599.979 547H647" stroke="#1E3DE4"/>
<path d="M599.979 553H647" stroke="#1E3DE4"/>
<path d="M599.979 559H647" stroke="#1E3DE4"/>
<path d="M599.979 565H647" stroke="#1E3DE4"/>
<path d="M599.979 571H647" stroke="#1E3DE4"/>
<path d="M599.979 577H647" stroke="#1E3DE4"/>
<path d="M599.979 583H647" stroke="#1E3DE4"/>
<path d="M599.979 589H647" stroke="#1E3DE4"/>
<path d="M599.979 595H647" stroke="#1E3DE4"/>
<path d="M599.979 601H647" stroke="#1E3DE4"/>
<mask id="mask3" mask-type="alpha" maskUnits="userSpaceOnUse" x="640" y="398" width="32" height="244">
<rect x="640.5" y="398.5" width="31" height="243" fill="#1A1A1A" stroke="#1E3DE4"/>
</mask>
<g mask="url(#mask3)">
<rect x="640.5" y="398.5" width="31" height="243" fill="#1A1A1A" stroke="#1E3DE4"/>
<path d="M640 404H671.347" stroke="#1E3DE4"/>
<path d="M640 409H671.347" stroke="#1E3DE4"/>
<path d="M640 414H671.347" stroke="#1E3DE4"/>
<path d="M640 419H671.347" stroke="#1E3DE4"/>
<path d="M640 424H671.347" stroke="#1E3DE4"/>
<path d="M640 429H671.347" stroke="#1E3DE4"/>
<path d="M640 434H671.347" stroke="#1E3DE4"/>
<path d="M640 439H671.347" stroke="#1E3DE4"/>
<path d="M640 444H671.347" stroke="#1E3DE4"/>
<path d="M640 449H671.347" stroke="#1E3DE4"/>
<path d="M640 454H671.347" stroke="#1E3DE4"/>
<path d="M640 459H671.347" stroke="#1E3DE4"/>
<path d="M640 464H671.347" stroke="#1E3DE4"/>
<path d="M640 469H671.347" stroke="#1E3DE4"/>
<path d="M640 474H671.347" stroke="#1E3DE4"/>
<path d="M640 479H671.347" stroke="#1E3DE4"/>
<path d="M640 484H671.347" stroke="#1E3DE4"/>
<path d="M640 489H671.347" stroke="#1E3DE4"/>
<path d="M640 494H671.347" stroke="#1E3DE4"/>
<path d="M640 499H671.347" stroke="#1E3DE4"/>
<path d="M640 504H671.347" stroke="#1E3DE4"/>
<path d="M640 509H671.347" stroke="#1E3DE4"/>
<path d="M640 514H671.347" stroke="#1E3DE4"/>
<path d="M640 519H671.347" stroke="#1E3DE4"/>
<path d="M640 524H671.347" stroke="#1E3DE4"/>
<path d="M640 529H671.347" stroke="#1E3DE4"/>
<path d="M640 534H671.347" stroke="#1E3DE4"/>
<path d="M640 539H671.347" stroke="#1E3DE4"/>
<path d="M640 544H671.347" stroke="#1E3DE4"/>
<path d="M640.652 549H671.999" stroke="#1E3DE4"/>
<path d="M640.652 554H671.999" stroke="#1E3DE4"/>
<path d="M640.652 559H671.999" stroke="#1E3DE4"/>
<path d="M640.652 564H671.999" stroke="#1E3DE4"/>
<path d="M640.652 569H671.999" stroke="#1E3DE4"/>
<path d="M640.652 574H671.999" stroke="#1E3DE4"/>
<path d="M640.652 579H671.999" stroke="#1E3DE4"/>
<path d="M640.652 584H671.999" stroke="#1E3DE4"/>
<path d="M640.652 589H671.999" stroke="#1E3DE4"/>
<path d="M640.652 594H671.999" stroke="#1E3DE4"/>
<path d="M640.652 599H671.999" stroke="#1E3DE4"/>
</g>
<mask id="mask4" mask-type="alpha" maskUnits="userSpaceOnUse" x="684" y="381" width="197" height="241">
<path d="M712 416L685.5 621H737.5L754.24 491.5H808.161L825.5 621H880L848 382L712 416Z" fill="#1A1A1A"/>
<path d="M808.5 491.5H754M754.24 491.5L737.5 621H685.5L712 416L848 382L880 621H825.5L808.161 491.5" stroke="#1E3DE4"/>
</mask>
<g mask="url(#mask4)">
<path d="M712 416L685.5 621H737.5L754.24 491.5H808.161L825.5 621H880L848 382L712 416Z" fill="#1A1A1A"/>
<path d="M808.5 491.5H754M754.24 491.5L737.5 621H685.5L712 416L848 382L880 621H825.5L808.161 491.5" stroke="#1E3DE4"/>
<path d="M581 559.073L822.051 318.021M592.314 570.386L833.365 329.335M603.627 581.7L844.679 340.649M614.941 593.014L855.992 351.963M626.255 604.328L867.306 363.276M637.568 615.641L878.62 374.59M648.882 626.955L889.933 385.904M660.196 638.269L901.247 397.217M671.51 649.582L912.561 408.531M682.823 660.896L923.875 419.845M694.137 672.21L935.188 431.159M705.451 683.524L946.502 442.472M716.764 694.837L957.816 453.786M728.078 706.151L969.129 465.1M739.392 717.465L980.443 476.413M750.706 728.778L991.757 487.727M762.019 740.092L1003.07 499.041M773.333 751.406L1014.38 510.355M784.647 762.719L1025.7 521.668M795.96 774.033L1037.01 532.982M807.274 785.347L1048.33 544.296M818.588 796.661L1059.64 555.609M829.902 807.974L1070.95 566.923M841.215 819.288L1082.27 578.237M852.529 830.602L1093.58 589.55M863.843 841.915L1104.89 600.864M875.156 853.229L1116.21 612.178M886.47 864.543L1127.52 623.492M897.784 875.857L1138.84 634.805M914.119 882.149L1155.17 641.097M925.433 893.462L1166.48 652.411M936.746 904.776L1177.8 663.725M948.06 916.09L1189.11 675.039M959.374 927.404L1200.43 686.352M970.688 938.717L1211.74 697.666M982.001 950.031L1223.05 708.98M993.315 961.345L1234.37 720.293M1004.63 972.658L1245.68 731.607M1015.94 983.972L1256.99 742.921M1027.26 995.286L1268.31 754.235M1052.31 548.073L811.256 307.021M1040.99 559.386L799.942 318.335M1029.68 570.7L788.629 329.649M1018.37 582.014L777.315 340.963M1007.05 593.328L766.001 352.276M995.739 604.641L754.688 363.59M984.425 615.955L743.374 374.904M973.111 627.269L732.06 386.217M961.798 638.582L720.747 397.531M950.484 649.896L709.433 408.845M939.17 661.21L698.119 420.159M927.857 672.524L686.805 431.472M916.543 683.837L675.492 442.786M905.229 695.151L664.178 454.1M893.916 706.465L652.864 465.413M882.602 717.778L641.551 476.727M871.288 729.092L630.237 488.041M859.974 740.406L618.923 499.355M848.661 751.719L607.609 510.668M837.347 763.033L596.296 521.982M826.033 774.347L584.982 533.296M814.72 785.661L573.668 544.609M803.406 796.974L562.355 555.923M792.092 808.288L551.041 567.237M780.778 819.602L539.727 578.55M769.465 830.915L528.413 589.864M758.151 842.229L517.1 601.178M746.837 853.543L505.786 612.492M735.524 864.857L494.472 623.805M719.188 871.149L478.137 630.097M707.875 882.462L466.823 641.411M696.561 893.776L455.51 652.725M685.247 905.09L444.196 664.039M673.934 916.404L432.882 675.352M662.62 927.717L421.569 686.666M651.306 939.031L410.255 697.98M639.992 950.345L398.941 709.293M628.679 961.658L387.627 720.607M617.365 972.972L376.314 731.921M606.051 984.286L365 743.235" stroke="#1E3DE4"/>
</g>
<mask id="mask5" mask-type="alpha" maskUnits="userSpaceOnUse" x="884" y="333" width="68" height="304">
<path d="M918.3 358.9L951.5 334V636.5H884.5V334L917.7 358.9L918 359.125L918.3 358.9Z" fill="#1A1A1A" stroke="#1E3DE4"/>
</mask>
<g mask="url(#mask5)">
<path d="M918.3 358.9L951.5 334V636.5H884.5V334L917.7 358.9L918 359.125L918.3 358.9Z" fill="#1A1A1A" stroke="#1E3DE4"/>
<path d="M884.5 637V333" stroke="#1E3DE4"/>
<path d="M897.5 637V333" stroke="#1E3DE4"/>
<path d="M911 637V333" stroke="#1E3DE4"/>
<path d="M924.5 637V333" stroke="#1E3DE4"/>
<path d="M938 637V333" stroke="#1E3DE4"/>
<path d="M951.5 637V333" stroke="#1E3DE4"/>
</g>
<mask id="mask6" mask-type="alpha" maskUnits="userSpaceOnUse" x="996" y="298" width="71" height="340">
<path d="M1055.5 299H1008L997 637H1066L1055.5 299Z" fill="#1A1A1A" stroke="#1E3DE4"/>
</mask>
<g mask="url(#mask6)">
<path d="M1055.5 299H1008L997 637H1066L1055.5 299Z" fill="#1A1A1A" stroke="#1E3DE4"/>
<path d="M993 323H1071M993 335H1071M993 347H1071M993 359H1071M993 371H1071M993 383H1071M993 395H1071M993 407H1071M993 419H1071M993 431H1071M993 443H1071M993 455H1071M993 467H1071M993 479H1071M993 491H1071M993 503H1071M993 515H1071M993 527H1071M993 539H1071M993 551H1071M993 563H1071M993 575H1071M993 587H1071M993 599H1071M993 611H1071M993 623H1071M993 635H1071M993 647H1071M993 659H1071" stroke="#1E3DE4"/>
</g>
<rect x="1099.5" y="393.5" width="47" height="243" fill="#1A1A1A" stroke="#1E3DE4"/>
<mask id="mask7" mask-type="alpha" maskUnits="userSpaceOnUse" x="1139" y="445" width="32" height="244">
<rect x="1139.5" y="445.5" width="31" height="243" fill="#1A1A1A" stroke="#1E3DE4"/>
</mask>
<g mask="url(#mask7)">
<rect x="1139.5" y="445.5" width="31" height="243" fill="#1A1A1A" stroke="#1E3DE4"/>
<path d="M1139 451H1170.35" stroke="#1E3DE4"/>
<path d="M1139 456H1170.35" stroke="#1E3DE4"/>
<path d="M1139 461H1170.35" stroke="#1E3DE4"/>
<path d="M1139 466H1170.35" stroke="#1E3DE4"/>
<path d="M1139 471H1170.35" stroke="#1E3DE4"/>
<path d="M1139 476H1170.35" stroke="#1E3DE4"/>
<path d="M1139 481H1170.35" stroke="#1E3DE4"/>
<path d="M1139 486H1170.35" stroke="#1E3DE4"/>
<path d="M1139 491H1170.35" stroke="#1E3DE4"/>
<path d="M1139 496H1170.35" stroke="#1E3DE4"/>
<path d="M1139 501H1170.35" stroke="#1E3DE4"/>
<path d="M1139 506H1170.35" stroke="#1E3DE4"/>
<path d="M1139 511H1170.35" stroke="#1E3DE4"/>
<path d="M1139 516H1170.35" stroke="#1E3DE4"/>
<path d="M1139 521H1170.35" stroke="#1E3DE4"/>
<path d="M1139 526H1170.35" stroke="#1E3DE4"/>
<path d="M1139 531H1170.35" stroke="#1E3DE4"/>
<path d="M1139 536H1170.35" stroke="#1E3DE4"/>
<path d="M1139 541H1170.35" stroke="#1E3DE4"/>
<path d="M1139 546H1170.35" stroke="#1E3DE4"/>
<path d="M1139 551H1170.35" stroke="#1E3DE4"/>
<path d="M1139 556H1170.35" stroke="#1E3DE4"/>
<path d="M1139 561H1170.35" stroke="#1E3DE4"/>
<path d="M1139 566H1170.35" stroke="#1E3DE4"/>
<path d="M1139 571H1170.35" stroke="#1E3DE4"/>
<path d="M1139 576H1170.35" stroke="#1E3DE4"/>
<path d="M1139 581H1170.35" stroke="#1E3DE4"/>
<path d="M1139 586H1170.35" stroke="#1E3DE4"/>
<path d="M1139 591H1170.35" stroke="#1E3DE4"/>
<path d="M1139.65 596H1171" stroke="#1E3DE4"/>
<path d="M1139.65 601H1171" stroke="#1E3DE4"/>
<path d="M1139.65 606H1171" stroke="#1E3DE4"/>
<path d="M1139.65 611H1171" stroke="#1E3DE4"/>
<path d="M1139.65 616H1171" stroke="#1E3DE4"/>
<path d="M1139.65 621H1171" stroke="#1E3DE4"/>
<path d="M1139.65 626H1171" stroke="#1E3DE4"/>
<path d="M1139.65 631H1171" stroke="#1E3DE4"/>
<path d="M1139.65 636H1171" stroke="#1E3DE4"/>
<path d="M1139.65 641H1171" stroke="#1E3DE4"/>
<path d="M1139.65 646H1171" stroke="#1E3DE4"/>
</g>
<rect x="1163.5" y="469.5" width="23" height="167" fill="#1A1A1A" stroke="#1E3DE4"/>
<path d="M1427.48 592.5H1441V721H-1V575H9.01733V605H45.0798V583H117.205V577H156.273V531.5H197.344V577H223.89V551H252.94V577.5H315.549H412.717V562H448.78V546.5H481.336V603H536.933V522.5H572.494L571.993 603H659.645V506H707.228V531H750.803V557H761.322V585H783.36V636H875.019V547H887.54V589H981.704V610H1144.49V597H1148.49V593.5H1161.01V583H1182.55V593.5H1285.73H1327.3H1341.33V590.5H1347.34V582H1371.88V590.5H1377.39V593.5H1392.42V604H1398.93V600.5H1412.45V604H1424.47V600.5H1427.48V592.5Z" fill="#1A1A1A" stroke="#1E3DE4"/>
<g filter="url(#filter42_f)">
<ellipse cx="720" cy="808" rx="720" ry="87" fill="#1E3DE4"/>
</g>
<path d="M178.375 660.358H178.875V659.858C178.875 657.153 180.921 654.589 184.482 652.673C188.023 650.768 192.948 649.575 198.417 649.575C203.885 649.575 208.811 650.768 212.351 652.673C215.913 654.589 217.958 657.153 217.958 659.858V660.358H218.458C223.927 660.358 228.852 661.551 232.393 663.456C235.954 665.372 238 667.935 238 670.641C238 673.891 240.441 676.719 244.133 678.706C247.846 680.703 252.941 681.924 258.542 681.924C264.142 681.924 269.237 680.703 272.95 678.706C276.643 676.719 279.083 673.891 279.083 670.641C279.083 667.935 281.129 665.372 284.69 663.456C288.231 661.551 293.157 660.358 298.625 660.358H299.125V659.858C299.125 654.175 303.414 648.916 310.602 645.049C317.77 641.193 327.706 638.792 338.708 638.792H339.208V638.292C339.208 635.587 341.254 633.024 344.815 631.108C348.356 629.203 353.282 628.009 358.75 628.009C364.218 628.009 369.144 629.203 372.685 631.108C376.246 633.024 378.292 635.587 378.292 638.292V638.792H378.792C389.794 638.792 399.73 641.193 406.898 645.049C414.086 648.916 418.375 654.175 418.375 659.858V660.358H418.875C424.343 660.358 429.269 661.551 432.81 663.456C436.371 665.372 438.417 667.935 438.417 670.641C438.417 676.868 443.101 682.392 450.42 686.33C457.76 690.279 467.865 692.707 479 692.707C490.135 692.707 500.24 690.279 507.58 686.33C514.899 682.392 519.583 676.868 519.583 670.641C519.583 664.958 523.872 659.699 531.06 655.832C538.228 651.975 548.164 649.575 559.167 649.575H559.667V649.075C559.667 646.37 561.712 643.807 565.274 641.891C568.814 639.986 573.74 638.792 579.208 638.792C584.677 638.792 589.602 639.986 593.143 641.891C596.704 643.807 598.75 646.37 598.75 649.075C598.75 652.325 601.191 655.153 604.883 657.14C608.596 659.138 613.691 660.358 619.292 660.358C624.76 660.358 629.686 661.551 633.226 663.456C636.787 665.372 638.833 667.935 638.833 670.641C638.833 673.891 641.274 676.719 644.966 678.706C648.679 680.703 653.775 681.924 659.375 681.924C670.75 681.924 676.409 672.897 676.409 666.697C676.409 661.014 680.698 655.756 687.886 651.888C695.054 648.032 704.99 645.632 715.993 645.632H716.493V645.132C716.493 639.449 720.782 634.19 727.97 630.323C735.137 626.466 745.073 624.066 756.076 624.066H756.576V623.566C756.576 620.86 758.622 618.297 762.183 616.381C765.724 614.476 770.649 613.283 776.118 613.283C781.586 613.283 786.512 614.476 790.052 616.381C793.614 618.297 795.659 620.86 795.659 623.566C795.659 626.816 798.1 629.644 801.793 631.631C805.505 633.628 810.601 634.849 816.201 634.849C821.801 634.849 826.897 633.628 830.609 631.631C834.302 629.644 836.743 626.816 836.743 623.566C836.743 617.883 841.032 612.624 848.22 608.757C855.387 604.9 865.323 602.5 876.326 602.5C881.794 602.5 886.72 603.694 890.261 605.599C893.822 607.515 895.868 610.078 895.868 612.783C895.868 616.033 898.308 618.861 902.001 620.848C905.714 622.846 910.809 624.066 916.409 624.066C922.01 624.066 927.105 622.846 930.818 620.848C934.318 618.964 936.694 616.324 936.931 613.286C942.207 613.354 946.949 614.532 950.386 616.381C953.947 618.297 955.993 620.86 955.993 623.566C955.993 626.816 958.433 629.644 962.126 631.631C965.839 633.628 970.934 634.849 976.534 634.849C982.135 634.849 987.23 633.628 990.943 631.631C994.635 629.644 997.076 626.816 997.076 623.566C997.076 620.86 999.122 618.297 1002.68 616.381C1006.22 614.476 1011.15 613.283 1016.62 613.283C1022.09 613.283 1027.01 614.476 1030.55 616.381C1034.11 618.297 1036.16 620.86 1036.16 623.566C1036.16 626.816 1038.6 629.644 1042.29 631.631C1046.01 633.628 1051.1 634.849 1056.7 634.849C1067.7 634.849 1077.64 637.249 1084.81 641.105C1092 644.973 1096.28 650.232 1096.28 655.915V656.415H1096.78C1102.25 656.415 1107.18 657.608 1110.72 659.513C1114.28 661.429 1116.33 663.992 1116.33 666.697C1116.33 669.826 1117.73 673.016 1120.13 676.02C1122.54 679.027 1125.96 681.88 1130.06 684.347C1138.27 689.28 1149.25 692.707 1160.42 692.707C1171.55 692.707 1181.66 690.279 1189 686.33C1196.32 682.392 1201 676.868 1201 670.641C1201 664.958 1205.29 659.699 1212.48 655.832C1219.64 651.975 1229.58 649.575 1240.58 649.575H1241.08V649.075C1241.08 646.37 1243.13 643.807 1246.69 641.891C1250.23 639.986 1255.16 638.792 1260.62 638.792C1266.09 638.792 1271.02 639.986 1274.56 641.891C1278.12 643.807 1280.17 646.37 1280.17 649.075C1280.17 652.325 1282.61 655.153 1286.3 657.14C1290.01 659.138 1295.11 660.358 1300.71 660.358C1306.31 660.358 1311.4 659.138 1315.12 657.14C1318.81 655.153 1321.25 652.325 1321.25 649.075C1321.25 646.37 1323.3 643.807 1326.86 641.891C1330.4 639.986 1335.32 638.792 1340.79 638.792H1341.29V638.292C1341.29 635.587 1343.34 633.024 1346.9 631.108C1350.44 629.203 1355.36 628.009 1360.83 628.009C1366.3 628.009 1371.23 629.203 1374.77 631.108C1378.33 633.024 1380.38 635.587 1380.38 638.292V638.792H1380.88C1386.34 638.792 1391.27 639.986 1394.81 641.891C1398.37 643.807 1400.42 646.37 1400.42 649.075C1400.42 652.325 1402.86 655.153 1406.55 657.14C1410.26 659.138 1415.36 660.358 1420.96 660.358C1426.56 660.358 1431.65 659.138 1435.37 657.14C1437.65 655.911 1439.46 654.361 1440.5 652.588V771.5H-1.5V675.552C0.245458 679.758 4.17641 683.464 9.50324 686.33C16.843 690.279 26.9485 692.707 38.0833 692.707C49.2182 692.707 59.3236 690.279 66.6634 686.33C73.9828 682.392 78.6667 676.868 78.6667 670.641C78.6667 667.935 80.7125 665.372 84.2736 663.456C87.8143 661.551 92.7401 660.358 98.2083 660.358C103.677 660.358 108.602 661.551 112.143 663.456C115.704 665.372 117.75 667.935 117.75 670.641C117.75 673.891 120.191 676.719 123.883 678.706C127.596 680.703 132.691 681.924 138.292 681.924C143.892 681.924 148.987 680.703 152.7 678.706C156.393 676.719 158.833 673.891 158.833 670.641C158.833 667.935 160.879 665.372 164.44 663.456C167.981 661.551 172.907 660.358 178.375 660.358Z" fill="#1A1A1A" stroke="#1E3DE4"/>
<path d="M280 711.656H279.5V711.156C279.5 708.373 277.45 705.747 273.901 703.788C270.368 701.838 265.455 700.617 260 700.617C254.545 700.617 249.632 701.838 246.099 703.788C242.55 705.747 240.5 708.373 240.5 711.156C240.5 714.47 238.073 717.363 234.384 719.399C230.677 721.445 225.591 722.695 220 722.695C214.409 722.695 209.323 721.445 205.616 719.399C201.927 717.363 199.5 714.47 199.5 711.156C199.5 708.373 197.45 705.747 193.901 703.788C190.368 701.838 185.455 700.617 180 700.617H179.5V700.117C179.5 697.334 177.45 694.708 173.901 692.749C170.368 690.799 165.455 689.578 160 689.578C154.545 689.578 149.632 690.799 146.099 692.749C142.55 694.708 140.5 697.334 140.5 700.117V700.617H140C134.545 700.617 129.632 701.838 126.099 703.788C122.55 705.747 120.5 708.373 120.5 711.156C120.5 714.47 118.073 717.363 114.384 719.399C110.788 721.384 105.894 722.619 100.5 722.691V836.5H359.5V755.81C348.584 755.737 338.69 753.266 331.474 749.283C324.166 745.249 319.5 739.596 319.5 733.234C319.5 727.403 315.212 722.017 308.043 718.06C300.891 714.113 290.978 711.656 280 711.656Z" fill="#1A1A1A" stroke="#1E3DE4"/>
<path d="M1358.4 707.195V707.695H1357.9C1352.44 707.695 1347.52 708.916 1343.98 710.866C1340.43 712.825 1338.37 715.451 1338.37 718.234C1338.37 721.391 1337.25 725.108 1335.25 728.888C1333.24 732.674 1330.34 736.555 1326.74 740.048C1319.56 747.029 1309.55 752.5 1298.33 752.5C1287.19 752.5 1276.97 749.85 1269.51 745.644C1262.08 741.451 1257.28 735.636 1257.28 729.273C1257.28 723.442 1252.98 718.056 1245.81 714.099C1238.65 710.152 1228.72 707.695 1217.73 707.695H1217.23V707.195C1217.23 704.412 1215.18 701.786 1211.62 699.827C1208.09 697.877 1203.17 696.656 1197.7 696.656C1192.24 696.656 1187.32 697.877 1183.79 699.827C1180.23 701.786 1178.18 704.412 1178.18 707.195C1178.18 710.509 1175.75 713.403 1172.06 715.438C1168.35 717.484 1163.25 718.734 1157.66 718.734C1152.19 718.734 1147.27 719.955 1143.74 721.905C1140.18 723.864 1138.13 726.49 1138.13 729.273C1138.13 731.371 1137.21 733.045 1135.73 734.328C1134.27 735.6 1132.26 736.492 1130.06 737.08C1125.67 738.255 1120.33 738.254 1116.51 737.49C1110.96 736.382 1106.12 733.148 1102.66 729.431C1099.22 725.732 1097.08 721.465 1097.08 718.234C1097.08 712.403 1092.79 707.017 1085.61 703.06C1078.45 699.113 1068.53 696.656 1057.53 696.656H1057.03V696.156C1057.03 690.325 1052.74 684.939 1045.56 680.982C1038.4 677.035 1028.48 674.578 1017.49 674.578H1016.99V674.078C1016.99 671.296 1014.93 668.67 1011.38 666.71C1007.84 664.76 1002.92 663.539 997.462 663.539C992 663.539 987.08 664.76 983.544 666.71C979.989 668.67 977.937 671.296 977.937 674.078C977.937 677.392 975.507 680.286 971.814 682.322C968.103 684.367 963.011 685.617 957.413 685.617C951.816 685.617 946.723 684.367 943.012 682.322C939.319 680.286 936.889 677.392 936.889 674.078C936.889 668.247 932.595 662.861 925.417 658.904C918.257 654.957 908.331 652.5 897.34 652.5C891.879 652.5 886.959 653.721 883.422 655.671C879.868 657.631 877.816 660.257 877.816 663.039C877.816 666.353 875.385 669.247 871.692 671.283C867.982 673.328 862.889 674.578 857.292 674.578C851.694 674.578 846.602 673.328 842.891 671.283C839.386 669.35 837.018 666.646 836.786 663.542C831.517 663.612 826.782 664.818 823.349 666.71C819.795 668.67 817.743 671.296 817.743 674.078C817.743 677.392 815.312 680.286 811.619 682.322C807.909 684.367 802.816 685.617 797.219 685.617C791.621 685.617 786.529 684.367 782.818 682.322C779.125 680.286 776.694 677.392 776.694 674.078C776.694 671.296 774.642 668.67 771.088 666.71C767.551 664.76 762.632 663.539 757.17 663.539C751.709 663.539 746.789 664.76 743.252 666.71C739.698 668.67 737.646 671.296 737.646 674.078C737.646 677.392 735.215 680.286 731.522 682.322C727.811 684.367 722.719 685.617 717.121 685.617C706.13 685.617 696.205 688.074 689.044 692.021C681.866 695.978 677.573 701.364 677.573 707.195V707.695H677.073C671.611 707.695 666.692 708.916 663.155 710.866C659.601 712.825 657.549 715.451 657.549 718.234C657.549 724.596 652.877 730.25 645.56 734.283C638.336 738.266 628.429 740.737 617.5 740.81V821.5H1440.5V685.66C1439.67 685.631 1438.84 685.617 1438 685.617H1437.5V685.117C1437.5 682.335 1435.44 679.708 1431.89 677.749C1428.35 675.799 1423.43 674.578 1417.97 674.578C1412.51 674.578 1407.59 675.799 1404.05 677.749C1400.5 679.708 1398.45 682.335 1398.45 685.117V685.617H1397.95C1386.96 685.617 1377.03 688.074 1369.87 692.021C1362.69 695.978 1358.4 701.364 1358.4 707.195Z" fill="#1A1A1A" stroke="#1E3DE4"/>
<path d="M1260.62 746.695H1260.12V746.195C1260.12 743.413 1258.07 740.787 1254.51 738.827C1250.97 736.877 1246.05 735.656 1240.58 735.656C1235.12 735.656 1230.19 736.877 1226.65 738.827C1223.1 740.787 1221.04 743.413 1221.04 746.195V746.695H1220.54C1215.08 746.695 1210.15 747.916 1206.61 749.866C1203.05 751.826 1201 754.452 1201 757.234C1201 760.548 1198.57 763.442 1194.87 765.477C1191.16 767.523 1186.06 768.773 1180.46 768.773C1174.86 768.773 1169.76 767.523 1166.05 765.477C1162.35 763.442 1159.92 760.548 1159.92 757.234C1159.92 754.452 1157.86 751.826 1154.31 749.866C1150.77 747.916 1145.84 746.695 1140.38 746.695H1139.88V746.195C1139.88 740.364 1135.58 734.979 1128.39 731.021C1121.23 727.074 1111.29 724.617 1100.29 724.617H1099.79V724.117C1099.79 721.335 1097.74 718.709 1094.18 716.749C1090.64 714.799 1085.72 713.578 1080.25 713.578C1074.78 713.578 1069.86 714.799 1066.32 716.749C1062.76 718.709 1060.71 721.335 1060.71 724.117V724.617H1060.21C1049.21 724.617 1039.27 727.074 1032.11 731.021C1024.92 734.979 1020.62 740.364 1020.62 746.195V746.695H1020.12C1014.66 746.695 1009.73 747.916 1006.19 749.866C1002.64 751.826 1000.58 754.452 1000.58 757.234C1000.58 763.597 995.907 769.25 988.584 773.283C981.244 777.326 971.137 779.812 960 779.812C948.863 779.812 938.756 777.326 931.416 773.283C924.093 769.25 919.417 763.597 919.417 757.234C919.417 751.403 915.12 746.017 907.935 742.06C900.769 738.113 890.834 735.656 879.833 735.656H879.333V735.156C879.333 732.374 877.28 729.748 873.722 727.788C870.182 725.838 865.258 724.617 859.792 724.617C854.325 724.617 849.401 725.838 845.861 727.788C842.304 729.748 840.25 732.374 840.25 735.156C840.25 738.47 837.817 741.364 834.121 743.4C830.407 745.445 825.311 746.695 819.708 746.695C814.242 746.695 809.318 747.916 805.778 749.866C802.22 751.826 800.167 754.452 800.167 757.234C800.167 760.548 797.734 763.442 794.038 765.477C790.324 767.523 785.227 768.773 779.625 768.773C774.023 768.773 768.926 767.523 765.212 765.477C761.516 763.442 759.083 760.548 759.083 757.234C759.083 751.403 754.786 746.017 747.602 742.06C740.435 738.113 730.501 735.656 719.5 735.656H719V735.156C719 729.325 714.703 723.94 707.519 719.982C700.352 716.035 690.417 713.578 679.417 713.578H678.917V713.078C678.917 710.296 676.863 707.67 673.305 705.71C669.766 703.76 664.841 702.539 659.375 702.539C653.909 702.539 648.984 703.76 645.445 705.71C641.887 707.67 639.833 710.296 639.833 713.078C639.833 716.392 637.401 719.286 633.705 721.322C629.991 723.367 624.894 724.617 619.292 724.617C613.689 724.617 608.593 723.367 604.879 721.322C601.183 719.286 598.75 716.392 598.75 713.078C598.75 707.248 594.453 701.862 587.269 697.904C580.102 693.957 570.167 691.5 559.167 691.5C553.7 691.5 548.776 692.721 545.236 694.671C541.679 696.631 539.625 699.257 539.625 702.039C539.625 705.354 537.192 708.247 533.496 710.283C529.782 712.328 524.686 713.578 519.083 713.578C513.481 713.578 508.384 712.328 504.671 710.283C501.163 708.351 498.793 705.646 498.56 702.542C493.287 702.611 488.547 703.818 485.111 705.71C481.554 707.67 479.5 710.296 479.5 713.078C479.5 716.392 477.067 719.286 473.371 721.322C469.657 723.367 464.561 724.617 458.958 724.617C453.356 724.617 448.259 723.367 444.546 721.322C440.849 719.286 438.417 716.392 438.417 713.078C438.417 710.296 436.363 707.67 432.805 705.71C429.266 703.76 424.341 702.539 418.875 702.539C413.409 702.539 408.484 703.76 404.945 705.71C401.387 707.67 399.333 710.296 399.333 713.078C399.333 716.392 396.901 719.286 393.204 721.322C389.491 723.367 384.394 724.617 378.792 724.617C367.791 724.617 357.856 727.074 350.69 731.021C343.505 734.979 339.208 740.364 339.208 746.195V746.695H338.708C333.242 746.695 328.318 747.916 324.778 749.866C321.22 751.826 319.167 754.452 319.167 757.234C319.167 763.597 314.491 769.25 307.168 773.283C299.827 777.326 289.72 779.812 278.583 779.812C267.447 779.812 257.34 777.326 249.999 773.283C242.676 769.25 238 763.597 238 757.234C238 751.403 233.703 746.017 226.519 742.06C219.352 738.113 209.417 735.656 198.417 735.656H197.917V735.156C197.917 732.374 195.863 729.748 192.305 727.788C188.766 725.838 183.841 724.617 178.375 724.617C172.909 724.617 167.984 725.838 164.445 727.788C160.887 729.748 158.833 732.374 158.833 735.156C158.833 738.47 156.401 741.364 152.705 743.4C148.991 745.445 143.894 746.695 138.292 746.695C132.689 746.695 127.593 745.445 123.879 743.4C120.183 741.364 117.75 738.47 117.75 735.156C117.75 732.374 115.696 729.748 112.139 727.788C108.599 725.838 103.675 724.617 98.2084 724.617H97.7084V724.117C97.7084 721.335 95.6547 718.709 92.097 716.749C88.5574 714.799 83.6332 713.578 78.1667 713.578C72.7003 713.578 67.7761 714.799 64.2363 716.749C60.6787 718.709 58.625 721.335 58.625 724.117V724.617H58.125C52.6587 724.617 47.7345 725.838 44.1947 727.788C40.6371 729.748 38.5834 732.374 38.5834 735.156C38.5834 738.47 36.1506 741.364 32.4546 743.4C28.7407 745.445 23.644 746.695 18.0417 746.695C12.4395 746.695 7.34277 745.445 3.62891 743.4C1.34485 742.141 -0.456787 740.556 -1.5 738.746V860.5H1440.5V762.257C1438.76 766.556 1434.83 770.349 1429.5 773.283C1422.16 777.326 1412.05 779.812 1400.92 779.812C1389.78 779.812 1379.67 777.326 1372.33 773.283C1365.01 769.25 1360.33 763.597 1360.33 757.234C1360.33 754.452 1358.28 751.826 1354.72 749.866C1351.18 747.916 1346.26 746.695 1340.79 746.695C1335.33 746.695 1330.4 747.916 1326.86 749.866C1323.3 751.826 1321.25 754.452 1321.25 757.234C1321.25 760.548 1318.82 763.442 1315.12 765.477C1311.41 767.523 1306.31 768.773 1300.71 768.773C1295.11 768.773 1290.01 767.523 1286.3 765.477C1282.6 763.442 1280.17 760.548 1280.17 757.234C1280.17 754.452 1278.11 751.826 1274.56 749.866C1271.02 747.916 1266.09 746.695 1260.62 746.695Z" fill="#1A1A1A" stroke="#1E3DE4"/>
<rect y="806" width="1440" height="94" fill="#1A1A1A"/>
<rect y="806" width="1440" height="1" fill="#1E3DE4"/>
<g filter="url(#filter43_d)">
<path d="M-8 820.23C147.333 815.564 474 809.03 474 836.23C474 885.231 158 889.565 -8 900.231" stroke="#1E3DE4"/>
<path d="M-53 824.948C83.4653 820.848 370.452 815.108 370.452 839.005C370.452 882.053 92.8363 885.86 -53 895.231" stroke="#1E3DE4"/>
<path d="M-74 829.446C44.024 825.9 292.229 820.936 292.229 841.603C292.229 878.834 52.1287 882.127 -74 890.231" stroke="#1E3DE4"/>
<path d="M-42 847.437C2.259 846.107 95.3359 844.246 95.3359 851.996C95.3359 865.958 5.29825 867.192 -42 870.231" stroke="#1E3DE4"/>
</g>
<g filter="url(#filter44_d)">
<path d="M508 850C500 829.2 529 818 556 818C631 818 966 813.002 1050 832C1076 837.881 1067 856 1013 878.001C959 900.001 756 874.001 690 872.001C624 870.001 518 876 508 850Z" stroke="#1E3DE4"/>
<path d="M549.935 846.55C544.4 832.159 564.463 824.411 583.143 824.411C635.03 824.411 866.793 820.953 924.906 834.097C942.894 838.165 936.668 850.701 899.309 865.921C861.95 881.141 721.508 863.154 675.848 861.77C630.187 860.386 556.853 864.537 549.935 846.55Z" stroke="#1E3DE4"/>
<path d="M585.545 843.154C582.317 834.76 594.02 830.24 604.917 830.24C635.184 830.24 770.379 828.223 804.279 835.89C814.771 838.263 811.139 845.575 789.347 854.454C767.554 863.332 685.63 852.84 658.995 852.032C632.359 851.225 589.581 853.647 585.545 843.154Z" stroke="#1E3DE4"/>
</g>
<g filter="url(#filter45_d)">
<path d="M1441 817.5C1399 835.5 1196 822 1160 822C1124 822 1084 841 1112 868C1135 890.178 1353 900.3 1441 899.5" stroke="#1E3DE4"/>
<path d="M1447.25 830C1415.52 843.598 1262.16 833.4 1234.96 833.4C1207.77 833.4 1178 847.5 1198.7 868.15C1214.55 883.957 1380.77 892.552 1447.25 891.947" stroke="#1E3DE4"/>
<path d="M1470.12 845C1448.62 854.215 1344.69 847.304 1326.26 847.304C1307.83 847.304 1287.66 856.859 1301.69 870.853C1312.43 881.565 1425.07 887.389 1470.12 886.98" stroke="#1E3DE4"/>
</g>
</g>
<defs>
<filter id="filter0_f" x="942.08" y="189.16" width="87.04" height="87.04" filterUnits="userSpaceOnUse" color-interpolation-filters="sRGB">
<feFlood flood-opacity="0" result="BackgroundImageFix"/>
<feBlend mode="normal" in="SourceGraphic" in2="BackgroundImageFix" result="shape"/>
<feGaussianBlur stdDeviation="16" result="effect1_foregroundBlur"/>
</filter>
<filter id="filter1_f" x="1005.44" y="189.16" width="87.04" height="87.04" filterUnits="userSpaceOnUse" color-interpolation-filters="sRGB">
<feFlood flood-opacity="0" result="BackgroundImageFix"/>
<feBlend mode="normal" in="SourceGraphic" in2="BackgroundImageFix" result="shape"/>
<feGaussianBlur stdDeviation="16" result="effect1_foregroundBlur"/>
</filter>
<filter id="filter2_f" x="1042.88" y="189.16" width="87.04" height="87.04" filterUnits="userSpaceOnUse" color-interpolation-filters="sRGB">
<feFlood flood-opacity="0" result="BackgroundImageFix"/>
<feBlend mode="normal" in="SourceGraphic" in2="BackgroundImageFix" result="shape"/>
<feGaussianBlur stdDeviation="16" result="effect1_foregroundBlur"/>
</filter>
<filter id="filter3_f" x="1117.76" y="189.16" width="87.04" height="87.04" filterUnits="userSpaceOnUse" color-interpolation-filters="sRGB">
<feFlood flood-opacity="0" result="BackgroundImageFix"/>
<feBlend mode="normal" in="SourceGraphic" in2="BackgroundImageFix" result="shape"/>
<feGaussianBlur stdDeviation="16" result="effect1_foregroundBlur"/>
</filter>
<filter id="filter4_f" x="1195.52" y="189.16" width="87.04" height="87.04" filterUnits="userSpaceOnUse" color-interpolation-filters="sRGB">
<feFlood flood-opacity="0" result="BackgroundImageFix"/>
<feBlend mode="normal" in="SourceGraphic" in2="BackgroundImageFix" result="shape"/>
<feGaussianBlur stdDeviation="16" result="effect1_foregroundBlur"/>
</filter>
<filter id="filter5_f" x="1232.96" y="189.16" width="87.04" height="87.04" filterUnits="userSpaceOnUse" color-interpolation-filters="sRGB">
<feFlood flood-opacity="0" result="BackgroundImageFix"/>
<feBlend mode="normal" in="SourceGraphic" in2="BackgroundImageFix" result="shape"/>
<feGaussianBlur stdDeviation="16" result="effect1_foregroundBlur"/>
</filter>
<filter id="filter6_f" x="1307.84" y="189.16" width="87.04" height="87.04" filterUnits="userSpaceOnUse" color-interpolation-filters="sRGB">
<feFlood flood-opacity="0" result="BackgroundImageFix"/>
<feBlend mode="normal" in="SourceGraphic" in2="BackgroundImageFix" result="shape"/>
<feGaussianBlur stdDeviation="16" result="effect1_foregroundBlur"/>
</filter>
<filter id="filter7_f" x="1382.72" y="189.16" width="87.04" height="87.04" filterUnits="userSpaceOnUse" color-interpolation-filters="sRGB">
<feFlood flood-opacity="0" result="BackgroundImageFix"/>
<feBlend mode="normal" in="SourceGraphic" in2="BackgroundImageFix" result="shape"/>
<feGaussianBlur stdDeviation="16" result="effect1_foregroundBlur"/>
</filter>
<filter id="filter8_f" x="1122.24" y="193.64" width="43.52" height="43.52" filterUnits="userSpaceOnUse" color-interpolation-filters="sRGB">
<feFlood flood-opacity="0" result="BackgroundImageFix"/>
<feBlend mode="normal" in="SourceGraphic" in2="BackgroundImageFix" result="shape"/>
<feGaussianBlur stdDeviation="8" result="effect1_foregroundBlur"/>
</filter>
<filter id="filter9_f" x="1176.96" y="236.84" width="43.52" height="43.52" filterUnits="userSpaceOnUse" color-interpolation-filters="sRGB">
<feFlood flood-opacity="0" result="BackgroundImageFix"/>
<feBlend mode="normal" in="SourceGraphic" in2="BackgroundImageFix" result="shape"/>
<feGaussianBlur stdDeviation="8" result="effect1_foregroundBlur"/>
</filter>
<filter id="filter10_f" x="1182.72" y="185" width="43.52" height="43.52" filterUnits="userSpaceOnUse" color-interpolation-filters="sRGB">
<feFlood flood-opacity="0" result="BackgroundImageFix"/>
<feBlend mode="normal" in="SourceGraphic" in2="BackgroundImageFix" result="shape"/>
<feGaussianBlur stdDeviation="8" result="effect1_foregroundBlur"/>
</filter>
<filter id="filter11_f" x="1297.92" y="185" width="43.52" height="43.52" filterUnits="userSpaceOnUse" color-interpolation-filters="sRGB">
<feFlood flood-opacity="0" result="BackgroundImageFix"/>
<feBlend mode="normal" in="SourceGraphic" in2="BackgroundImageFix" result="shape"/>
<feGaussianBlur stdDeviation="8" result="effect1_foregroundBlur"/>
</filter>
<filter id="filter12_f" x="1312.32" y="228.2" width="43.52" height="43.52" filterUnits="userSpaceOnUse" color-interpolation-filters="sRGB">
<feFlood flood-opacity="0" result="BackgroundImageFix"/>
<feBlend mode="normal" in="SourceGraphic" in2="BackgroundImageFix" result="shape"/>
<feGaussianBlur stdDeviation="8" result="effect1_foregroundBlur"/>
</filter>
<filter id="filter13_f" x="1269.12" y="222.44" width="43.52" height="43.52" filterUnits="userSpaceOnUse" color-interpolation-filters="sRGB">
<feFlood flood-opacity="0" result="BackgroundImageFix"/>
<feBlend mode="normal" in="SourceGraphic" in2="BackgroundImageFix" result="shape"/>
<feGaussianBlur stdDeviation="8" result="effect1_foregroundBlur"/>
</filter>
<filter id="filter14_f" x="1378.56" y="233.96" width="43.52" height="43.52" filterUnits="userSpaceOnUse" color-interpolation-filters="sRGB">
<feFlood flood-opacity="0" result="BackgroundImageFix"/>
<feBlend mode="normal" in="SourceGraphic" in2="BackgroundImageFix" result="shape"/>
<feGaussianBlur stdDeviation="8" result="effect1_foregroundBlur"/>
</filter>
<filter id="filter15_f" x="1375.68" y="185" width="43.52" height="43.52" filterUnits="userSpaceOnUse" color-interpolation-filters="sRGB">
<feFlood flood-opacity="0" result="BackgroundImageFix"/>
<feBlend mode="normal" in="SourceGraphic" in2="BackgroundImageFix" result="shape"/>
<feGaussianBlur stdDeviation="8" result="effect1_foregroundBlur"/>
</filter>
<filter id="filter16_f" x="1352.64" y="228.2" width="43.52" height="43.52" filterUnits="userSpaceOnUse" color-interpolation-filters="sRGB">
<feFlood flood-opacity="0" result="BackgroundImageFix"/>
<feBlend mode="normal" in="SourceGraphic" in2="BackgroundImageFix" result="shape"/>
<feGaussianBlur stdDeviation="8" result="effect1_foregroundBlur"/>
</filter>
<filter id="filter17_f" x="1346.88" y="196.52" width="43.52" height="43.52" filterUnits="userSpaceOnUse" color-interpolation-filters="sRGB">
<feFlood flood-opacity="0" result="BackgroundImageFix"/>
<feBlend mode="normal" in="SourceGraphic" in2="BackgroundImageFix" result="shape"/>
<feGaussianBlur stdDeviation="8" result="effect1_foregroundBlur"/>
</filter>
<filter id="filter18_f" x="1418.88" y="219.56" width="43.52" height="43.52" filterUnits="userSpaceOnUse" color-interpolation-filters="sRGB">
<feFlood flood-opacity="0" result="BackgroundImageFix"/>
<feBlend mode="normal" in="SourceGraphic" in2="BackgroundImageFix" result="shape"/>
<feGaussianBlur stdDeviation="8" result="effect1_foregroundBlur"/>
</filter>
<filter id="filter19_f" x="1392.96" y="205.16" width="43.52" height="43.52" filterUnits="userSpaceOnUse" color-interpolation-filters="sRGB">
<feFlood flood-opacity="0" result="BackgroundImageFix"/>
<feBlend mode="normal" in="SourceGraphic" in2="BackgroundImageFix" result="shape"/>
<feGaussianBlur stdDeviation="8" result="effect1_foregroundBlur"/>
</filter>
<filter id="filter20_f" x="411.04" y="94.1602" width="87.04" height="87.04" filterUnits="userSpaceOnUse" color-interpolation-filters="sRGB">
<feFlood flood-opacity="0" result="BackgroundImageFix"/>
<feBlend mode="normal" in="SourceGraphic" in2="BackgroundImageFix" result="shape"/>
<feGaussianBlur stdDeviation="16" result="effect1_foregroundBlur"/>
</filter>
<filter id="filter21_f" x="347.68" y="94.1599" width="87.04" height="87.04" filterUnits="userSpaceOnUse" color-interpolation-filters="sRGB">
<feFlood flood-opacity="0" result="BackgroundImageFix"/>
<feBlend mode="normal" in="SourceGraphic" in2="BackgroundImageFix" result="shape"/>
<feGaussianBlur stdDeviation="16" result="effect1_foregroundBlur"/>
</filter>
<filter id="filter22_f" x="310.24" y="94.1599" width="87.04" height="87.04" filterUnits="userSpaceOnUse" color-interpolation-filters="sRGB">
<feFlood flood-opacity="0" result="BackgroundImageFix"/>
<feBlend mode="normal" in="SourceGraphic" in2="BackgroundImageFix" result="shape"/>
<feGaussianBlur stdDeviation="16" result="effect1_foregroundBlur"/>
</filter>
<filter id="filter23_f" x="235.36" y="94.1599" width="87.04" height="87.04" filterUnits="userSpaceOnUse" color-interpolation-filters="sRGB">
<feFlood flood-opacity="0" result="BackgroundImageFix"/>
<feBlend mode="normal" in="SourceGraphic" in2="BackgroundImageFix" result="shape"/>
<feGaussianBlur stdDeviation="16" result="effect1_foregroundBlur"/>
</filter>
<filter id="filter24_f" x="157.6" y="94.1599" width="87.04" height="87.04" filterUnits="userSpaceOnUse" color-interpolation-filters="sRGB">
<feFlood flood-opacity="0" result="BackgroundImageFix"/>
<feBlend mode="normal" in="SourceGraphic" in2="BackgroundImageFix" result="shape"/>
<feGaussianBlur stdDeviation="16" result="effect1_foregroundBlur"/>
</filter>
<filter id="filter25_f" x="120.16" y="94.1599" width="87.04" height="87.04" filterUnits="userSpaceOnUse" color-interpolation-filters="sRGB">
<feFlood flood-opacity="0" result="BackgroundImageFix"/>
<feBlend mode="normal" in="SourceGraphic" in2="BackgroundImageFix" result="shape"/>
<feGaussianBlur stdDeviation="16" result="effect1_foregroundBlur"/>
</filter>
<filter id="filter26_f" x="45.2803" y="94.1599" width="87.04" height="87.04" filterUnits="userSpaceOnUse" color-interpolation-filters="sRGB">
<feFlood flood-opacity="0" result="BackgroundImageFix"/>
<feBlend mode="normal" in="SourceGraphic" in2="BackgroundImageFix" result="shape"/>
<feGaussianBlur stdDeviation="16" result="effect1_foregroundBlur"/>
</filter>
<filter id="filter27_f" x="-29.5996" y="94.1599" width="87.04" height="87.04" filterUnits="userSpaceOnUse" color-interpolation-filters="sRGB">
<feFlood flood-opacity="0" result="BackgroundImageFix"/>
<feBlend mode="normal" in="SourceGraphic" in2="BackgroundImageFix" result="shape"/>
<feGaussianBlur stdDeviation="16" result="effect1_foregroundBlur"/>
</filter>
<filter id="filter28_f" x="274.4" y="98.6399" width="43.52" height="43.52" filterUnits="userSpaceOnUse" color-interpolation-filters="sRGB">
<feFlood flood-opacity="0" result="BackgroundImageFix"/>
<feBlend mode="normal" in="SourceGraphic" in2="BackgroundImageFix" result="shape"/>
<feGaussianBlur stdDeviation="8" result="effect1_foregroundBlur"/>
</filter>
<filter id="filter29_f" x="219.681" y="141.84" width="43.52" height="43.52" filterUnits="userSpaceOnUse" color-interpolation-filters="sRGB">
<feFlood flood-opacity="0" result="BackgroundImageFix"/>
<feBlend mode="normal" in="SourceGraphic" in2="BackgroundImageFix" result="shape"/>
<feGaussianBlur stdDeviation="8" result="effect1_foregroundBlur"/>
</filter>
<filter id="filter30_f" x="213.92" y="90" width="43.52" height="43.52" filterUnits="userSpaceOnUse" color-interpolation-filters="sRGB">
<feFlood flood-opacity="0" result="BackgroundImageFix"/>
<feBlend mode="normal" in="SourceGraphic" in2="BackgroundImageFix" result="shape"/>
<feGaussianBlur stdDeviation="8" result="effect1_foregroundBlur"/>
</filter>
<filter id="filter31_f" x="98.7207" y="90" width="43.52" height="43.52" filterUnits="userSpaceOnUse" color-interpolation-filters="sRGB">
<feFlood flood-opacity="0" result="BackgroundImageFix"/>
<feBlend mode="normal" in="SourceGraphic" in2="BackgroundImageFix" result="shape"/>
<feGaussianBlur stdDeviation="8" result="effect1_foregroundBlur"/>
</filter>
<filter id="filter32_f" x="84.3203" y="133.2" width="43.52" height="43.52" filterUnits="userSpaceOnUse" color-interpolation-filters="sRGB">
<feFlood flood-opacity="0" result="BackgroundImageFix"/>
<feBlend mode="normal" in="SourceGraphic" in2="BackgroundImageFix" result="shape"/>
<feGaussianBlur stdDeviation="8" result="effect1_foregroundBlur"/>
</filter>
<filter id="filter33_f" x="127.521" y="127.44" width="43.52" height="43.52" filterUnits="userSpaceOnUse" color-interpolation-filters="sRGB">
<feFlood flood-opacity="0" result="BackgroundImageFix"/>
<feBlend mode="normal" in="SourceGraphic" in2="BackgroundImageFix" result="shape"/>
<feGaussianBlur stdDeviation="8" result="effect1_foregroundBlur"/>
</filter>
<filter id="filter34_f" x="18.0801" y="138.96" width="43.52" height="43.52" filterUnits="userSpaceOnUse" color-interpolation-filters="sRGB">
<feFlood flood-opacity="0" result="BackgroundImageFix"/>
<feBlend mode="normal" in="SourceGraphic" in2="BackgroundImageFix" result="shape"/>
<feGaussianBlur stdDeviation="8" result="effect1_foregroundBlur"/>
</filter>
<filter id="filter35_f" x="20.96" y="90" width="43.52" height="43.52" filterUnits="userSpaceOnUse" color-interpolation-filters="sRGB">
<feFlood flood-opacity="0" result="BackgroundImageFix"/>
<feBlend mode="normal" in="SourceGraphic" in2="BackgroundImageFix" result="shape"/>
<feGaussianBlur stdDeviation="8" result="effect1_foregroundBlur"/>
</filter>
<filter id="filter36_f" x="44" y="133.2" width="43.52" height="43.52" filterUnits="userSpaceOnUse" color-interpolation-filters="sRGB">
<feFlood flood-opacity="0" result="BackgroundImageFix"/>
<feBlend mode="normal" in="SourceGraphic" in2="BackgroundImageFix" result="shape"/>
<feGaussianBlur stdDeviation="8" result="effect1_foregroundBlur"/>
</filter>
<filter id="filter37_f" x="49.7607" y="101.52" width="43.52" height="43.52" filterUnits="userSpaceOnUse" color-interpolation-filters="sRGB">
<feFlood flood-opacity="0" result="BackgroundImageFix"/>
<feBlend mode="normal" in="SourceGraphic" in2="BackgroundImageFix" result="shape"/>
<feGaussianBlur stdDeviation="8" result="effect1_foregroundBlur"/>
</filter>
<filter id="filter38_f" x="-22.2393" y="124.56" width="43.52" height="43.52" filterUnits="userSpaceOnUse" color-interpolation-filters="sRGB">
<feFlood flood-opacity="0" result="BackgroundImageFix"/>
<feBlend mode="normal" in="SourceGraphic" in2="BackgroundImageFix" result="shape"/>
<feGaussianBlur stdDeviation="8" result="effect1_foregroundBlur"/>
</filter>
<filter id="filter39_f" x="3.68066" y="110.16" width="43.52" height="43.52" filterUnits="userSpaceOnUse" color-interpolation-filters="sRGB">
<feFlood flood-opacity="0" result="BackgroundImageFix"/>
<feBlend mode="normal" in="SourceGraphic" in2="BackgroundImageFix" result="shape"/>
<feGaussianBlur stdDeviation="8" result="effect1_foregroundBlur"/>
</filter>
<filter id="filter40_f" x="524.08" y="12" width="392" height="392" filterUnits="userSpaceOnUse" color-interpolation-filters="sRGB">
<feFlood flood-opacity="0" result="BackgroundImageFix"/>
<feBlend mode="normal" in="SourceGraphic" in2="BackgroundImageFix" result="shape"/>
<feGaussianBlur stdDeviation="50" result="effect1_foregroundBlur"/>
</filter>
<filter id="filter41_f" x="-100" y="155" width="1640" height="966" filterUnits="userSpaceOnUse" color-interpolation-filters="sRGB">
<feFlood flood-opacity="0" result="BackgroundImageFix"/>
<feBlend mode="normal" in="SourceGraphic" in2="BackgroundImageFix" result="shape"/>
<feGaussianBlur stdDeviation="100" result="effect1_foregroundBlur"/>
</filter>
<filter id="filter42_f" x="-200" y="521" width="1840" height="574" filterUnits="userSpaceOnUse" color-interpolation-filters="sRGB">
<feFlood flood-opacity="0" result="BackgroundImageFix"/>
<feBlend mode="normal" in="SourceGraphic" in2="BackgroundImageFix" result="shape"/>
<feGaussianBlur stdDeviation="100" result="effect1_foregroundBlur"/>
</filter>
<filter id="filter43_d" x="-78.0322" y="815.5" width="556.532" height="93.2304" filterUnits="userSpaceOnUse" color-interpolation-filters="sRGB">
<feFlood flood-opacity="0" result="BackgroundImageFix"/>
<feColorMatrix in="SourceAlpha" type="matrix" values="0 0 0 0 0 0 0 0 0 0 0 0 0 0 0 0 0 0 127 0"/>
<feOffset dy="4"/>
<feGaussianBlur stdDeviation="2"/>
<feColorMatrix type="matrix" values="0 0 0 0 0 0 0 0 0 0 0 0 0 0 0 0 0 0 0.25 0"/>
<feBlend mode="normal" in2="BackgroundImageFix" result="effect1_dropShadow"/>
<feBlend mode="normal" in="SourceGraphic" in2="effect1_dropShadow" result="shape"/>
</filter>
<filter id="filter44_d" x="502.148" y="816.906" width="566.362" height="78.3812" filterUnits="userSpaceOnUse" color-interpolation-filters="sRGB">
<feFlood flood-opacity="0" result="BackgroundImageFix"/>
<feColorMatrix in="SourceAlpha" type="matrix" values="0 0 0 0 0 0 0 0 0 0 0 0 0 0 0 0 0 0 127 0"/>
<feOffset dy="4"/>
<feGaussianBlur stdDeviation="2"/>
<feColorMatrix type="matrix" values="0 0 0 0 0 0 0 0 0 0 0 0 0 0 0 0 0 0 0.25 0"/>
<feBlend mode="normal" in2="BackgroundImageFix" result="effect1_dropShadow"/>
<feBlend mode="normal" in="SourceGraphic" in2="effect1_dropShadow" result="shape"/>
</filter>
<filter id="filter45_d" x="1098.09" y="817.041" width="376.227" height="91.0035" filterUnits="userSpaceOnUse" color-interpolation-filters="sRGB">
<feFlood flood-opacity="0" result="BackgroundImageFix"/>
<feColorMatrix in="SourceAlpha" type="matrix" values="0 0 0 0 0 0 0 0 0 0 0 0 0 0 0 0 0 0 127 0"/>
<feOffset dy="4"/>
<feGaussianBlur stdDeviation="2"/>
<feColorMatrix type="matrix" values="0 0 0 0 0 0 0 0 0 0 0 0 0 0 0 0 0 0 0.25 0"/>
<feBlend mode="normal" in2="BackgroundImageFix" result="effect1_dropShadow"/>
<feBlend mode="normal" in="SourceGraphic" in2="effect1_dropShadow" result="shape"/>
</filter>
<radialGradient id="paint0_radial" cx="0" cy="0" r="1" gradientUnits="userSpaceOnUse" gradientTransform="translate(720.08 208) rotate(90) scale(96)">
<stop stop-color="white"/>
<stop offset="0.75" stop-color="#1E3DE4"/>
</radialGradient>
<clipPath id="clip0">
<rect width="1440" height="900" fill="white"/>
</clipPath>
</defs>
</svg>
