<svg width="628" height="578" viewBox="0 0 628 578" fill="none" xmlns="http://www.w3.org/2000/svg">
<path d="M105.613 336V456.48M105.613 456.48L1.69336 516M105.613 456.48L209.533 516" stroke="#1E3DE4" stroke-width="2"/>
<path d="M1.45312 397.047L105.593 336L209.732 397.047M1.45312 397.047L105.593 456.299M1.45312 397.047V516.15L105.593 576M209.732 397.047L105.593 456.299M209.732 397.047V516.15L105.593 576M105.593 456.299V576" stroke="#1E3DE4" stroke-width="2"/>
<path d="M522.172 32V152.48M522.172 152.48L418.252 212M522.172 152.48L626.092 212" stroke="#1E3DE4" stroke-width="2"/>
<path d="M418.012 93.0474L522.151 32L626.291 93.0474M418.012 93.0474L522.151 152.299M418.012 93.0474V212.15L522.151 272M626.291 93.0474L522.151 152.299M626.291 93.0474V212.15L522.151 272M522.151 152.299V272" stroke="#1E3DE4" stroke-width="2"/>
<path d="M313.775 2V242.96M313.775 242.96L105.935 362M313.775 242.96L521.615 362" stroke="#1E3DE4" stroke-width="2"/>
<path d="M105.453 124.095L313.732 2L522.012 124.095M105.453 124.095L313.732 242.599M105.453 124.095V362.299L313.732 482M522.012 124.095L313.732 242.599M522.012 124.095V362.299L313.732 482M313.732 242.599V482" stroke="#1E3DE4" stroke-width="2"/>
</svg>
