<svg width="478" height="478" viewBox="0 0 478 478" fill="none" xmlns="http://www.w3.org/2000/svg">
<path d="M238.549 373.287V340.526M238.549 373.287L210.374 397.858M238.549 373.287L266.723 397.858M238.549 340.526L210.374 397.858M238.549 340.526L266.723 397.858M210.374 397.858H266.723" stroke="#1E3DE4" stroke-width="2"/>
<path d="M238.549 104.713V137.474M238.549 104.713L210.374 80.1419M238.549 104.713L266.723 80.1419M238.549 137.474L210.374 80.1419M238.549 137.474L266.723 80.1419M210.374 80.1419H266.723" stroke="#1E3DE4" stroke-width="2"/>
<path d="M104.752 238.298H137.514M104.752 238.298L80.1814 266.473M104.752 238.298L80.1814 210.123M137.514 238.298L80.1814 266.473M137.514 238.298L80.1814 210.123M80.1814 266.473V210.123" stroke="#1E3DE4" stroke-width="2"/>
<path d="M373.328 237.315H340.566M373.328 237.315L397.899 265.49M373.328 237.315L397.899 209.14M340.566 237.315L397.899 265.49M340.566 237.315L397.899 209.14M397.899 265.49V209.14" stroke="#1E3DE4" stroke-width="2"/>
<path d="M144.45 333.019L167.616 309.853M144.45 333.019L146.998 370.316M144.45 333.019L107.153 330.471M167.616 309.853L146.998 370.316M167.616 309.853L107.153 330.471M146.998 370.316L107.153 330.471" stroke="#1E3DE4" stroke-width="2"/>
<path d="M333.667 142.414L310.501 165.58M333.667 142.414L370.964 144.962M333.667 142.414L331.119 105.117M310.501 165.58L370.964 144.962M310.501 165.58L331.119 105.117M370.964 144.962L331.119 105.117" stroke="#1E3DE4" stroke-width="2"/>
<path d="M333.63 333.019L310.465 309.853M333.63 333.019L331.082 370.316M333.63 333.019L370.927 330.471M310.465 309.853L331.082 370.316M310.465 309.853L370.927 330.471M331.082 370.316L370.927 330.471" stroke="#1E3DE4" stroke-width="2"/>
<path d="M144.414 142.414L167.58 165.58M144.414 142.414L107.117 144.962M144.414 142.414L146.962 105.117M167.58 165.58L107.117 144.962M167.58 165.58L146.962 105.117M107.117 144.962L146.962 105.117" stroke="#1E3DE4" stroke-width="2"/>
<path d="M238.794 35.0959V51.4766M238.794 35.0959L224.707 22.8104M238.794 35.0959L252.882 22.8104M238.794 51.4766L224.707 22.8104M238.794 51.4766L252.882 22.8104M224.707 22.8104H252.882" stroke="#1E3DE4" stroke-width="2"/>
<path d="M238.794 442.905V426.524M238.794 442.905L224.707 455.191M238.794 442.905L252.882 455.191M238.794 426.524L224.707 455.191M238.794 426.524L252.882 455.191M224.707 455.191H252.882" stroke="#1E3DE4" stroke-width="2"/>
<path d="M442.945 238.754H426.564M442.945 238.754L455.231 224.667M442.945 238.754L455.231 252.842M426.564 238.754L455.231 224.667M426.564 238.754L455.231 252.842M455.231 224.667V252.842" stroke="#1E3DE4" stroke-width="2"/>
<path d="M35.135 238.754H51.5156M35.135 238.754L22.8495 252.842M35.135 238.754L22.8495 224.667M51.5156 238.754L22.8495 252.842M51.5156 238.754L22.8495 224.667M22.8495 252.842V224.667" stroke="#1E3DE4" stroke-width="2"/>
<path d="M383.223 94.5718L371.64 106.155M383.223 94.5718L381.949 75.9234M383.223 94.5718L401.871 95.8459M371.64 106.155L381.949 75.9234M371.64 106.155L401.871 95.8459M381.949 75.9234L401.871 95.8459" stroke="#1E3DE4" stroke-width="2"/>
<path d="M94.8582 382.937L106.441 371.354M94.8582 382.937L96.1323 401.585M94.8582 382.937L76.2098 381.663M106.441 371.354L96.1323 401.585M106.441 371.354L76.2098 381.663M96.1323 401.585L76.2098 381.663" stroke="#1E3DE4" stroke-width="2"/>
<path d="M94.8582 94.5718L106.441 106.155M94.8582 94.5718L96.1323 75.9233M94.8582 94.5718L76.2098 95.8459M106.441 106.155L96.1323 75.9233M106.441 106.155L76.2098 95.8459M96.1323 75.9233L76.2098 95.8459" stroke="#1E3DE4" stroke-width="2"/>
<path d="M383.223 382.937L371.64 371.354M383.223 382.937L381.949 401.585M383.223 382.937L401.871 381.663M371.64 371.354L381.949 401.585M371.64 371.354L401.871 381.663M381.949 401.585L401.871 381.663" stroke="#1E3DE4" stroke-width="2"/>
<path d="M322.848 442.516L310.31 412.249M322.848 442.516L306.22 475.999M322.848 442.516L358.28 454.435M310.31 412.249L306.22 475.999M310.31 412.249L358.28 454.435M306.22 475.999L358.28 454.435" stroke="#1E3DE4" stroke-width="2"/>
<path d="M154.249 35.4828L166.786 65.7503M154.249 35.4828L170.876 2.00016M154.249 35.4828L118.816 23.5641M166.786 65.7503L170.876 2.00016M166.786 65.7503L118.816 23.5641M170.876 2.00016L118.816 23.5641" stroke="#1E3DE4" stroke-width="2"/>
<path d="M154.249 442.516L166.786 412.249M154.249 442.516L170.876 475.999M154.249 442.516L118.816 454.435M166.786 412.249L170.876 475.999M166.786 412.249L118.816 454.435M170.876 475.999L118.816 454.435" stroke="#1E3DE4" stroke-width="2"/>
<path d="M322.848 35.4828L310.311 65.7503M322.848 35.4828L306.221 2.00016M322.848 35.4828L358.281 23.5642M310.311 65.7503L306.221 2.00016M310.311 65.7503L358.281 23.5642M306.221 2.00016L358.281 23.5642" stroke="#1E3DE4" stroke-width="2"/>
<path d="M35.0311 154.7L65.2986 167.238M35.0311 154.7L1.5485 171.327M35.0311 154.7L23.1125 119.267M65.2986 167.238L1.5485 171.327M65.2986 167.238L23.1125 119.267M1.5485 171.327L23.1125 119.267" stroke="#1E3DE4" stroke-width="2"/>
<path d="M442.067 323.299L411.799 310.761M442.067 323.299L475.549 306.672M442.067 323.299L453.985 358.732M411.799 310.761L475.549 306.672M411.799 310.761L453.985 358.732M475.549 306.672L453.985 358.732" stroke="#1E3DE4" stroke-width="2"/>
<path d="M442.065 154.7L411.797 167.238M442.065 154.7L475.547 171.327M442.065 154.7L453.983 119.267M411.797 167.238L475.547 171.327M411.797 167.238L453.983 119.267M475.547 171.327L453.983 119.267" stroke="#1E3DE4" stroke-width="2"/>
<path d="M35.0292 323.299L65.2966 310.761M35.0292 323.299L1.54655 306.672M35.0292 323.299L23.1105 358.732M65.2966 310.761L1.54655 306.672M65.2966 310.761L23.1105 358.732M1.54655 306.672L23.1105 358.732" stroke="#1E3DE4" stroke-width="2"/>
<path d="M253.958 245.817L238.787 260.989L230.344 252.545L245.515 237.374L238.768 230.627L216.775 252.618L238.707 274.549L260.698 252.557L253.958 245.817Z" fill="#1A1A1A"/>
<path d="M267.497 232.104L238.843 203.449L210.107 232.184L210.199 245.615L238.721 217.094L267.449 245.824L267.497 232.104Z" fill="#38A1DB"/>
</svg>
