<svg width="784" height="892" viewBox="0 0 784 892" fill="none" xmlns="http://www.w3.org/2000/svg">
<path d="M175.611 245.428V447.319M175.611 447.319L1.40039 547.058M175.611 447.319L349.821 547.058" stroke="#1E3DE4" stroke-width="2"/>
<path d="M1 347.726L175.579 245.428L350.157 347.726M1 347.726L175.579 447.016M1 347.726V547.309L175.579 647.602M350.157 347.726L175.579 447.016M350.157 347.726V547.309L175.579 647.602M175.579 447.016V647.602" stroke="#1E3DE4" stroke-width="2"/>
<path d="M391.521 2V203.891M391.521 203.891L217.311 303.63M391.521 203.891L565.731 303.63" stroke="#1E3DE4" stroke-width="2"/>
<path d="M216.907 104.299L391.486 2L566.064 104.299M216.907 104.299L391.486 203.588M216.907 104.299V303.881L391.486 404.174M566.064 104.299L391.486 203.588M566.064 104.299V303.881L391.486 404.174M391.486 203.588V404.174" stroke="#1E3DE4" stroke-width="2"/>
<path d="M391.521 487.826V689.717M391.521 689.717L217.311 789.457M391.521 689.717L565.731 789.457" stroke="#1E3DE4" stroke-width="2"/>
<path d="M216.907 590.125L391.486 487.826L566.064 590.125M216.907 590.125L391.486 689.415M216.907 590.125V789.707L391.486 890M566.064 590.125L391.486 689.415M566.064 590.125V789.707L391.486 890M391.486 689.415V890" stroke="#1E3DE4" stroke-width="2"/>
<path d="M608.456 245.428V447.319M608.456 447.319L434.246 547.059M608.456 447.319L782.667 547.059" stroke="#1E3DE4" stroke-width="2"/>
<path d="M433.843 347.726L608.421 245.428L783 347.726M433.843 347.726L608.421 447.016M433.843 347.726V547.309L608.421 647.602M783 347.726L608.421 447.016M783 347.726V547.309L608.421 647.602M608.421 447.016V647.602" stroke="#1E3DE4" stroke-width="2"/>
</svg>
