<svg width="536" height="664" viewBox="0 0 536 664" fill="none" xmlns="http://www.w3.org/2000/svg">
<path d="M209.169 92.5586V333.343M209.169 333.343L1.48047 452.297M209.169 333.343L416.858 452.297" stroke="#1E3DE4" stroke-width="2"/>
<path d="M1 214.564L209.128 92.5586L417.255 214.564M1 214.564L209.128 332.982M1 214.564V452.596L209.128 572.209M417.255 214.564L209.128 332.982M417.255 214.564V452.596L209.128 572.209M209.128 332.982V572.209" stroke="#1E3DE4" stroke-width="2"/>
<path d="M268.031 2V242.785M268.031 242.785L60.3418 361.738M268.031 242.785L475.719 361.738" stroke="#1E3DE4" stroke-width="2"/>
<path d="M59.8623 124.006L267.99 2L476.118 124.006M59.8623 124.006L267.99 242.423M59.8623 124.006V362.037L267.99 481.651M476.118 124.006L267.99 242.423M476.118 124.006V362.037L267.99 481.651M267.99 242.423V481.651" stroke="#1E3DE4" stroke-width="2"/>
<path d="M268.031 182.349V423.134M268.031 423.134L60.3418 542.087M268.031 423.134L475.719 542.087" stroke="#1E3DE4" stroke-width="2"/>
<path d="M59.8623 304.355L267.99 182.349L476.118 304.355M59.8623 304.355L267.99 422.772M59.8623 304.355V542.386L267.99 662M476.118 304.355L267.99 422.772M476.118 304.355V542.386L267.99 662M267.99 422.772V662" stroke="#1E3DE4" stroke-width="2"/>
<path d="M326.123 92.5586V333.343M326.123 333.343L118.435 452.297M326.123 333.343L533.812 452.297" stroke="#1E3DE4" stroke-width="2"/>
<path d="M117.954 214.564L326.082 92.5586L534.209 214.564M117.954 214.564L326.082 332.982M117.954 214.564V452.596L326.082 572.209M534.209 214.564L326.082 332.982M534.209 214.564V452.596L326.082 572.209M326.082 332.982V572.209" stroke="#1E3DE4" stroke-width="2"/>
</svg>
