<svg width="350" height="304" viewBox="0 0 350 304" fill="none" xmlns="http://www.w3.org/2000/svg">
<path d="M180.043 207.311L175.245 212.11L172.574 209.439L177.373 204.641L175.239 202.506L168.282 209.463L175.219 216.399L182.175 209.443L180.043 207.311Z" fill="#1A1A1A"/>
<path d="M184.326 202.974L175.262 193.91L166.173 202.999L166.202 207.248L175.223 198.226L184.311 207.313L184.326 202.974Z" fill="#38A1DB"/>
<path d="M2 301.537L348.155 301.698L174.938 2L2 301.537Z" stroke="#1E3DE4" stroke-width="2"/>
<path d="M56.5615 301.788L321.643 255.175L148.541 49.0756L56.5615 301.788Z" stroke="#1E3DE4" stroke-width="2"/>
<path d="M97.8782 294.742L294.848 223.155L134.241 88.517L97.8782 294.742Z" stroke="#1E3DE4" stroke-width="2"/>
<path d="M128.511 283.032L269.246 201.866L128.511 120.701L128.511 283.032Z" stroke="#1E3DE4" stroke-width="2"/>
<path d="M150.456 270.373L246.848 189.568L128.632 146.603L150.456 270.373Z" stroke="#1E3DE4" stroke-width="2"/>
<path d="M165.593 257.895L228.475 183.025L132.179 166.092L165.593 257.895Z" stroke="#1E3DE4" stroke-width="2"/>
<path d="M175.135 245.809L212.906 180.457L137.424 180.492L175.135 245.809Z" stroke="#1E3DE4" stroke-width="2"/>
</svg>
