<svg width="477" height="477" viewBox="0 0 477 477" fill="none" xmlns="http://www.w3.org/2000/svg">
<path d="M149.797 1.74219V71.7269M149.797 71.7269L89.4316 106.301M149.797 71.7269L210.162 106.301" stroke="#1E3DE4" stroke-width="2"/>
<path d="M89.2939 37.2035L149.787 1.74219L210.28 37.2035M89.2939 37.2035L149.787 71.6219M89.2939 37.2035V106.388L149.787 141.154M210.28 37.2035L149.787 71.6219M210.28 37.2035V106.388L149.787 141.154M149.787 71.6219V141.154" stroke="#1E3DE4" stroke-width="2"/>
<path d="M326.548 1.74219V71.7269M326.548 71.7269L266.183 106.301M326.548 71.7269L386.913 106.301" stroke="#1E3DE4" stroke-width="2"/>
<path d="M266.044 37.2035L326.537 1.74219L387.03 37.2035M266.044 37.2035L326.537 71.6219M266.044 37.2035V106.388L326.537 141.154M387.03 37.2035L326.537 71.6219M387.03 37.2035V106.388L326.537 141.154M326.537 71.6219V141.154" stroke="#1E3DE4" stroke-width="2"/>
<path d="M61.504 169.036V239.021M61.504 239.021L1.13867 273.595M61.504 239.021L121.869 273.595" stroke="#1E3DE4" stroke-width="2"/>
<path d="M1 204.497L61.4929 169.036L121.986 204.497M1 204.497L61.4929 238.916M1 204.497V273.682L61.4929 308.448M121.986 204.497L61.4929 238.916M121.986 204.497V273.682L61.4929 308.448M61.4929 238.916V308.448" stroke="#1E3DE4" stroke-width="2"/>
<path d="M238.253 169.036V239.021M238.253 239.021L177.888 273.595M238.253 239.021L298.618 273.595" stroke="#1E3DE4" stroke-width="2"/>
<path d="M177.75 204.498L238.243 169.037L298.736 204.498M177.75 204.498L238.243 238.917M177.75 204.498V273.683L238.243 308.449M298.736 204.498L238.243 238.917M298.736 204.498V273.683L238.243 308.449M238.243 238.917V308.449" stroke="#1E3DE4" stroke-width="2"/>
<path d="M415.005 169.036V239.021M415.005 239.021L354.64 273.595M415.005 239.021L475.37 273.595" stroke="#1E3DE4" stroke-width="2"/>
<path d="M354.501 204.498L414.994 169.037L475.487 204.498M354.501 204.498L414.994 238.917M354.501 204.498V273.683L414.994 308.449M475.487 204.498L414.994 238.917M475.487 204.498V273.683L414.994 308.449M414.994 238.917V308.449" stroke="#1E3DE4" stroke-width="2"/>
<path d="M149.797 336.33V406.315M149.797 406.315L89.4316 440.889M149.797 406.315L210.162 440.889" stroke="#1E3DE4" stroke-width="2"/>
<path d="M89.2939 371.792L149.787 336.331L210.28 371.792M89.2939 371.792L149.787 406.211M89.2939 371.792V440.977L149.787 475.743M210.28 371.792L149.787 406.211M210.28 371.792V440.977L149.787 475.743M149.787 406.211V475.743" stroke="#1E3DE4" stroke-width="2"/>
<path d="M326.548 336.33V406.315M326.548 406.315L266.183 440.889M326.548 406.315L386.913 440.889" stroke="#1E3DE4" stroke-width="2"/>
<path d="M266.044 371.791L326.537 336.33L387.03 371.791M266.044 371.791L326.537 406.21M266.044 371.791V440.976L326.537 475.742M387.03 371.791L326.537 406.21M387.03 371.791V440.976L326.537 475.742M326.537 406.21V475.742" stroke="#1E3DE4" stroke-width="2"/>
</svg>
