<svg width="478" height="415" viewBox="0 0 478 415" fill="none" xmlns="http://www.w3.org/2000/svg">
<path d="M2 380.91L20.2311 412.486L38.4622 380.91M2 380.91H38.4622M2 380.91L20.2311 349.334M20.2311 349.334L38.4622 380.91M20.2311 349.334H56.6932M20.2311 349.334L38.4622 317.759M38.4622 380.91L56.6932 349.334M56.6932 349.334L38.4622 317.759M56.6932 349.334L74.9243 317.759M38.4622 317.759L56.6932 286.183M38.4622 317.759H74.9243M56.6932 286.183L74.9243 317.759M56.6932 286.183L93.1527 286.188M56.6932 286.183L74.9243 254.607M202.542 33.5779L220.774 2.00342L239.004 33.5779M202.542 33.5779L184.311 65.1536M202.542 33.5779H239.004M202.542 33.5779L220.773 65.1536M184.311 65.1536L166.08 96.7292M184.311 65.1536L220.773 65.1536M184.311 65.1536L202.542 96.7292M166.08 96.7292L184.311 128.305M166.08 96.7292L202.542 96.7292M166.08 96.7292L147.849 128.305M184.311 128.305L202.542 96.7292M184.311 128.305H147.849M184.311 128.305L166.081 159.881M74.9243 317.759L93.1527 286.188M93.1527 286.188H93.1581M93.1527 286.188L93.1554 286.183M93.1581 286.188H93.1634M93.1581 286.188L93.1554 286.183M93.1634 286.188L93.1608 286.183M93.1634 286.188L93.1661 286.183M93.1554 286.183H93.1608M74.9243 254.607L93.1608 286.183M74.9243 254.607L93.1554 223.032M74.9243 254.607L111.393 254.611M93.1608 286.183H93.1661M239.004 33.5779L257.235 65.1535M239.004 33.5779L220.773 65.1536M220.773 65.1536L257.235 65.1535M220.773 65.1536L239.004 96.7292M220.773 65.1536L202.542 96.7292M257.235 65.1535L275.466 96.7292M257.235 65.1535L239.004 96.7292M275.466 96.7292H239.004M275.466 96.7292L293.697 128.305M275.466 96.7292L257.235 128.305M239.004 96.7292L257.235 128.305M257.235 128.305L293.697 128.305M257.235 128.305L275.466 159.88M293.697 128.305L311.928 159.88M293.697 128.305L275.466 159.88M311.928 159.88H275.466M311.928 159.88L330.159 191.456M311.928 159.88L293.697 191.456M275.466 159.88L293.697 191.456M293.697 191.456H330.159M293.697 191.456L311.928 223.032M330.159 191.456L348.391 223.032M330.159 191.456L311.928 223.032M311.928 223.032L330.159 254.607M311.928 223.032H348.391M330.159 254.607L348.385 286.174M330.159 254.607L348.391 223.032M330.159 254.607H366.622M348.385 286.174L348.391 286.183L384.845 286.178M348.385 286.174L366.622 254.607M348.385 286.174L348.383 286.178L366.615 317.756M348.391 223.032L366.622 254.607M366.622 254.607L384.85 286.178M384.85 286.178L384.853 286.183M384.85 286.178H384.845M384.85 286.178H384.855L384.853 286.183M384.853 286.183L384.85 286.188M403.076 317.755L384.85 286.188M403.076 317.755L366.615 317.756M403.076 317.755L421.307 349.33L384.846 349.33M403.076 317.755L384.846 349.33M384.845 286.178L384.85 286.188M384.85 286.188L366.615 317.756M366.615 317.756L384.845 349.33M384.845 349.33L384.845 349.331L384.846 349.33M384.845 349.33H384.846M93.1661 286.183L111.393 254.611M147.849 128.305L166.081 159.881M147.849 128.305L129.618 159.88M166.081 159.881L129.618 159.88M166.081 159.881L147.852 191.458M129.618 159.88L147.852 191.458M129.618 159.88L111.386 191.456M147.852 191.458L111.386 191.456M147.852 191.458L129.622 223.035M111.386 191.456L129.622 223.035M111.386 191.456L93.1554 223.032M129.622 223.035L93.1554 223.032M129.622 223.035L111.393 254.611M93.1554 223.032L111.393 254.611" stroke="#1E3DE4" stroke-width="2"/>
<path d="M56.6926 412.483H20.2305L38.4616 380.908M56.6926 412.483H93.1548M56.6926 412.483L38.4616 380.908M56.6926 412.483L74.9237 380.908M93.1548 412.483H129.617M93.1548 412.483L74.9237 380.908M93.1548 412.483L111.386 380.908M129.617 412.483H166.079M129.617 412.483L111.386 380.908M129.617 412.483L147.848 380.908M166.079 412.483H202.541M166.079 412.483L147.848 380.908M166.079 412.483L184.31 380.908M202.541 412.483H239.003M202.541 412.483L184.31 380.908M202.541 412.483L220.772 380.908M239.003 412.483H275.466M239.003 412.483L220.772 380.908M239.003 412.483L257.234 380.908M275.466 412.483H311.928M275.466 412.483L257.234 380.908M275.466 412.483L293.697 380.908M311.928 412.483H348.39L348.387 412.479M311.928 412.483L293.697 380.908M311.928 412.483L330.158 380.909M384.844 412.479H348.387M384.844 412.479H421.306M384.844 412.479L366.613 380.903M384.844 412.479L403.075 380.903M348.387 412.479H348.382L348.385 412.474M348.387 412.479L348.385 412.474M421.306 412.479H457.768M421.306 412.479L403.075 380.903M421.306 412.479L439.537 380.903M457.768 412.479L439.537 380.903M457.768 412.479L475.999 380.903H439.537M38.4616 380.908L56.6926 349.332M38.4616 380.908H74.9237M56.6926 349.332L74.9237 380.908M56.6926 349.332H93.1548M56.6926 349.332L74.9237 317.757M74.9237 380.908H111.386M74.9237 380.908L93.1548 349.332M111.386 380.908H147.848M147.848 380.908H184.31M184.31 380.908H220.772M220.772 380.908H257.234M257.234 380.908H293.697M330.159 380.908H330.157M330.159 380.908L330.158 380.909M330.159 380.908L330.161 380.903M330.157 380.908H293.697M330.157 380.908L330.155 380.903M330.157 380.908L330.158 380.909M366.613 380.903H330.161M366.613 380.903H403.075M366.613 380.903L348.385 412.474M330.161 380.903H330.155M330.155 380.903H330.151M403.075 380.903H439.537M184.31 128.303L202.541 159.878M184.31 128.303L220.772 128.303M184.31 128.303L202.541 96.727M184.31 128.303L166.081 159.879M202.541 159.878L220.772 128.303M202.541 159.878L166.081 159.879M202.541 159.878L184.31 191.454M74.9237 317.757L93.1548 349.332M74.9237 317.757L93.1521 286.185M74.9237 317.757H111.386M93.1548 349.332L111.386 317.757M93.1521 286.185H93.1575M93.1521 286.185L93.1548 286.181M93.1575 286.185H93.1628M93.1575 286.185L93.1548 286.181M93.1575 286.185L111.386 317.757M93.1628 286.185L93.1601 286.181M93.1628 286.185L93.1655 286.181M93.1548 286.181H93.1601M93.1601 286.181H93.1655M239.003 96.727L220.772 65.1514L202.541 96.727M239.003 96.727H202.541M239.003 96.727L220.772 128.303M202.541 96.727L220.772 128.303M348.385 412.474L330.158 380.909M111.386 317.757L129.617 286.181M129.617 286.181H93.1655M129.617 286.181L147.848 254.605M129.617 286.181L111.392 254.609M93.1655 286.181L111.392 254.609M166.081 159.879L184.31 191.454M166.081 159.879L147.851 191.456M184.31 191.454L147.851 191.456M184.31 191.454L166.079 223.03M147.851 191.456L166.079 223.03M147.851 191.456L129.622 223.032M166.079 223.03L129.622 223.032M166.079 223.03L147.848 254.605M129.622 223.032L147.848 254.605M129.622 223.032L111.392 254.609M147.848 254.605L111.392 254.609" stroke="#1E3DE4" stroke-width="2"/>
<path d="M111.386 380.908H147.848M111.386 380.908L93.1549 349.333M111.386 380.908H74.9238L93.1549 349.333M111.386 380.908L129.617 349.333M147.848 380.908H184.31M147.848 380.908L129.617 349.333M147.848 380.908L166.079 349.333M184.31 380.908H220.772M184.31 380.908L166.079 349.333M184.31 380.908L202.541 349.333M220.772 380.908H257.235M220.772 380.908L202.541 349.333M220.772 380.908L239.004 349.333M257.235 380.908H293.697M257.235 380.908L239.004 349.333M257.235 380.908L275.466 349.333M330.159 380.908H330.158M330.159 380.908L330.158 380.909L330.158 380.908M330.159 380.908L330.162 380.904M330.158 380.908H293.697M330.158 380.908L330.155 380.904M293.697 380.908L275.466 349.333M293.697 380.908L311.923 349.333M366.613 380.904H330.162M366.613 380.904H403.075M366.613 380.904L384.844 349.328M366.613 380.904L348.382 349.328M330.162 380.904H330.155M330.162 380.904L348.382 349.328M330.155 380.904H330.151M330.155 380.904L311.925 349.333M403.075 380.904H439.537M403.075 380.904L384.845 349.329M403.075 380.904L421.307 349.328M439.537 380.904H476L457.768 349.328M439.537 380.904L421.307 349.328M439.537 380.904L457.768 349.328M457.768 349.328L439.537 317.752M457.768 349.328L421.307 349.328M421.309 286.181L421.306 286.177L421.304 286.181M421.309 286.181L439.537 317.752M421.309 286.181H421.304M421.309 286.181H421.314L403.083 254.606M439.537 317.752L403.076 317.753M439.537 317.752L421.307 349.328M403.083 254.606L384.852 223.03M403.083 254.606L384.855 286.177M403.083 254.606L366.621 254.606M384.852 223.03L366.621 191.454M384.852 223.03L366.621 254.606M384.852 223.03L348.39 223.03M366.621 191.454L348.39 159.879M366.621 191.454L330.159 191.454M366.621 191.454L348.39 223.03M348.39 159.879L330.159 128.303M348.39 159.879H311.928M348.39 159.879L330.159 191.454M330.159 128.303L311.928 96.7274M330.159 128.303H293.697M330.159 128.303L311.928 159.879M311.928 96.7274L293.697 65.1518M311.928 96.7274H275.466M311.928 96.7274L293.697 128.303M293.697 65.1518L275.466 33.5761M293.697 65.1518H257.235M293.697 65.1518L275.466 96.7274M275.466 33.5761L257.235 2.00049M275.466 33.5761H239.004M275.466 33.5761L257.235 65.1518M257.235 2.00049L220.773 2.00165L239.004 33.5761M257.235 2.00049L239.004 33.5761M93.1549 349.333H129.617M129.617 349.333H166.079M166.079 349.333H202.541M202.541 349.333H239.004M239.004 349.333H275.466M311.928 349.333H311.925M311.925 349.333H311.923M311.925 349.333L311.924 349.33L311.923 349.333M311.923 349.333H275.466M239.004 33.5761L257.235 65.1518M257.235 65.1518L275.466 96.7274M275.466 96.7274L293.697 128.303M293.697 128.303L311.928 159.879M311.928 159.879L330.159 191.454M330.159 191.454L348.39 223.03M348.39 223.03L366.621 254.606M366.621 254.606L384.85 286.177M384.85 286.177L384.852 286.181M384.85 286.177H384.844L384.85 286.186M384.85 286.177H384.855M384.852 286.181L384.85 286.186M384.852 286.181L384.855 286.177M403.076 317.753L384.85 286.186M403.076 317.753L421.307 349.328M403.076 317.753L421.304 286.181M421.307 349.328L384.846 349.328M384.844 349.328L384.845 349.329M384.844 349.328H384.846M384.844 349.328H348.382M384.845 349.329L384.846 349.328M348.382 349.328H311.92M421.304 286.181L384.855 286.177" stroke="#1E3DE4" stroke-width="2"/>
<path d="M252.893 260.74L238.878 274.755L231.078 266.955L245.093 252.94L238.86 246.707L218.544 267.022L238.804 287.281L259.119 266.966L252.893 260.74Z" fill="#1A1A1A"/>
<path d="M265.399 248.071L238.929 221.6L212.384 248.145L212.468 260.553L238.816 234.206L265.355 260.745L265.399 248.071Z" fill="#38A1DB"/>
</svg>
