<svg width="323" height="407" viewBox="0 0 323 407" fill="none" xmlns="http://www.w3.org/2000/svg">
<path d="M0.726562 0.842773L181.491 43.9858L179.438 52.5186M0.726562 0.842773L179.438 52.5186M0.726562 0.842773L177.664 59.8937M0.726562 0.842773L176.14 66.2299M0.726562 0.842773L174.849 71.5969M0.726562 0.842773L173.688 76.4253M0.726562 0.842773L172.691 80.5677M0.726562 0.842773L171.776 84.371M0.726562 0.842773L170.985 87.6631M0.726562 0.842773L170.245 90.7377M0.726562 0.842773L169.601 93.4154M0.726562 0.842773L94.4114 406M179.438 52.5186L177.664 59.8937M179.438 52.5186L195.57 57.1832L193.273 65.103M177.664 59.8937L176.14 66.2299M177.664 59.8937L193.273 65.103M176.14 66.2299L174.849 71.5969M176.14 66.2299L191.307 71.8834M174.849 71.5969L173.688 76.4253M174.849 71.5969L189.646 77.6095M173.688 76.4253L172.691 80.5677M173.688 76.4253L188.156 82.7478M172.691 80.5677L171.776 84.371M172.691 80.5677L186.88 87.1459M171.776 84.371L170.985 87.6631M171.776 84.371L185.712 91.1759M170.985 87.6631L170.245 90.7377M170.985 87.6631L184.702 94.658M170.245 90.7377L169.601 93.4154M170.245 90.7377L183.76 97.9048M169.601 93.4154L94.4114 406M169.601 93.4154L182.941 100.728M94.4114 406L182.941 100.728M94.4114 406L196.532 108.178M94.4114 406L210.517 115.845M94.4114 406L225.018 123.794M94.4114 406L239.84 131.918M94.4114 406L255.199 140.338M94.4114 406L270.934 148.963M94.4114 406L287.231 157.897M94.4114 406L303.964 167.07M94.4114 406L321.289 176.567L303.964 167.07M193.273 65.103L191.307 71.8834M193.273 65.103L209.45 70.502L206.974 77.7236M191.307 71.8834L189.646 77.6095M191.307 71.8834L206.974 77.7236M189.646 77.6095L188.156 82.7478M189.646 77.6095L204.889 83.8036M188.156 82.7478L186.88 87.1459M188.156 82.7478L203.024 89.2448M186.88 87.1459L185.712 91.1759M186.88 87.1459L201.43 93.8915M185.712 91.1759L184.702 94.658M185.712 91.1759L199.974 98.1404M184.702 94.658L183.76 97.9048M184.702 94.658L198.717 101.805M183.76 97.9048L182.941 100.728M183.76 97.9048L197.547 105.216M182.941 100.728L196.532 108.178M206.974 77.7236L204.889 83.8036M206.974 77.7236L223.331 83.8208L220.758 90.2517M204.889 83.8036L203.024 89.2448M204.889 83.8036L220.758 90.2517M203.024 89.2448L201.43 93.8915M203.024 89.2448L218.461 95.9909M201.43 93.8915L199.974 98.1404M201.43 93.8915L216.505 100.88M199.974 98.1404L198.717 101.805M199.974 98.1404L214.72 105.341M198.717 101.805L197.547 105.216M198.717 101.805L213.183 109.181M197.547 105.216L196.532 108.178M197.547 105.216L211.755 112.75M196.532 108.178L210.517 115.845M220.758 90.2517L218.461 95.9909M220.758 90.2517L237.41 97.0182L234.618 103.051M218.461 95.9909L216.505 100.88M218.461 95.9909L234.618 103.051M216.505 100.88L214.72 105.341M216.505 100.88L232.245 108.178M214.72 105.341L213.183 109.181M214.72 105.341L230.085 112.845M213.183 109.181L211.755 112.75M213.183 109.181L228.23 116.854M211.755 112.75L210.517 115.845M211.755 112.75L226.508 120.574M210.517 115.845L225.018 123.794M225.018 123.794L226.508 120.574M225.018 123.794L239.84 131.918M226.508 120.574L228.23 116.854M226.508 120.574L241.61 128.582M228.23 116.854L230.085 112.845M228.23 116.854L243.658 124.722M230.085 112.845L232.245 108.178M230.085 112.845L245.87 120.553M232.245 108.178L234.618 103.051M232.245 108.178L248.45 115.69M234.618 103.051L251.291 110.337L248.45 115.69M248.45 115.69L245.87 120.553M248.45 115.69L265.37 123.534L262.314 128.583M245.87 120.553L243.658 124.722M245.87 120.553L262.314 128.583M243.658 124.722L241.61 128.582M243.658 124.722L259.7 132.902M241.61 128.582L239.84 131.918M241.61 128.582L257.284 136.894M239.84 131.918L255.199 140.338M255.199 140.338L257.284 136.894M255.199 140.338L270.934 148.963M257.284 136.894L259.7 132.902M257.284 136.894L273.366 145.422M259.7 132.902L262.314 128.583M259.7 132.902L276.189 141.311M262.314 128.583L279.25 136.853L276.189 141.311M276.189 141.311L273.366 145.422M276.189 141.311L293.329 150.051L290.05 154.27M273.366 145.422L270.934 148.963M273.366 145.422L290.05 154.27M270.934 148.963L287.231 157.897M287.231 157.897L290.05 154.27M287.231 157.897L303.964 167.07M290.05 154.27L307.21 163.37L303.964 167.07" stroke="#1E3DE4"/>
</svg>
