<svg width="324" height="492" viewBox="0 0 324 492" fill="none" xmlns="http://www.w3.org/2000/svg">
<rect x="188" y="372.5" width="50.6667" height="119" rx="25.3333" fill="#38A1DB" stroke="#1A1A1A"/>
<rect x="83.8334" y="372.5" width="50.6667" height="119" rx="25.3333" fill="#38A1DB" stroke="#1A1A1A"/>
<path d="M97.7556 256.091L130.323 294.904L52.6788 360.056C41.9609 369.049 25.9817 367.651 16.9884 356.933C7.99499 346.215 9.39298 330.236 20.1109 321.243L97.7556 256.091Z" fill="#38A1DB" stroke="#1A1A1A"/>
<path d="M225.772 256.091L193.204 294.904L270.849 360.056C281.567 369.049 297.546 367.651 306.54 356.933C315.533 346.215 314.135 330.236 303.417 321.243L225.772 256.091Z" fill="#38A1DB" stroke="#1A1A1A"/>
<circle cx="161.667" cy="332" r="99.5" fill="#38A1DB" stroke="#1A1A1A"/>
<circle cx="161.25" cy="359.916" r="52.0833" fill="#D7ECF8"/>
<circle cx="161.667" cy="390.334" r="1.66667" fill="#1A1A1A"/>
<path d="M20.6512 87.781L21.1273 88.2226L21.4325 87.6494C25.6794 79.6736 34.0841 66.7846 45.4768 54.0841C56.8718 41.3812 71.2289 28.8972 87.3745 21.6914L88.0123 21.4068L87.5373 20.8948C78.8941 11.5764 66.5425 5.74365 52.8293 5.74365C26.6901 5.74365 5.50003 26.9337 5.50003 53.0729C5.50003 66.7861 11.3328 79.1378 20.6512 87.781Z" fill="#38A1DB" stroke="#1A1A1A"/>
<path d="M34.8927 65.5597C32.4236 62.02 30.9756 57.715 30.9756 53.0719C30.9756 41.0025 40.7598 31.2183 52.8293 31.2183C57.4724 31.2183 61.7773 32.6663 65.3171 35.1353" stroke="#1A1A1A"/>
<path d="M303.544 87.781L303.068 88.2226L302.763 87.6494C298.516 79.6736 290.111 66.7846 278.718 54.0841C267.323 41.3812 252.966 28.8972 236.821 21.6914L236.183 21.4068L236.658 20.8948C245.301 11.5764 257.653 5.74365 271.366 5.74365C297.505 5.74365 318.695 26.9337 318.695 53.0729C318.695 66.7861 312.862 79.1378 303.544 87.781Z" fill="#38A1DB" stroke="#1A1A1A"/>
<path d="M289.303 65.5597C291.772 62.02 293.22 57.715 293.22 53.0719C293.22 41.0025 283.435 31.2183 271.366 31.2183C266.723 31.2183 262.418 32.6663 258.878 35.1353" stroke="#1A1A1A"/>
<path d="M317.695 137.366C317.695 177.784 300.306 207.29 272.191 226.711C244.054 246.146 205.14 255.5 162.098 255.5C119.055 255.5 80.1415 246.146 52.0041 226.711C23.889 207.29 6.50003 177.784 6.50003 137.366C6.50003 66.9964 76.1142 0.5 162.098 0.5C248.081 0.5 317.695 66.9964 317.695 137.366Z" fill="#38A1DB" stroke="#1A1A1A"/>
<circle cx="99.6585" cy="106.145" r="43.2073" fill="white" stroke="#1A1A1A"/>
<circle cx="99.6585" cy="112.387" r="6.2439" fill="#1A1A1A"/>
<path d="M139.577 89.6101C139.686 89.874 139.793 90.1294 139.896 90.3779C140.838 92.6385 141.544 94.3324 142.036 96.7481C142.568 99.3634 142.85 102.838 142.865 108.767H99.6585L56.4518 108.767C56.4667 102.838 56.7488 99.3634 57.281 96.7481C57.7726 94.3324 58.4786 92.6385 59.4208 90.378C59.5244 90.1294 59.6308 89.874 59.7402 89.6101C61.9115 84.3679 65.0942 79.6048 69.1063 75.5926C73.1185 71.5805 77.8816 68.3978 83.1238 66.2265C88.366 64.0551 93.9845 62.9375 99.6585 62.9375C105.333 62.9375 110.951 64.0551 116.193 66.2265C121.435 68.3978 126.199 71.5805 130.211 75.5926C134.223 79.6048 137.406 84.3679 139.577 89.6101Z" fill="#38A1DB" stroke="#1A1A1A"/>
<circle cx="224.537" cy="106.145" r="43.2073" fill="white" stroke="#1A1A1A"/>
<circle cx="224.537" cy="112.387" r="6.2439" fill="#1A1A1A"/>
<path d="M264.455 89.6101C264.564 89.874 264.671 90.1294 264.774 90.3779C265.717 92.6385 266.423 94.3324 266.914 96.7481C267.446 99.3634 267.728 102.838 267.743 108.767H224.537L181.33 108.767C181.345 102.838 181.627 99.3634 182.159 96.7481C182.651 94.3324 183.357 92.6385 184.299 90.378C184.403 90.1294 184.509 89.874 184.618 89.6101C186.79 84.3679 189.972 79.6048 193.984 75.5926C197.997 71.5805 202.76 68.3978 208.002 66.2265C213.244 64.0551 218.863 62.9375 224.537 62.9375C230.211 62.9375 235.829 64.0551 241.071 66.2265C246.314 68.3978 251.077 71.5805 255.089 75.5926C259.101 79.6048 262.284 84.3679 264.455 89.6101Z" fill="#38A1DB" stroke="#1A1A1A"/>
<path d="M137.122 137.363C137.122 127.997 152.732 106.144 162.098 106.144C171.463 106.144 187.073 127.997 187.073 137.363C187.073 146.729 180.829 149.851 162.098 149.851C143.366 149.851 137.122 146.729 137.122 137.363Z" fill="#1A1A1A"/>
<path d="M140.244 189.442V178.501C141.5 178.501 162.098 171.707 162.098 149.854V189.439C162.098 189.991 161.65 190.439 161.098 190.439H141.244C140.692 190.439 140.244 189.995 140.244 189.442Z" fill="white"/>
<path d="M140.244 178.501C140.244 180.176 140.244 186.885 140.244 189.442C140.244 189.995 140.692 190.439 141.244 190.439H161.098C161.65 190.439 162.098 189.991 162.098 189.439V149.854" stroke="#1A1A1A"/>
<path d="M183.854 189.439V178.498C182.598 178.498 162 171.704 162 149.851V189.436C162 189.988 162.448 190.436 163 190.436H182.854C183.406 190.436 183.854 189.992 183.854 189.439Z" fill="white"/>
<path d="M183.854 178.498C183.854 180.173 183.854 186.882 183.854 189.439C183.854 189.992 183.406 190.436 182.854 190.436H163C162.448 190.436 162 189.988 162 189.436V149.851" stroke="#1A1A1A"/>
<path d="M162.098 149.854C162 169.001 146 180.501 124.634 181.073" stroke="#1A1A1A"/>
<path d="M162 150C162.098 169.147 178.098 180.647 199.463 181.22" stroke="#1A1A1A"/>
<mask id="path-26-inside-1" fill="white">
<path d="M87 256C87 258.209 120.579 270 162 270C203.421 270 237 258.209 237 256L302 310L263.5 358H259.5V368C252 378.167 222 398.5 162 398.5C102 398.5 72 378.167 64.5 368V358H60.5L22 310L87 256Z"/>
</mask>
<path d="M87 256C87 258.209 120.579 270 162 270C203.421 270 237 258.209 237 256L302 310L263.5 358H259.5V368C252 378.167 222 398.5 162 398.5C102 398.5 72 378.167 64.5 368V358H60.5L22 310L87 256Z" fill="#333333"/>
<path d="M87 256H88C88 255.612 87.7759 255.259 87.4248 255.095C87.0738 254.93 86.6592 254.983 86.361 255.231L87 256ZM22 310L21.361 309.231L20.6049 309.859L21.2199 310.626L22 310ZM60.5 358L59.7199 358.626L60.0202 359H60.5V358ZM64.5 358H65.5C65.5 357.448 65.0523 357 64.5 357V358ZM64.5 368H63.5V368.329L63.6953 368.594L64.5 368ZM237 256L237.639 255.231C237.341 254.983 236.926 254.93 236.575 255.095C236.224 255.259 236 255.612 236 256H237ZM302 310L302.78 310.626L303.395 309.859L302.639 309.231L302 310ZM263.5 358V359H263.98L264.28 358.626L263.5 358ZM259.5 358V357C258.948 357 258.5 357.448 258.5 358H259.5ZM259.5 368L260.305 368.594L260.5 368.329V368H259.5ZM162 269C141.38 269 122.708 266.065 109.198 262.855C102.442 261.251 96.9916 259.581 93.2434 258.183C91.3652 257.482 89.9382 256.858 88.995 256.354C88.5187 256.099 88.2015 255.894 88.0172 255.745C87.924 255.669 87.8963 255.633 87.8999 255.638C87.9032 255.642 87.925 255.672 87.9476 255.726C87.9705 255.781 88 255.876 88 256H86C86 256.377 86.172 256.666 86.2953 256.831C86.4285 257.01 86.5944 257.166 86.7572 257.298C87.0851 257.564 87.5297 257.838 88.0525 258.118C89.1074 258.682 90.6274 259.341 92.5443 260.056C96.3866 261.49 101.919 263.182 108.736 264.801C122.371 268.04 141.199 271 162 271V269ZM22.639 310.769L87.639 256.769L86.361 255.231L21.361 309.231L22.639 310.769ZM21.2199 310.626L59.7199 358.626L61.2801 357.374L22.7801 309.374L21.2199 310.626ZM60.5 359H64.5V357H60.5V359ZM63.5 358V368H65.5V358H63.5ZM63.6953 368.594C67.5938 373.878 77.1521 381.596 93.1922 387.991C109.26 394.397 131.887 399.5 162 399.5V397.5C132.113 397.5 109.74 392.436 93.9328 386.134C78.0979 379.82 68.9062 372.288 65.3047 367.406L63.6953 368.594ZM162 271C182.801 271 201.629 268.04 215.264 264.801C222.081 263.182 227.613 261.49 231.456 260.056C233.373 259.341 234.893 258.682 235.948 258.118C236.47 257.838 236.915 257.564 237.243 257.298C237.406 257.166 237.572 257.01 237.705 256.831C237.828 256.666 238 256.377 238 256H236C236 255.876 236.029 255.781 236.052 255.726C236.075 255.672 236.097 255.642 236.1 255.638C236.104 255.633 236.076 255.669 235.983 255.745C235.799 255.894 235.481 256.099 235.005 256.354C234.062 256.858 232.635 257.482 230.757 258.183C227.008 259.581 221.558 261.251 214.802 262.855C201.292 266.065 182.62 269 162 269V271ZM302.639 309.231L237.639 255.231L236.361 256.769L301.361 310.769L302.639 309.231ZM301.22 309.374L262.72 357.374L264.28 358.626L302.78 310.626L301.22 309.374ZM263.5 357H259.5V359H263.5V357ZM258.5 358V368H260.5V358H258.5ZM258.695 367.406C255.094 372.288 245.902 379.82 230.067 386.134C214.26 392.436 191.887 397.5 162 397.5V399.5C192.113 399.5 214.74 394.397 230.808 387.991C246.848 381.596 256.406 373.878 260.305 368.594L258.695 367.406Z" fill="#1A1A1A" mask="url(#path-26-inside-1)"/>
<path d="M174.472 333.138L160.816 346.794L153.215 339.194L166.872 325.537L160.798 319.464L141.002 339.259L160.744 359L180.539 339.205L174.472 333.138Z" fill="white"/>
<path d="M186.659 320.793L160.866 294.999L135 320.865L135.082 332.955L160.756 307.282L186.616 333.143L186.659 320.793Z" fill="white"/>
</svg>
