<svg width="315" height="256" viewBox="0 0 315 256" fill="none" xmlns="http://www.w3.org/2000/svg">
<path d="M82.3745 21.6919L83.0123 21.4073L82.5373 20.8953C73.8941 11.5769 61.5425 5.74414 47.8293 5.74414C21.6901 5.74414 0.500031 26.9342 0.500031 53.0734C0.500031 66.7866 6.33276 79.1383 15.6512 87.7815L16.1273 88.2231L16.4325 87.6499C20.6794 79.6741 29.0841 66.7851 40.4768 54.0846C51.8718 41.3817 66.2289 28.8977 82.3745 21.6919Z" fill="#38A1DB" stroke="#1A1A1A"/>
<path d="M29.8927 65.5602C27.4236 62.0204 25.9756 57.7155 25.9756 53.0724C25.9756 41.003 35.7598 31.2188 47.8293 31.2188C52.4724 31.2188 56.7773 32.6668 60.3171 35.1358" stroke="#1A1A1A"/>
<path d="M231.821 21.6919L231.183 21.4073L231.658 20.8953C240.301 11.5769 252.653 5.74414 266.366 5.74414C292.505 5.74414 313.695 26.9342 313.695 53.0734C313.695 66.7866 307.862 79.1383 298.544 87.7815L298.068 88.2231L297.763 87.6499C293.516 79.6741 285.111 66.7851 273.718 54.0846C262.323 41.3817 247.966 28.8977 231.821 21.6919Z" fill="#38A1DB" stroke="#1A1A1A"/>
<path d="M284.303 65.5602C286.772 62.0204 288.22 57.7155 288.22 53.0724C288.22 41.003 278.435 31.2188 266.366 31.2188C261.723 31.2188 257.418 32.6668 253.878 35.1358" stroke="#1A1A1A"/>
<path d="M312.695 137.366C312.695 177.784 295.306 207.29 267.191 226.711C239.054 246.146 200.14 255.5 157.098 255.5C114.055 255.5 75.1415 246.146 47.0041 226.711C18.889 207.29 1.50003 177.784 1.50003 137.366C1.50003 66.9964 71.1142 0.5 157.098 0.5C243.081 0.5 312.695 66.9964 312.695 137.366Z" fill="#38A1DB" stroke="#1A1A1A"/>
<circle cx="94.6585" cy="106.145" r="43.2073" fill="white" stroke="#1A1A1A"/>
<circle cx="94.6585" cy="112.387" r="6.2439" fill="#1A1A1A"/>
<path d="M134.577 89.6101C134.686 89.874 134.793 90.1294 134.896 90.3779C135.838 92.6385 136.544 94.3324 137.036 96.7481C137.568 99.3634 137.85 102.838 137.865 108.767H94.6585L51.4518 108.767C51.4667 102.838 51.7488 99.3634 52.281 96.7481C52.7726 94.3324 53.4786 92.6385 54.4208 90.378C54.5244 90.1294 54.6308 89.874 54.7402 89.6101C56.9115 84.3679 60.0942 79.6048 64.1063 75.5926C68.1185 71.5805 72.8816 68.3978 78.1238 66.2265C83.366 64.0551 88.9845 62.9375 94.6585 62.9375C100.333 62.9375 105.951 64.0551 111.193 66.2265C116.435 68.3978 121.199 71.5805 125.211 75.5926C129.223 79.6048 132.406 84.3679 134.577 89.6101Z" fill="#38A1DB" stroke="#1A1A1A"/>
<circle cx="219.537" cy="106.145" r="43.2073" fill="white" stroke="#1A1A1A"/>
<circle cx="219.537" cy="112.387" r="6.2439" fill="#1A1A1A"/>
<path d="M259.455 89.6101C259.564 89.874 259.671 90.1294 259.774 90.3779C260.717 92.6385 261.423 94.3324 261.914 96.7481C262.446 99.3634 262.728 102.838 262.743 108.767H219.537L176.33 108.767C176.345 102.838 176.627 99.3634 177.159 96.7481C177.651 94.3324 178.357 92.6385 179.299 90.378C179.403 90.1294 179.509 89.874 179.618 89.6101C181.79 84.3679 184.972 79.6048 188.984 75.5926C192.997 71.5805 197.76 68.3978 203.002 66.2265C208.244 64.0551 213.863 62.9375 219.537 62.9375C225.211 62.9375 230.829 64.0551 236.071 66.2265C241.314 68.3978 246.077 71.5805 250.089 75.5926C254.101 79.6048 257.284 84.3679 259.455 89.6101Z" fill="#38A1DB" stroke="#1A1A1A"/>
<path d="M132.122 137.363C132.122 127.997 147.732 106.144 157.098 106.144C166.463 106.144 182.073 127.997 182.073 137.363C182.073 146.729 175.829 149.851 157.098 149.851C138.366 149.851 132.122 146.729 132.122 137.363Z" fill="#1A1A1A"/>
<path d="M135.244 189.442V178.501C136.5 178.501 157.098 171.707 157.098 149.854V189.439C157.098 189.991 156.65 190.439 156.098 190.439H136.244C135.692 190.439 135.244 189.995 135.244 189.442Z" fill="white"/>
<path d="M135.244 178.501C135.244 180.176 135.244 186.885 135.244 189.442C135.244 189.995 135.692 190.439 136.244 190.439H156.098C156.65 190.439 157.098 189.991 157.098 189.439V149.854" stroke="#1A1A1A"/>
<path d="M178.854 189.439V178.498C177.598 178.498 157 171.704 157 149.851V189.436C157 189.988 157.448 190.436 158 190.436H177.854C178.406 190.436 178.854 189.992 178.854 189.439Z" fill="white"/>
<path d="M178.854 178.498C178.854 180.173 178.854 186.882 178.854 189.439C178.854 189.992 178.406 190.436 177.854 190.436H158C157.448 190.436 157 189.988 157 189.436V149.851" stroke="#1A1A1A"/>
<path d="M157.098 149.854C157 169.001 141 180.501 119.634 181.073" stroke="#1A1A1A"/>
<path d="M157 150C157.098 169.147 173.098 180.647 194.463 181.22" stroke="#1A1A1A"/>
</svg>
