<svg width="324" height="492" viewBox="0 0 324 492" fill="none" xmlns="http://www.w3.org/2000/svg">
<rect x="188" y="372.5" width="50.6667" height="119" rx="25.3333" fill="#38A1DB" stroke="#1A1A1A"/>
<rect x="83.8334" y="372.5" width="50.6667" height="119" rx="25.3333" fill="#38A1DB" stroke="#1A1A1A"/>
<path d="M97.7556 256.091L130.323 294.904L52.6788 360.056C41.9609 369.049 25.9817 367.651 16.9884 356.933C7.99499 346.215 9.39298 330.236 20.1109 321.243L97.7556 256.091Z" fill="#38A1DB" stroke="#1A1A1A"/>
<path d="M225.772 256.091L193.204 294.904L270.849 360.056C281.567 369.049 297.546 367.651 306.54 356.933C315.533 346.215 314.135 330.236 303.417 321.243L225.772 256.091Z" fill="#38A1DB" stroke="#1A1A1A"/>
<circle cx="161.667" cy="332" r="99.5" fill="#38A1DB" stroke="#1A1A1A"/>
<circle cx="161.25" cy="359.916" r="52.0833" fill="#D7ECF8"/>
<circle cx="161.667" cy="390.334" r="1.66667" fill="#1A1A1A"/>
<path d="M87.3745 21.6919L88.0123 21.4073L87.5373 20.8953C78.8941 11.5769 66.5425 5.74414 52.8293 5.74414C26.6901 5.74414 5.50003 26.9342 5.50003 53.0734C5.50003 66.7866 11.3328 79.1383 20.6512 87.7815L21.1273 88.2231L21.4325 87.6499C25.6794 79.6741 34.0841 66.7851 45.4768 54.0846C56.8718 41.3817 71.2289 28.8977 87.3745 21.6919Z" fill="#38A1DB" stroke="#1A1A1A"/>
<path d="M34.8927 65.5602C32.4236 62.0204 30.9756 57.7155 30.9756 53.0724C30.9756 41.003 40.7598 31.2188 52.8293 31.2188C57.4724 31.2188 61.7773 32.6668 65.3171 35.1358" stroke="#1A1A1A"/>
<path d="M236.821 21.6919L236.183 21.4073L236.658 20.8953C245.301 11.5769 257.653 5.74414 271.366 5.74414C297.505 5.74414 318.695 26.9342 318.695 53.0734C318.695 66.7866 312.862 79.1383 303.544 87.7815L303.068 88.2231L302.763 87.6499C298.516 79.6741 290.111 66.7851 278.718 54.0846C267.323 41.3817 252.966 28.8977 236.821 21.6919Z" fill="#38A1DB" stroke="#1A1A1A"/>
<path d="M289.303 65.5602C291.772 62.0204 293.22 57.7155 293.22 53.0724C293.22 41.003 283.435 31.2188 271.366 31.2188C266.723 31.2188 262.418 32.6668 258.878 35.1358" stroke="#1A1A1A"/>
<path d="M317.695 137.366C317.695 177.784 300.306 207.29 272.191 226.711C244.054 246.146 205.14 255.5 162.098 255.5C119.055 255.5 80.1415 246.146 52.0041 226.711C23.889 207.29 6.50003 177.784 6.50003 137.366C6.50003 66.9964 76.1142 0.5 162.098 0.5C248.081 0.5 317.695 66.9964 317.695 137.366Z" fill="#38A1DB" stroke="#1A1A1A"/>
<circle cx="99.6585" cy="106.145" r="43.2073" fill="white" stroke="#1A1A1A"/>
<circle cx="99.6585" cy="112.387" r="6.2439" fill="#1A1A1A"/>
<path d="M139.577 89.6101C139.686 89.874 139.793 90.1294 139.896 90.3779C140.838 92.6385 141.544 94.3324 142.036 96.7481C142.568 99.3634 142.85 102.838 142.865 108.767H99.6585L56.4518 108.767C56.4667 102.838 56.7488 99.3634 57.281 96.7481C57.7726 94.3324 58.4786 92.6385 59.4208 90.378C59.5244 90.1294 59.6308 89.874 59.7402 89.6101C61.9115 84.3679 65.0942 79.6048 69.1063 75.5926C73.1185 71.5805 77.8816 68.3978 83.1238 66.2265C88.366 64.0551 93.9845 62.9375 99.6585 62.9375C105.333 62.9375 110.951 64.0551 116.193 66.2265C121.435 68.3978 126.199 71.5805 130.211 75.5926C134.223 79.6048 137.406 84.3679 139.577 89.6101Z" fill="#38A1DB" stroke="#1A1A1A"/>
<circle cx="224.537" cy="106.145" r="43.2073" fill="white" stroke="#1A1A1A"/>
<circle cx="224.537" cy="112.387" r="6.2439" fill="#1A1A1A"/>
<path d="M264.455 89.6101C264.564 89.874 264.671 90.1294 264.774 90.3779C265.717 92.6385 266.423 94.3324 266.914 96.7481C267.446 99.3634 267.728 102.838 267.743 108.767H224.537L181.33 108.767C181.345 102.838 181.627 99.3634 182.159 96.7481C182.651 94.3324 183.357 92.6385 184.299 90.378C184.403 90.1294 184.509 89.874 184.618 89.6101C186.79 84.3679 189.972 79.6048 193.984 75.5926C197.997 71.5805 202.76 68.3978 208.002 66.2265C213.244 64.0551 218.863 62.9375 224.537 62.9375C230.211 62.9375 235.829 64.0551 241.071 66.2265C246.314 68.3978 251.077 71.5805 255.089 75.5926C259.101 79.6048 262.284 84.3679 264.455 89.6101Z" fill="#38A1DB" stroke="#1A1A1A"/>
<path d="M137.122 137.363C137.122 127.997 152.732 106.144 162.098 106.144C171.463 106.144 187.073 127.997 187.073 137.363C187.073 146.729 180.829 149.851 162.098 149.851C143.366 149.851 137.122 146.729 137.122 137.363Z" fill="#1A1A1A"/>
<path d="M140.244 189.442V178.501C141.5 178.501 162.098 171.707 162.098 149.854V189.439C162.098 189.991 161.65 190.439 161.098 190.439H141.244C140.692 190.439 140.244 189.995 140.244 189.442Z" fill="white"/>
<path d="M140.244 178.501C140.244 180.176 140.244 186.885 140.244 189.442C140.244 189.995 140.692 190.439 141.244 190.439H161.098C161.65 190.439 162.098 189.991 162.098 189.439V149.854" stroke="#1A1A1A"/>
<path d="M183.854 189.439V178.498C182.598 178.498 162 171.704 162 149.851V189.436C162 189.988 162.448 190.436 163 190.436H182.854C183.406 190.436 183.854 189.992 183.854 189.439Z" fill="white"/>
<path d="M183.854 178.498C183.854 180.173 183.854 186.882 183.854 189.439C183.854 189.992 183.406 190.436 182.854 190.436H163C162.448 190.436 162 189.988 162 189.436V149.851" stroke="#1A1A1A"/>
<path d="M162.098 149.854C162 169.001 146 180.501 124.634 181.073" stroke="#1A1A1A"/>
<path d="M162 150C162.098 169.147 178.098 180.647 199.463 181.22" stroke="#1A1A1A"/>
</svg>
