<svg width="414" height="156" viewBox="0 0 414 156" fill="none" xmlns="http://www.w3.org/2000/svg">
<path d="M18.8878 116.651H22.6918V136.789C22.6918 139.22 21.9778 141.454 20.7898 143.207C19.6018 141.454 18.8878 139.22 18.8878 136.789V116.651ZM37.6428 109.593H32.5498V118.872H27.3018V116.651H27.3108V111.282H14.2908V115.836H14.2778V118.872H11.4288V109.593H6.33582V118.872H0.0768166V124.241H5.16382V135.249C5.16382 139.463 3.04182 143.092 0.0128174 144.682V150.317C2.49282 149.504 4.67782 147.83 6.33582 145.582V154.717H11.4288V124.241H14.2778V136.789C14.2778 140.406 15.3038 143.739 17.0208 146.399C16.1378 146.773 15.1898 146.978 14.2028 146.978H13.9818V152.512H14.2028C16.6028 152.512 18.8528 151.729 20.7898 150.37C22.7268 151.729 24.9768 152.512 27.3768 152.512H27.5978V146.978H27.3768C26.3898 146.978 25.4418 146.773 24.5598 146.399C26.2768 143.739 27.3018 140.406 27.3018 136.789V124.241H32.5498V129.158H28.6828V134.528H32.5498V144.769H32.5648C32.4368 146.961 30.9138 148.699 29.0558 148.699V154.764C33.7008 154.764 37.4928 150.307 37.6248 144.769H37.6428V124.241H41.1018V118.872H37.6428V109.593Z" fill="#1A1A1A"/>
<path d="M287.501 138.726V127.482C288.152 127.321 288.774 127.068 289.359 126.736V135.003C289.359 136.611 288.606 138.012 287.501 138.726ZM289.67 115.954V117.764C289.67 119.584 288.782 121.156 287.501 121.901V115.954H289.67ZM294.413 135.003V125.484H291.019C292.898 123.665 294.102 120.881 294.102 117.764V111.864H294.094V110.933H282.407V111.73V115.954V154.853H287.501V145.098C291.436 144.166 294.413 139.994 294.413 135.003Z" fill="#1A1A1A"/>
<path d="M170.266 109.593H165.173V113.049H165.073C165.073 115.164 163.877 116.949 162.255 117.483V122.891C162.511 122.853 162.764 122.801 163.012 122.736V127.575H166.562V133.201H163.012V138.571H166.562V146.731L163.015 148.388V154.15L174.068 148.985V143.223L171.655 144.35V138.571H174.091V133.201H171.655V127.575H174.091V122.206H164.411C165.852 121.485 167.087 120.287 167.981 118.779H174.445V113.409H170.266V109.593Z" fill="#1A1A1A"/>
<path d="M146.199 118.779H152.694V130.825H146.199V118.779ZM157.787 116.992H157.733V113.41H146.199V109.594H141.145V113.41H133.86V118.779H141.145V130.826H133.86V136.195H140.913C140.065 141.755 136.959 146.379 132.783 148.647V155.138C139.768 152.467 145.032 145.131 146.026 136.195H146.361C147.332 144.92 152.374 152.121 159.114 154.942V148.369C155.186 146.013 152.297 141.534 151.482 136.195H159.468V130.826H157.787V116.992Z" fill="#1A1A1A"/>
<path d="M85.3207 111.012H85.1597V154.852H90.2527V153.894H118.895V148.524H90.2527V116.296H118.895V110.927H85.3207V111.012Z" fill="#1A1A1A"/>
<path d="M180.467 146.578H180.374V122.405H175.694V146.578H175.68C175.68 146.751 175.686 146.922 175.694 147.092V147.161L175.699 147.162C175.949 151.394 178.896 154.746 182.484 154.746H199.277V148.999H182.484C181.372 148.999 180.467 147.913 180.467 146.578Z" fill="#1A1A1A"/>
<path d="M180.359 113.134H175.605V118.817H180.359V113.134Z" fill="#1A1A1A"/>
<path d="M191.449 109.628H186.215L185.469 113.409H182.187V118.778H184.409L182.389 129.015H182.238V134.385H189.702V137.457H182.238V142.826H189.702V147.36H194.796V142.826H199.339V137.457H194.796V134.385H199.339V129.015H194.796V123.097H189.702V129.015H187.623L189.643 118.778H199.339V113.409H190.703L191.449 109.628Z" fill="#1A1A1A"/>
<path d="M49.7981 148.596V134.486H51.8601V134.491C51.9521 134.491 52.0421 134.487 52.1341 134.486H52.2111V134.485C55.8311 134.436 59.3131 133.642 62.3601 132.196C65.2991 133.591 68.7061 134.405 72.3361 134.482V134.486H72.5931C72.6941 134.487 72.7951 134.491 72.8981 134.491V134.486H74.7051V148.596H49.7981ZM58.8961 123.381H65.8561C65.2371 124.13 64.4931 124.842 63.6241 125.499C63.2281 125.799 62.8141 126.081 62.3851 126.346C61.0041 125.504 59.8181 124.502 58.8961 123.381ZM49.7981 120.897V116.368H53.4971C53.4721 118.823 51.8341 120.816 49.7981 120.897ZM51.8601 129.163V129.187H49.7981V126.229C51.3751 126.2 52.8451 125.639 54.0911 124.689C54.8581 126.098 55.8521 127.393 57.0391 128.548C55.3911 128.951 53.6491 129.163 51.8601 129.163ZM74.7051 129.187H72.8981V129.163C71.1051 129.163 69.3561 128.939 67.7111 128.531C70.4901 125.844 72.1111 122.538 72.3721 118.978H67.9021C67.9011 118.986 67.8991 118.993 67.8981 119.001H58.1271V116.368H74.7051V129.187ZM79.7531 110.998H44.9961V111.029H44.7051V154.853H49.7981V153.965H74.7051V154.853H79.7991V111.029H79.7531V110.998Z" fill="#1A1A1A"/>
<path d="M248.352 116.06H273.047V121.469H278.141V111.039H277.953H273.047H262.803V109.62H257.71V111.039H248.352H243.307H243.258V121.469H248.352V116.06Z" fill="#1A1A1A"/>
<path d="M276.069 147.509C275.48 146.54 274.778 144.582 274.778 140.756V134.036H274.792V129.015H258.57V124.41H253.516V129.015H245.917V134.036H253.516V137.176C253.516 143.932 250.039 148.837 245.249 148.837H243.486V154.902H245.249C248.904 154.902 252.273 153.124 254.736 149.894C257.208 146.652 258.57 142.135 258.57 137.176V134.036H269.724V140.756C269.724 151.22 274.154 154.949 278.299 154.949V148.884C277.348 148.884 276.639 148.447 276.069 147.509Z" fill="#1A1A1A"/>
<path d="M297.007 128.781H317.263V123.412H297.007V128.781Z" fill="#1A1A1A"/>
<path d="M295.689 136.922H299.942V139.198C299.942 144.121 296.939 148.216 293.016 148.988V155.105C299.734 154.295 304.996 147.47 304.996 139.198V136.922H308.9V144.685C308.9 150.33 312.727 154.923 317.43 154.923V154.894H319.049V148.946H317.407V148.963C315.452 148.947 313.865 147.035 313.865 144.685V136.922H319.102V131.553H295.689V136.922Z" fill="#1A1A1A"/>
<path d="M317.92 111.039V111.033H309.008V109.478H303.914V111.033H295.276V111.039V116.403V121.469H300.37V116.403H314.08V121.469H319.174V111.039H317.92Z" fill="#1A1A1A"/>
<path d="M233.203 129.016H227.628V116.456H233.203V129.016ZM211.315 127.575H213.599V141.519H211.315V127.575ZM219.838 116.455H222.574V129.016H219.838V134.385H222.574V139.056C222.574 142.594 221.022 145.704 218.693 147.462V127.575V126.568V122.205H212.305C212.622 120.477 212.795 118.699 212.795 116.892V116.455H218.705V111.086H203.776V116.455H207.552V116.892C207.552 121.283 206.249 125.469 203.946 128.772V137.241C204.756 136.558 205.511 135.807 206.222 135.009V147.66H211.315V146.888H213.599V147.586H218.525C217.289 148.469 215.847 148.979 214.307 148.979H214.086V155.044H214.307C221.652 155.044 227.628 147.872 227.628 139.056V134.385H233.203V154.994H238.297V134.385H240.615V129.016H238.297V116.455H240.615V111.086H219.838V116.455Z" fill="#1A1A1A"/>
<path d="M74.3877 137.738V137.936L74.4687 137.811C74.4427 137.786 74.4147 137.763 74.3877 137.738Z" fill="#1A1A1A"/>
<path d="M53.5238 135.018V140.338H67.7428C68.8408 140.338 69.8658 140.54 70.8418 140.966L70.9598 136.092C70.3688 135.504 69.4078 135.018 67.7428 135.018H53.5238Z" fill="#1A1A1A"/>
<path d="M53.5238 141.899V147.219H67.7428C68.8408 147.219 69.8658 147.421 70.8418 147.847L70.9598 142.973C70.3688 142.385 69.4078 141.899 67.7428 141.899H53.5238Z" fill="#1A1A1A"/>
<path d="M74.3877 144.816L74.4687 144.691C74.4427 144.666 74.4147 144.643 74.3877 144.618V144.816Z" fill="#1A1A1A"/>
<path d="M245.887 122.657V127.985C250.943 127.985 255.124 123.411 255.713 117.53H251.214C250.669 120.459 248.489 122.657 245.887 122.657Z" fill="#1A1A1A"/>
<path d="M270.23 117.53H265.73C266.32 123.411 270.5 127.985 275.557 127.985V122.657C272.954 122.657 270.775 120.459 270.23 117.53Z" fill="#1A1A1A"/>
<path d="M109.239 118.895L104.312 127.353L99.3845 118.895H93.3755L101.308 132.51L93.1235 146.559H100.06L104.776 138.464L109.492 146.559H115.5L107.78 133.307L116.176 118.895H109.239Z" fill="#1A1A1A"/>
<path d="M133.403 139.733L130.931 140.888V126.298H134.933V120.929H130.931V111.012H125.838V120.929H122.186V126.298H125.838V143.268L122.173 144.981V150.743L133.403 145.495V139.733Z" fill="#1A1A1A"/>
<path d="M394.363 58.7248L373.335 79.7528L361.632 68.0499L382.66 47.0219L373.308 37.6698L342.826 68.1508L373.224 98.5479L403.705 68.0668L394.363 58.7248Z" fill="#1A1A1A"/>
<path d="M413.127 39.7174L373.411 0.000396729L333.583 39.8284L333.71 58.4444L373.242 18.9134L413.061 58.7334L413.127 39.7174Z" fill="#38A1DB"/>
<path d="M191.613 100.238V21.0143H204.368V88.9463H225.664V100.238H191.613Z" fill="#1A1A1A"/>
<path d="M306.163 100.238L296.825 71.8883L287.486 100.238H273.479L289.536 59.3743L274.732 21.3903H288.739L296.825 47.7463L304.91 21.3903H318.918L303.771 59.3743L320.17 100.238H306.163Z" fill="#1A1A1A"/>
<path d="M79.4438 82.8062C79.4438 86.7742 76.2278 89.9902 72.2598 89.9902H67.2478C63.2798 89.9902 60.0638 86.7742 60.0638 82.8062V38.5862C60.0638 34.6182 63.2798 31.4022 67.2478 31.4022H72.2598C76.2278 31.4022 79.4438 34.6182 79.4438 38.5862V82.8062ZM75.1728 20.4012H64.3338C55.4328 20.4012 48.2168 27.6182 48.2168 36.5192V84.8722C48.2168 93.7742 55.4328 100.99 64.3338 100.99H75.1728C84.0748 100.99 91.2908 93.7742 91.2908 84.8722V36.5192C91.2908 27.6182 84.0748 20.4012 75.1728 20.4012Z" fill="#1A1A1A"/>
<path d="M258.709 21.1212V82.8072C258.709 86.7742 255.493 89.9912 251.525 89.9912H247.394C243.427 89.9912 240.21 86.7742 240.21 82.8072V21.1212H228.363V84.8732C228.363 93.7752 235.579 100.991 244.481 100.991H254.438C263.34 100.991 270.556 93.7752 270.556 84.8732V21.1212H258.709Z" fill="#1A1A1A"/>
<path d="M111.534 100.182V38.7116C111.534 34.7436 114.75 31.5276 118.718 31.5276H122.849C126.816 31.5276 130.033 34.7436 130.033 38.7116V100.182H141.88V36.6446C141.88 27.7436 134.664 20.5266 125.762 20.5266H115.805C106.903 20.5266 99.687 27.7436 99.687 36.6446V100.182H111.534Z" fill="#1A1A1A"/>
<path d="M42.275 36.3872C42.275 27.4852 35.059 20.2692 26.157 20.2692H16.118C7.216 20.2692 0 27.4852 0 36.3872V84.8732C0 93.7742 7.216 100.99 16.118 100.99H26.157C35.059 100.99 42.275 93.7742 42.275 84.8732V77.8772H30.913C30.822 80.1422 30.638 82.0992 30.393 83.4892C30.049 87.1362 26.981 89.9902 23.244 89.9902H19.031C15.064 89.9902 11.847 86.7742 11.847 82.8062V38.4532C11.847 34.4862 15.064 31.2702 19.031 31.2702H23.244C26.148 31.2702 28.644 32.9962 29.776 35.4762C30.325 36.2182 30.768 39.2872 30.919 43.2892H42.275V36.3872Z" fill="#1A1A1A"/>
<path d="M184.864 21.0151H159.662L159.664 21.0181C154.933 21.0181 151.068 24.7251 150.813 29.3921V100.245H163.568V65.8051H181.903V54.5141H163.568V37.9471L163.616 38.0001C163.616 33.6391 164.781 32.3101 169.306 32.3101L169.301 32.3071H184.864V21.0151Z" fill="#1A1A1A"/>
</svg>
