<svg width="414" height="156" viewBox="0 0 414 156" fill="none" xmlns="http://www.w3.org/2000/svg">
<path d="M18.8877 116.651H22.6917V136.789C22.6917 139.22 21.9777 141.454 20.7897 143.207C19.6017 141.454 18.8877 139.22 18.8877 136.789V116.651ZM37.6427 109.593H32.5497V118.872H27.3017V116.651H27.3107V111.282H14.2907V115.836H14.2777V118.872H11.4287V109.593H6.3357V118.872H0.0766945V124.241H5.1637V135.249C5.1637 139.463 3.0417 143.092 0.0126953 144.682V150.317C2.4927 149.504 4.6777 147.83 6.3357 145.582V154.717H11.4287V124.241H14.2777V136.789C14.2777 140.406 15.3037 143.739 17.0207 146.399C16.1377 146.773 15.1897 146.978 14.2027 146.978H13.9817V152.512H14.2027C16.6027 152.512 18.8527 151.729 20.7897 150.37C22.7267 151.729 24.9767 152.512 27.3767 152.512H27.5977V146.978H27.3767C26.3897 146.978 25.4417 146.773 24.5597 146.399C26.2767 143.739 27.3017 140.406 27.3017 136.789V124.241H32.5497V129.158H28.6827V134.528H32.5497V144.769H32.5647C32.4367 146.961 30.9137 148.699 29.0557 148.699V154.764C33.7007 154.764 37.4927 150.307 37.6247 144.769H37.6427V124.241H41.1017V118.872H37.6427V109.593Z" fill="white"/>
<path d="M287.501 138.725V127.481C288.152 127.32 288.774 127.067 289.359 126.735V135.002C289.359 136.61 288.606 138.011 287.501 138.725ZM289.67 115.953V117.763C289.67 119.583 288.782 121.155 287.501 121.9V115.953H289.67ZM294.413 135.002V125.483H291.019C292.898 123.664 294.102 120.88 294.102 117.763V111.863H294.094V110.932H282.407V111.729V115.953V154.852H287.501V145.097C291.436 144.165 294.413 139.993 294.413 135.002Z" fill="white"/>
<path d="M170.267 109.593H165.174V113.049H165.074C165.074 115.164 163.878 116.949 162.256 117.483V122.891C162.512 122.853 162.765 122.801 163.013 122.736V127.575H166.563V133.201H163.013V138.571H166.563V146.731L163.016 148.388V154.15L174.069 148.985V143.223L171.656 144.35V138.571H174.092V133.201H171.656V127.575H174.092V122.206H164.412C165.853 121.485 167.088 120.287 167.982 118.779H174.446V113.409H170.267V109.593Z" fill="white"/>
<path d="M146.199 118.778H152.694V130.824H146.199V118.778ZM157.787 116.991H157.733V113.409H146.199V109.593H141.145V113.409H133.86V118.778H141.145V130.825H133.86V136.194H140.913C140.065 141.754 136.959 146.378 132.783 148.646V155.137C139.768 152.466 145.032 145.13 146.026 136.194H146.361C147.332 144.919 152.374 152.12 159.114 154.941V148.368C155.186 146.012 152.297 141.533 151.482 136.194H159.468V130.825H157.787V116.991Z" fill="white"/>
<path d="M85.3202 111.012H85.1592V154.852H90.2522V153.894H118.894V148.524H90.2522V116.296H118.894V110.927H85.3202V111.012Z" fill="white"/>
<path d="M180.467 146.579H180.374V122.406H175.694V146.579H175.68C175.68 146.752 175.686 146.923 175.694 147.093V147.162L175.699 147.163C175.949 151.395 178.896 154.747 182.484 154.747H199.277V149H182.484C181.372 149 180.467 147.914 180.467 146.579Z" fill="white"/>
<path d="M180.359 113.134H175.605V118.817H180.359V113.134Z" fill="white"/>
<path d="M191.449 109.629H186.215L185.469 113.41H182.187V118.779H184.409L182.389 129.016H182.238V134.386H189.702V137.458H182.238V142.827H189.702V147.361H194.796V142.827H199.339V137.458H194.796V134.386H199.339V129.016H194.796V123.098H189.702V129.016H187.623L189.643 118.779H199.339V113.41H190.703L191.449 109.629Z" fill="white"/>
<path d="M49.7981 148.595V134.485H51.8601V134.49C51.9521 134.49 52.0421 134.486 52.1341 134.485H52.2111V134.484C55.8311 134.435 59.3131 133.641 62.3601 132.195C65.2991 133.59 68.7061 134.404 72.3361 134.481V134.485H72.5931C72.6941 134.486 72.7951 134.49 72.8981 134.49V134.485H74.7051V148.595H49.7981ZM58.8961 123.38H65.8561C65.2371 124.129 64.4931 124.841 63.6241 125.498C63.2281 125.798 62.8141 126.08 62.3851 126.345C61.0041 125.503 59.8181 124.501 58.8961 123.38ZM49.7981 120.896V116.367H53.4971C53.4721 118.822 51.8341 120.815 49.7981 120.896ZM51.8601 129.162V129.186H49.7981V126.228C51.3751 126.199 52.8451 125.638 54.0911 124.688C54.8581 126.097 55.8521 127.392 57.0391 128.547C55.3911 128.95 53.6491 129.162 51.8601 129.162ZM74.7051 129.186H72.8981V129.162C71.1051 129.162 69.3561 128.938 67.7111 128.53C70.4901 125.843 72.1111 122.537 72.3721 118.977H67.9021C67.9011 118.985 67.8991 118.992 67.8981 119H58.1271V116.367H74.7051V129.186ZM79.7531 110.997H44.9961V111.028H44.7051V154.852H49.7981V153.964H74.7051V154.852H79.7991V111.028H79.7531V110.997Z" fill="white"/>
<path d="M248.352 116.06H273.047V121.469H278.141V111.039H277.953H273.047H262.803V109.62H257.71V111.039H248.352H243.307H243.258V121.469H248.352V116.06Z" fill="white"/>
<path d="M276.069 147.51C275.48 146.541 274.778 144.583 274.778 140.757V134.037H274.792V129.016H258.57V124.411H253.516V129.016H245.917V134.037H253.516V137.177C253.516 143.933 250.039 148.838 245.249 148.838H243.486V154.903H245.249C248.904 154.903 252.273 153.125 254.736 149.895C257.208 146.653 258.57 142.136 258.57 137.177V134.037H269.724V140.757C269.724 151.221 274.154 154.95 278.299 154.95V148.885C277.348 148.885 276.639 148.448 276.069 147.51Z" fill="white"/>
<path d="M297.007 128.781H317.263V123.412H297.007V128.781Z" fill="white"/>
<path d="M295.69 136.922H299.943V139.198C299.943 144.121 296.94 148.216 293.017 148.988V155.105C299.735 154.295 304.997 147.47 304.997 139.198V136.922H308.901V144.685C308.901 150.33 312.728 154.923 317.431 154.923V154.894H319.05V148.946H317.408V148.963C315.453 148.947 313.866 147.035 313.866 144.685V136.922H319.103V131.553H295.69V136.922Z" fill="white"/>
<path d="M317.919 111.039V111.033H309.007V109.478H303.913V111.033H295.275V111.039V116.403V121.469H300.369V116.403H314.079V121.469H319.173V111.039H317.919Z" fill="white"/>
<path d="M233.202 129.016H227.627V116.456H233.202V129.016ZM211.314 127.575H213.598V141.519H211.314V127.575ZM219.837 116.455H222.573V129.016H219.837V134.385H222.573V139.056C222.573 142.594 221.021 145.704 218.692 147.462V127.575V126.568V122.205H212.304C212.621 120.477 212.794 118.699 212.794 116.892V116.455H218.704V111.086H203.775V116.455H207.551V116.892C207.551 121.283 206.248 125.469 203.945 128.772V137.241C204.755 136.558 205.51 135.807 206.221 135.009V147.66H211.314V146.888H213.598V147.586H218.524C217.288 148.469 215.846 148.979 214.306 148.979H214.085V155.044H214.306C221.651 155.044 227.627 147.872 227.627 139.056V134.385H233.202V154.994H238.296V134.385H240.614V129.016H238.296V116.455H240.614V111.086H219.837V116.455Z" fill="white"/>
<path d="M74.3877 137.738V137.936L74.4687 137.811C74.4427 137.786 74.4147 137.763 74.3877 137.738Z" fill="white"/>
<path d="M53.5234 135.018V140.338H67.7424C68.8404 140.338 69.8654 140.54 70.8414 140.966L70.9594 136.092C70.3684 135.504 69.4074 135.018 67.7424 135.018H53.5234Z" fill="white"/>
<path d="M53.5234 141.899V147.219H67.7424C68.8404 147.219 69.8654 147.421 70.8414 147.847L70.9594 142.973C70.3684 142.385 69.4074 141.899 67.7424 141.899H53.5234Z" fill="white"/>
<path d="M74.3877 144.816L74.4687 144.691C74.4427 144.666 74.4147 144.643 74.3877 144.618V144.816Z" fill="white"/>
<path d="M245.887 122.657V127.985C250.943 127.985 255.124 123.411 255.713 117.53H251.214C250.669 120.459 248.489 122.657 245.887 122.657Z" fill="white"/>
<path d="M270.229 117.53H265.729C266.319 123.411 270.499 127.985 275.556 127.985V122.657C272.953 122.657 270.774 120.459 270.229 117.53Z" fill="white"/>
<path d="M109.238 118.895L104.311 127.353L99.384 118.895H93.375L101.307 132.51L93.123 146.559H100.059L104.775 138.464L109.491 146.559H115.499L107.779 133.307L116.175 118.895H109.238Z" fill="white"/>
<path d="M133.404 139.733L130.932 140.888V126.298H134.934V120.929H130.932V111.012H125.839V120.929H122.187V126.298H125.839V143.268L122.174 144.981V150.743L133.404 145.495V139.733Z" fill="white"/>
<path d="M394.363 58.7248L373.335 79.7528L361.632 68.0499L382.66 47.0219L373.308 37.6698L342.826 68.1508L373.224 98.5479L403.705 68.0668L394.363 58.7248Z" fill="white"/>
<path d="M413.127 39.7169L373.411 -9.15527e-05L333.583 39.8279L333.71 58.4439L373.242 18.9129L413.061 58.7329L413.127 39.7169Z" fill="white"/>
<path d="M191.613 100.239V21.0148H204.368V88.9468H225.664V100.239H191.613Z" fill="white"/>
<path d="M306.163 100.239L296.825 71.8888L287.486 100.239H273.479L289.536 59.3748L274.732 21.3908H288.739L296.825 47.7468L304.91 21.3908H318.918L303.771 59.3748L320.17 100.239H306.163Z" fill="white"/>
<path d="M79.4438 82.8067C79.4438 86.7747 76.2278 89.9907 72.2598 89.9907H67.2478C63.2798 89.9907 60.0638 86.7747 60.0638 82.8067V38.5867C60.0638 34.6187 63.2798 31.4027 67.2478 31.4027H72.2598C76.2278 31.4027 79.4438 34.6187 79.4438 38.5867V82.8067ZM75.1728 20.4017H64.3338C55.4328 20.4017 48.2168 27.6187 48.2168 36.5197V84.8727C48.2168 93.7747 55.4328 100.991 64.3338 100.991H75.1728C84.0748 100.991 91.2908 93.7747 91.2908 84.8727V36.5197C91.2908 27.6187 84.0748 20.4017 75.1728 20.4017Z" fill="white"/>
<path d="M258.709 21.1207V82.8067C258.709 86.7737 255.493 89.9907 251.525 89.9907H247.394C243.427 89.9907 240.21 86.7737 240.21 82.8067V21.1207H228.363V84.8727C228.363 93.7747 235.579 100.991 244.481 100.991H254.438C263.34 100.991 270.556 93.7747 270.556 84.8727V21.1207H258.709Z" fill="white"/>
<path d="M111.535 100.182V38.7121C111.535 34.7441 114.751 31.5281 118.719 31.5281H122.849C126.816 31.5281 130.034 34.7441 130.034 38.7121V100.182H141.881V36.6451C141.881 27.7441 134.665 20.5271 125.763 20.5271H115.806C106.903 20.5271 99.6875 27.7441 99.6875 36.6451V100.182H111.535Z" fill="white"/>
<path d="M42.275 36.3877C42.275 27.4857 35.059 20.2697 26.157 20.2697H16.118C7.216 20.2697 0 27.4857 0 36.3877V84.8737C0 93.7747 7.216 100.991 16.118 100.991H26.157C35.059 100.991 42.275 93.7747 42.275 84.8737V77.8777H30.913C30.822 80.1427 30.638 82.0997 30.393 83.4897C30.049 87.1367 26.981 89.9907 23.244 89.9907H19.031C15.064 89.9907 11.847 86.7747 11.847 82.8067V38.4537C11.847 34.4867 15.064 31.2707 19.031 31.2707H23.244C26.148 31.2707 28.644 32.9967 29.776 35.4767C30.325 36.2187 30.768 39.2877 30.919 43.2897H42.275V36.3877Z" fill="white"/>
<path d="M184.864 21.0146H159.662L159.664 21.0176C154.933 21.0176 151.068 24.7246 150.813 29.3916V100.245H163.568V65.8046H181.903V54.5136H163.568V37.9466L163.616 37.9996C163.616 33.6386 164.781 32.3096 169.306 32.3096L169.301 32.3066H184.864V21.0146Z" fill="white"/>
</svg>
