<svg width="414" height="100" viewBox="0 0 414 100" fill="none" xmlns="http://www.w3.org/2000/svg">
<path d="M394.363 58.7248L373.335 79.7528L361.632 68.0499L382.66 47.0219L373.308 37.6698L342.826 68.1508L373.224 98.5479L403.705 68.0668L394.363 58.7248Z" fill="#1A1A1A"/>
<path d="M413.127 39.7174L373.411 0.000396729L333.583 39.8284L333.71 58.4444L373.242 18.9134L413.061 58.7334L413.127 39.7174Z" fill="#38A1DB"/>
<path d="M191.613 99.0586V19.8346H204.368V87.7666H225.664V99.0586H191.613Z" fill="#1A1A1A"/>
<path d="M306.163 99.0586L296.825 70.7086L287.486 99.0586H273.479L289.536 58.1946L274.732 20.2106H288.739L296.825 46.5666L304.91 20.2106H318.918L303.771 58.1946L320.17 99.0586H306.163Z" fill="#1A1A1A"/>
<path d="M79.4438 81.6265C79.4438 85.5945 76.2278 88.8105 72.2598 88.8105H67.2478C63.2798 88.8105 60.0638 85.5945 60.0638 81.6265V37.4065C60.0638 33.4385 63.2798 30.2225 67.2478 30.2225H72.2598C76.2278 30.2225 79.4438 33.4385 79.4438 37.4065V81.6265ZM75.1728 19.2215H64.3338C55.4328 19.2215 48.2168 26.4385 48.2168 35.3395V83.6925C48.2168 92.5945 55.4328 99.8105 64.3338 99.8105H75.1728C84.0748 99.8105 91.2908 92.5945 91.2908 83.6925V35.3395C91.2908 26.4385 84.0748 19.2215 75.1728 19.2215Z" fill="#1A1A1A"/>
<path d="M258.709 19.9405V81.6265C258.709 85.5935 255.493 88.8105 251.525 88.8105H247.394C243.427 88.8105 240.21 85.5935 240.21 81.6265V19.9405H228.363V83.6925C228.363 92.5945 235.579 99.8105 244.481 99.8105H254.438C263.34 99.8105 270.556 92.5945 270.556 83.6925V19.9405H258.709Z" fill="#1A1A1A"/>
<path d="M111.534 99.001V37.531C111.534 33.563 114.75 30.347 118.718 30.347H122.849C126.816 30.347 130.033 33.563 130.033 37.531V99.001H141.88V35.464C141.88 26.563 134.664 19.346 125.762 19.346H115.805C106.903 19.346 99.687 26.563 99.687 35.464V99.001H111.534Z" fill="#1A1A1A"/>
<path d="M42.275 35.2066C42.275 26.3046 35.059 19.0886 26.157 19.0886H16.118C7.216 19.0886 0 26.3046 0 35.2066V83.6926C0 92.5936 7.216 99.8096 16.118 99.8096H26.157C35.059 99.8096 42.275 92.5936 42.275 83.6926V76.6966H30.913C30.822 78.9616 30.638 80.9186 30.393 82.3086C30.049 85.9556 26.981 88.8096 23.244 88.8096H19.031C15.064 88.8096 11.847 85.5936 11.847 81.6256V37.2726C11.847 33.3056 15.064 30.0896 19.031 30.0896H23.244C26.148 30.0896 28.644 31.8156 29.776 34.2956C30.325 35.0376 30.768 38.1066 30.919 42.1086H42.275V35.2066Z" fill="#1A1A1A"/>
<path d="M184.864 19.8344H159.662L159.664 19.8374C154.933 19.8374 151.068 23.5444 150.813 28.2114V99.0645H163.568V64.6245H181.903V53.3335H163.568V36.7664L163.616 36.8195C163.616 32.4585 164.781 31.1294 169.306 31.1294L169.301 31.1264H184.864V19.8344Z" fill="#1A1A1A"/>
</svg>
