<svg width="414" height="100" viewBox="0 0 414 100" fill="none" xmlns="http://www.w3.org/2000/svg">
<path d="M394.363 58.7248L373.335 79.7528L361.632 68.0499L382.66 47.0219L373.308 37.6698L342.826 68.1508L373.224 98.5479L403.705 68.0668L394.363 58.7248Z" fill="white"/>
<path d="M413.127 39.7169L373.411 -9.15527e-05L333.583 39.8279L333.71 58.4439L373.242 18.9129L413.061 58.7329L413.127 39.7169Z" fill="white"/>
<path d="M191.613 99.0581V19.8341H204.368V87.7661H225.664V99.0581H191.613Z" fill="white"/>
<path d="M306.163 99.0581L296.825 70.7081L287.486 99.0581H273.479L289.536 58.1941L274.732 20.2101H288.739L296.825 46.5661L304.91 20.2101H318.918L303.771 58.1941L320.17 99.0581H306.163Z" fill="white"/>
<path d="M79.4438 81.6261C79.4438 85.5941 76.2278 88.8101 72.2598 88.8101H67.2478C63.2798 88.8101 60.0638 85.5941 60.0638 81.6261V37.4061C60.0638 33.4381 63.2798 30.2221 67.2478 30.2221H72.2598C76.2278 30.2221 79.4438 33.4381 79.4438 37.4061V81.6261ZM75.1728 19.2211H64.3338C55.4328 19.2211 48.2168 26.4381 48.2168 35.3391V83.6921C48.2168 92.5941 55.4328 99.8101 64.3338 99.8101H75.1728C84.0748 99.8101 91.2908 92.5941 91.2908 83.6921V35.3391C91.2908 26.4381 84.0748 19.2211 75.1728 19.2211Z" fill="white"/>
<path d="M258.709 19.9401V81.6261C258.709 85.5931 255.493 88.8101 251.525 88.8101H247.394C243.427 88.8101 240.21 85.5931 240.21 81.6261V19.9401H228.363V83.6921C228.363 92.5941 235.579 99.8101 244.481 99.8101H254.438C263.34 99.8101 270.556 92.5941 270.556 83.6921V19.9401H258.709Z" fill="white"/>
<path d="M111.535 99.0015V37.5315C111.535 33.5635 114.75 30.3475 118.719 30.3475H122.849C126.816 30.3475 130.034 33.5635 130.034 37.5315V99.0015H141.881V35.4645C141.881 26.5635 134.665 19.3465 125.763 19.3465H115.806C106.903 19.3465 99.6875 26.5635 99.6875 35.4645V99.0015H111.535Z" fill="white"/>
<path d="M42.275 35.2071C42.275 26.3051 35.059 19.0891 26.157 19.0891H16.118C7.216 19.0891 0 26.3051 0 35.2071V83.6931C0 92.5941 7.216 99.8101 16.118 99.8101H26.157C35.059 99.8101 42.275 92.5941 42.275 83.6931V76.6971H30.913C30.822 78.9621 30.638 80.9191 30.393 82.3091C30.049 85.9561 26.981 88.8101 23.244 88.8101H19.031C15.064 88.8101 11.847 85.5941 11.847 81.6261V37.2731C11.847 33.3061 15.064 30.0901 19.031 30.0901H23.244C26.148 30.0901 28.644 31.8161 29.776 34.2961C30.325 35.0381 30.768 38.1071 30.919 42.1091H42.275V35.2071Z" fill="white"/>
<path d="M184.864 19.834H159.662L159.664 19.837C154.933 19.837 151.068 23.544 150.813 28.211V99.064H163.568V64.624H181.903V53.333H163.568V36.766L163.616 36.819C163.616 32.458 164.781 31.129 169.306 31.129L169.301 31.126H184.864V19.834Z" fill="white"/>
</svg>
