<svg width="567" height="101" viewBox="0 0 567 101" fill="none" xmlns="http://www.w3.org/2000/svg">
<path d="M33.615 32.727H40.39V68.591C40.39 72.921 39.119 76.9 37.003 80.022C34.886 76.9 33.615 72.921 33.615 68.591V32.727ZM67.017 20.158H57.946V36.682H48.601V32.727H48.616V23.164H25.428V31.276H25.405V36.682H20.331V20.158H11.26V36.682H0.113003V46.245H9.174V65.848C9.174 73.354 5.394 79.817 0 82.649V92.683C4.416 91.236 8.309 88.254 11.26 84.252V100.52H20.331V46.245H25.405V68.591C25.405 75.033 27.231 80.97 30.289 85.706C28.718 86.372 27.03 86.738 25.271 86.738H24.878V96.592H25.271C29.546 96.592 33.553 95.198 37.003 92.779C40.452 95.198 44.459 96.592 48.734 96.592H49.127V86.738H48.734C46.975 86.738 45.287 86.372 43.716 85.706C46.774 80.97 48.601 75.033 48.601 68.591V46.245H57.946V55.001H51.06V64.564H57.946V82.804H57.973C57.745 86.707 55.033 89.802 51.724 89.802V100.603C59.997 100.603 66.749 92.666 66.984 82.804H67.017V46.245H73.176V36.682H67.017V20.158Z" fill="white"/>
<path d="M88.6638 89.6182V64.4892H92.3358V64.4992C92.5018 64.4992 92.6658 64.4912 92.8308 64.4892H92.9608V64.4872C99.4088 64.4012 105.609 62.9872 111.036 60.4102C116.271 62.8952 122.339 64.3452 128.803 64.4822V64.4892H129.259C129.441 64.4922 129.621 64.4992 129.803 64.4992V64.4892H133.022V89.6182H88.6638ZM104.868 44.7122H117.262C116.161 46.0462 114.834 47.3132 113.288 48.4832C112.582 49.0172 111.845 49.5202 111.081 49.9932C108.621 48.4922 106.509 46.7082 104.868 44.7122ZM88.6638 40.2942V32.2222H95.2548C95.2088 36.5962 92.2908 40.1522 88.6638 40.2942ZM92.3358 55.0092V55.0522H88.6638V49.7832C91.4718 49.7322 94.0908 48.7342 96.3098 47.0422C97.6748 49.5502 99.4458 51.8572 101.56 53.9132C98.6248 54.6312 95.5228 55.0092 92.3358 55.0092ZM133.022 55.0522H129.803V55.0092C126.61 55.0092 123.496 54.6102 120.565 53.8842C125.517 49.0992 128.407 43.2102 128.871 36.8702H120.906C120.904 36.8842 120.901 36.8982 120.899 36.9122H103.497V32.2222H133.022V55.0522ZM142.012 22.7132V22.6592H80.1128V22.7132H79.5928V100.761H88.6638V99.1812H133.022V100.761H142.093V22.7132H142.012Z" fill="white"/>
<path d="M132.457 70.2808V70.6338L132.602 70.4118C132.554 70.3668 132.505 70.3248 132.457 70.2808Z" fill="white"/>
<path d="M95.2988 65.4378V74.9128H120.622C122.577 74.9128 124.404 75.2728 126.141 76.0308L126.351 67.3508C125.298 66.3028 123.588 65.4378 120.622 65.4378H95.2988Z" fill="white"/>
<path d="M95.2988 77.6926V87.1676H120.622C122.577 87.1676 124.404 87.5276 126.141 88.2856L126.351 79.6056C125.298 78.5576 123.588 77.6926 120.622 77.6926H95.2988Z" fill="white"/>
<path d="M132.457 82.8882L132.602 82.6662C132.554 82.6212 132.505 82.5802 132.457 82.5352V82.8882Z" fill="white"/>
<path d="M345.38 100.239V21.0148H358.135V88.9468H379.431V100.239H345.38Z" fill="white"/>
<path d="M459.93 100.239L450.592 71.8888L441.253 100.239H427.246L443.303 59.3748L428.499 21.3908H442.506L450.592 47.7468L458.677 21.3908H472.685L457.538 59.3748L473.937 100.239H459.93Z" fill="white"/>
<path d="M233.21 82.8067C233.21 86.7747 229.994 89.9907 226.026 89.9907H221.014C217.046 89.9907 213.83 86.7747 213.83 82.8067V38.5867C213.83 34.6187 217.046 31.4027 221.014 31.4027H226.026C229.994 31.4027 233.21 34.6187 233.21 38.5867V82.8067ZM228.939 20.4017H218.1C209.199 20.4017 201.983 27.6187 201.983 36.5197V84.8727C201.983 93.7747 209.199 100.991 218.1 100.991H228.939C237.841 100.991 245.057 93.7747 245.057 84.8727V36.5197C245.057 27.6187 237.841 20.4017 228.939 20.4017Z" fill="white"/>
<path d="M412.476 21.1207V82.8067C412.476 86.7737 409.26 89.9907 405.292 89.9907H401.161C397.194 89.9907 393.977 86.7737 393.977 82.8067V21.1207H382.13V84.8727C382.13 93.7747 389.346 100.991 398.248 100.991H408.205C417.107 100.991 424.323 93.7747 424.323 84.8727V21.1207H412.476Z" fill="white"/>
<path d="M265.3 100.182V38.7121C265.3 34.7441 268.516 31.5281 272.484 31.5281H276.615C280.582 31.5281 283.799 34.7441 283.799 38.7121V100.182H295.646V36.6451C295.646 27.7441 288.43 20.5271 279.528 20.5271H269.571C260.669 20.5271 253.453 27.7441 253.453 36.6451V100.182H265.3Z" fill="white"/>
<path d="M196.042 36.3877C196.042 27.4857 188.826 20.2697 179.924 20.2697H169.885C160.983 20.2697 153.767 27.4857 153.767 36.3877V84.8737C153.767 93.7747 160.983 100.991 169.885 100.991H179.924C188.826 100.991 196.042 93.7747 196.042 84.8737V77.8777H184.68C184.589 80.1427 184.405 82.0997 184.16 83.4897C183.816 87.1367 180.748 89.9907 177.011 89.9907H172.798C168.831 89.9907 165.614 86.7747 165.614 82.8067V38.4537C165.614 34.4867 168.831 31.2707 172.798 31.2707H177.011C179.915 31.2707 182.411 32.9967 183.543 35.4767C184.092 36.2187 184.535 39.2877 184.686 43.2897H196.042V36.3877Z" fill="white"/>
<path d="M338.631 21.0146H313.429L313.431 21.0176C308.7 21.0176 304.835 24.7246 304.58 29.3916V100.245H317.335V65.8046H335.67V54.5136H317.335V37.9466L317.383 37.9996C317.383 33.6386 318.548 32.3096 323.073 32.3096L323.068 32.3066H338.631V21.0146Z" fill="white"/>
<path d="M548.129 58.7244L527.101 79.7524L515.398 68.0494L536.426 47.0214L527.074 37.6694L496.592 68.1504L526.99 98.5474L557.471 68.0664L548.129 58.7244Z" fill="white"/>
<path d="M566.894 39.7169L527.178 -9.15527e-05L487.35 39.8279L487.477 58.4439L527.009 18.9129L566.828 58.7329L566.894 39.7169Z" fill="white"/>
</svg>
